SplineFontDB: 3.0
FontName: TaameyAshkenaz-BoldOblique
FullName: Taamey Ashkenaz BoldOblique
FamilyName: Taamey Ashkenaz
Weight: Bold
Copyright: Copyright 2012 by Yoram Gnat (yoram.gnat@gmail.com)\nDistributed under the terms of GNU General Public License version 2(http://www.gnu.org/licenses/gpl.html).\n\nLatin glyphs and punctuation Copyright (URW)++,Copyright 1999 by (URW)++ Design & Development;\n \nHebrew Cantillation marks GSUB and GPOS OpenType positioning rules copyright (c) 2011-2012 by Yoram Gnat (yoram.gnat@gmail.com)\nDistributed under the terms of GNU General Public License version 2(http://www.gnu.org/licenses/gpl.html).\nInspired by the Hebrew OpenType Layout logic copyright (c) 2003 & 2007, Ralph Hancock & John Hudson published under the MIT License.\n\nAs a special exception, if you create a document which uses this font, and embed this font or unaltered portions of this font into the document, this font does not by itself cause the resulting document to be covered by the GNU General Public License. This exception does not however invalidate any other reasons why the document might be covered by the GNU General Public License. If you modify this font, you may extend this exception to your version of the font, but you are not obligated to do so. If you do not wish to do so, delete this exception statement from your version.
UComments: "The average width of a character (not including narrow chars) is 945.4" 
Version: 0.150yg
ItalicAngle: 13
UnderlinePosition: -170
UnderlineWidth: 70
Ascent: 1638
Descent: 410
LayerCount: 2
Layer: 0 0 "Back"  1
Layer: 1 0 "Fore"  0
NeedsXUIDChange: 1
XUID: [1021 594 1227166039 12540753]
FSType: 0
OS2Version: 0
OS2_WeightWidthSlopeOnly: 0
OS2_UseTypoMetrics: 1
CreationTime: 1244295734
ModificationTime: 1340284460
PfmFamily: 17
TTFWeight: 700
TTFWidth: 6
LineGap: 184
VLineGap: 0
Panose: 2 0 0 0 0 0 0 0 0 0
OS2TypoAscent: 0
OS2TypoAOffset: 1
OS2TypoDescent: 0
OS2TypoDOffset: 1
OS2TypoLinegap: 184
OS2WinAscent: 0

StartChar: .null
Encoding: 0 -1 0
AltUni2: 000000.ffffffff.0 000000.ffffffff.0 000000.ffffffff.0 000000.ffffffff.0 000000.ffffffff.0 000000.ffffffff.0 000000.ffffffff.0 000000.ffffffff.0 000000.ffffffff.0 000000.ffffffff.0 000000.ffffffff.0 000000.ffffffff.0 000000.ffffffff.0 000000.ffffffff.0 000000.ffffffff.0 000000.ffffffff.0 000000.ffffffff.0 000000.ffffffff.0 000000.ffffffff.0 000000.ffffffff.0 000000.ffffffff.0 000000.ffffffff.0 000000.ffffffff.0 000000.ffffffff.0 000000.ffffffff.0 000000.ffffffff.0 000000.ffffffff.0 000000.ffffffff.0 000000.ffffffff.0 000000.ffffffff.0 000000.ffffffff.0 000000.ffffffff.0 000000.ffffffff.0 000000.ffffffff.0
Width: 1128
VWidth: 2273
GlyphClass: 2
Flags: W
HStem: -64 138<169 925> 124 192<388.519 546.803> 868 107<254.509 416.264> 1035 154<-53 703>
VStem: 101 220<718.706 828.288> 357 220<157.25 284.877> 357 125<368.726 528.643> 446 194<620.495 840.684>
LayerCount: 2
Fore
SplineSet
55 -64 m 1xf8
 -235 1189 l 1
 814 1189 l 1
 1104 -64 l 1
 55 -64 l 1xf8
703 1035 m 1
 -53 1035 l 1
 169 74 l 1
 925 74 l 1
 703 1035 l 1
489 124 m 0
 427 124 357 174 357 240 c 0xfc
 357 284 394 316 446 316 c 0xf9
 508 316 577 268 577 201 c 0xfc
 577 158 542 124 489 124 c 0
253 848 m 1
 264 840 321 804 321 754 c 0
 321 711 286 679 240 679 c 0
 165 679 101 743 101 824 c 0
 101 916 194 975 325 975 c 0
 477 975 605 890 634 762 c 0
 638 744 640 728 640 713 c 0xf9
 640 653 607 611 533 538 c 1
 498 506 482 487 482 449 c 0
 482 432 485 410 492 381 c 2
 501 341 l 1
 382 341 l 1
 367 406 l 2
 360 436 357 463 357 486 c 0xfa
 357 611 446 639 446 731 c 0xf9
 446 804 410 868 319 868 c 0
 277 868 260 855 253 848 c 1
EndSplineSet
Validated: 1
Substitution2: "L1ccmpZWJbuginLinuxoverride subtable" zerojoin
EndChar

StartChar: exclam
Encoding: 2 33 2
Width: 562
VWidth: 1900
GlyphClass: 2
Flags: W
HStem: -28 355<166.18 336.413>
VStem: -179 377<1103.85 1288.79> 69 365<66.7266 232.713> 136 100<433 599.627>
LayerCount: 2
Fore
SplineSet
198 1102 m 0xc0
 198 1062 186 910 186 826 c 0
 186 720 199 595 236 433 c 1
 136 433 l 1x90
 72 709 29 790 -105 1041 c 0
 -135 1098 -160 1161 -171 1210 c 0
 -176 1232 -179 1252 -179 1270 c 0
 -179 1353 -128 1400 -36 1400 c 0
 109 1400 198 1275 198 1102 c 0xc0
289 -28 m 0
 188 -28 69 67 69 189 c 0
 69 268 126 327 210 327 c 0
 316 327 434 233 434 110 c 0xa0
 434 30 376 -28 289 -28 c 0
EndSplineSet
Validated: 1
EndChar

StartChar: quotedbl
Encoding: 3 34 3
Width: 838
VWidth: 1900
GlyphClass: 2
Flags: W
HStem: 1044 351<-162.668 -8.48972 221.332 375.51>
VStem: -6 161<909.337 1169.5> 378 161<909.337 1169.5>
LayerCount: 2
Fore
SplineSet
284 1395 m 0
 420 1395 539 1259 539 1080 c 0
 539 945 462 820 312 715 c 1
 243 793 l 1
 330 863 378 943 378 1008 c 0
 378 1022 376 1048 364 1048 c 0
 357 1048 349 1044 342 1044 c 0
 240 1044 140 1132 140 1253 c 0
 140 1336 196 1395 284 1395 c 0
-100 1395 m 0
 36 1395 155 1259 155 1080 c 0
 155 945 78 820 -72 715 c 1
 -141 793 l 1
 -54 863 -6 943 -6 1008 c 0
 -6 1022 -8 1048 -20 1048 c 0
 -27 1048 -35 1044 -42 1044 c 0
 -144 1044 -244 1132 -244 1253 c 0
 -244 1336 -188 1395 -100 1395 c 0
EndSplineSet
Validated: 1
EndChar

StartChar: numbersign
Encoding: 4 35 4
Width: 1090
VWidth: 1900
GlyphClass: 2
Flags: W
HStem: 0 21G<194.23 367 528.278 701> 418 158<-19 146 331 479 665 830> 781 158<-53 114 301 448 633 796>
LayerCount: 2
Fore
SplineSet
159 418 m 1
 -19 418 l 1
 -55 576 l 1
 146 576 l 1
 130 781 l 1
 -53 781 l 1
 -90 939 l 1
 114 939 l 1
 81 1330 l 1
 252 1330 l 1
 285 939 l 1
 448 939 l 1
 413 1330 l 1
 584 1330 l 1
 619 939 l 1
 796 939 l 1
 833 781 l 1
 633 781 l 1
 652 576 l 1
 830 576 l 1
 866 418 l 1
 665 418 l 1
 701 0 l 1
 530 0 l 1
 494 418 l 1
 331 418 l 1
 367 0 l 1
 196 0 l 1
 159 418 l 1
301 781 m 1
 317 576 l 1
 479 576 l 1
 462 781 l 1
 301 781 l 1
EndSplineSet
Validated: 1
EndChar

StartChar: dollar
Encoding: 5 36 5
Width: 1090
VWidth: 1900
GlyphClass: 2
Flags: W
HStem: -23 107<284.681 478 611 701.273> 1226 102<106.501 189>
VStem: -136 203<960.865 1174.6> 472 311<947.878 1145.15> 746 217<135.777 373.202>
LayerCount: 2
Fore
SplineSet
652 887 m 0xf0
 561 887 472 958 472 1058 c 0xf0
 472 1080 477 1103 485 1125 c 1
 492 1138 492 1143 490 1153 c 0
 481 1191 422 1216 323 1226 c 1
 416 823 l 1
 469 808 l 1
 763 724 904 604 950 401 c 0
 959 364 963 328 963 295 c 0xe8
 963 118 840 4 611 -23 c 1
 666 -260 l 1
 556 -260 l 1
 502 -27 l 1
 458 -27 430 -21 394 -13 c 1
 164 31 16 139 -19 291 c 0
 -23 308 -25 325 -25 340 c 0
 -25 418 23 469 103 469 c 0
 199 469 293 399 293 294 c 0
 293 254 279 214 254 190 c 1
 246 180 244 177 246 169 c 0
 256 127 366 78 478 78 c 1
 374 530 l 1
 304 551 l 1
 46 625 -83 733 -125 912 c 0
 -132 945 -136 978 -136 1009 c 0
 -136 1128 -80 1226 23 1282 c 1
 66 1307 101 1317 189 1328 c 1
 145 1522 l 1
 255 1522 l 1
 299 1330 l 1
 554 1330 743 1208 778 1058 c 0
 781 1042 783 1027 783 1013 c 0
 783 938 734 887 652 887 c 0xf0
298 857 m 1
 213 1226 l 1
 116 1209 67 1165 67 1092 c 0
 67 1077 69 1060 73 1043 c 0
 94 954 158 896 272 864 c 1
 298 857 l 1
587 84 m 1
 683 94 746 142 746 237 c 0xe8
 746 252 744 267 741 283 c 0
 717 387 645 452 512 490 c 1
 491 496 l 1
 587 84 l 1
EndSplineSet
Validated: 1
EndChar

StartChar: percent
Encoding: 6 37 6
Width: 1582
VWidth: 1900
GlyphClass: 2
Flags: W
HStem: 0 21G<353 456.851> 27 89<1061.43 1258.13> 598 90<76.1251 274.724> 674 99<1138.84 1300.41> 1129 89<434.497 736.736>
VStem: -171 212<754.706 1052.34> 383 79<826.864 1144.45> 813 212<185.565 478.674> 1372 74<266.931 590.733>
LayerCount: 2
Fore
SplineSet
-171 925 m 0xef80
 -171 1127 -38 1345 168 1345 c 0
 246 1345 303 1319 367 1254 c 1
 424 1229 481 1218 551 1218 c 0
 692 1218 775 1262 833 1372 c 1
 920 1372 l 1
 450 0 l 1
 353 0 l 1
 748 1163 l 1
 674 1136 630 1129 562 1129 c 0
 514 1129 484 1133 432 1146 c 1
 452 1094 462 1056 462 992 c 0
 462 906 439 815 396 745 c 0
 335 644 255 598 147 598 c 0
 -24 598 -171 731 -171 925 c 0xef80
41 847 m 0
 41 755 91 688 168 688 c 0
 289 688 383 840 383 1007 c 0
 383 1074 369 1130 344 1178 c 1
 291 1195 257 1214 216 1250 c 1
 152 1225 134 1203 94 1081 c 1
 58 974 41 903 41 847 c 0
1136 27 m 0
 955 27 813 161 813 361 c 0
 813 445 835 533 876 606 c 1
 940 714 1036 773 1150 773 c 0xdf80
 1317 773 1446 635 1446 439 c 0
 1446 347 1422 249 1377 169 c 1
 1326 80 1237 27 1136 27 c 0
1025 271 m 0
 1025 183 1078 116 1151 116 c 0
 1274 116 1372 270 1372 437 c 0
 1372 468 1369 499 1362 530 c 0
 1343 610 1281 674 1220 674 c 0
 1167 674 1128 635 1093 542 c 0
 1046 421 1025 335 1025 271 c 0
EndSplineSet
Validated: 1
EndChar

StartChar: ampersand
Encoding: 7 38 7
Width: 1618
VWidth: 1900
GlyphClass: 2
Flags: W
HStem: -42 169<391 741.477> -30 207<1169.42 1367.91> 673 102<841 1006.98 1209.9 1335> 1302 98<397.514 591.614>
VStem: -14 291<396.038 580.873> 134 244<1062.68 1275.97> 680 206<941.069 1206.67> 1389 104<193.005 314.017>
LayerCount: 2
Fore
SplineSet
1035 542 m 0xb7
 1035 641 976 673 841 673 c 1
 817 775 l 1
 1335 775 l 1
 1359 673 l 1
 1224 673 1189 638 1148 494 c 1
 1118 401 1109 374 1072 302 c 1
 1157 216 1227 177 1295 177 c 0
 1359 177 1389 230 1389 331 c 0
 1389 333 1389 334 1389 336 c 1
 1489 315 l 1
 1492 294 1493 275 1493 258 c 0
 1493 216 1486 180 1472 141 c 0
 1428 21 1352 -30 1219 -30 c 0x77
 1101 -30 993 13 890 97 c 1
 789 11 672 -42 520 -42 c 0
 262 -42 44 132 -4 340 c 0
 -11 368 -14 395 -14 422 c 0xbb
 -14 530 39 624 140 694 c 0
 181 722 215 741 280 773 c 1
 198 887 163 956 142 1047 c 0
 137 1071 134 1096 134 1120 c 0
 134 1312 273 1400 471 1400 c 0
 678 1400 842 1291 879 1129 c 0
 884 1110 886 1090 886 1072 c 0
 886 1011 863 956 821 914 c 1
 771 866 730 840 625 792 c 1
 760 627 926 440 984 391 c 1
 1020 451 1035 499 1035 542 c 0xb7
347 678 m 1
 301 644 277 600 277 543 c 0
 277 527 280 509 284 490 c 0
 296 439 325 382 366 325 c 0
 461 194 566 127 680 127 c 0xbb
 728 127 758 137 797 169 c 1
 617 340 468 509 347 678 c 1
680 1062 m 0
 680 1195 581 1302 482 1302 c 0
 418 1302 378 1257 378 1195 c 0x37
 378 1184 380 1172 382 1159 c 0
 399 1087 444 1013 550 882 c 1
 566 890 569 891 578 895 c 1
 645 933 680 991 680 1062 c 0
EndSplineSet
Validated: 1
EndChar

StartChar: quotesingle
Encoding: 8 39 8
Width: 457
VWidth: 1900
GlyphClass: 2
Flags: W
HStem: 1049 351<-161.668 -7.48972>
VStem: -5 161<914.337 1174.5>
LayerCount: 2
Fore
SplineSet
-99 1400 m 0
 37 1400 156 1264 156 1085 c 0
 156 950 79 825 -71 720 c 1
 -140 798 l 1
 -53 868 -5 948 -5 1013 c 0
 -5 1027 -7 1053 -19 1053 c 0
 -26 1053 -34 1049 -41 1049 c 0
 -143 1049 -243 1137 -243 1258 c 0
 -243 1341 -187 1400 -99 1400 c 0
EndSplineSet
Validated: 1
EndChar

StartChar: parenleft
Encoding: 9 40 9
Width: 739
VWidth: 1900
GlyphClass: 2
Flags: W
VStem: -23 217<587.958 1049.58>
LayerCount: 2
Fore
SplineSet
341 1305 m 1
 230 1213 194 1117 194 933 c 0
 194 618 323 260 446 78 c 1
 511 -13 564 -64 672 -129 c 1
 694 -224 l 1
 538 -152 437 -82 322 32 c 0
 160 192 46 388 0 589 c 0
 -16 658 -23 725 -23 791 c 0
 -23 933 14 1066 85 1180 c 1
 148 1279 207 1334 319 1400 c 1
 341 1305 l 1
EndSplineSet
Validated: 1
EndChar

StartChar: parenright
Encoding: 10 41 10
Width: 739
VWidth: 1900
GlyphClass: 2
Flags: W
VStem: 272 216<126.425 587.945>
LayerCount: 2
Fore
SplineSet
125 -129 m 1
 235 -37 272 59 272 243 c 0
 272 557 144 917 21 1098 c 1
 -45 1189 -98 1240 -206 1305 c 1
 -228 1400 l 1
 -73 1328 29 1258 144 1144 c 0
 306 984 418 788 464 587 c 0
 480 518 488 451 488 385 c 0
 488 243 452 110 381 -4 c 1
 318 -103 258 -158 147 -224 c 1
 125 -129 l 1
EndSplineSet
Validated: 1
EndChar

StartChar: asterisk
Encoding: 11 42 11
Width: 950
VWidth: 1900
GlyphClass: 2
Flags: W
HStem: 478 195<15.1114 162.981 552.81 677.44> 789 194<-68.1743 65.1319 453.663 598.072>
VStem: -29 203<502.508 626.416> 139 191<968.955 1115.31> 285 188<345.041 489.061> 441 201<832.43 958.701>
LayerCount: 2
Fore
SplineSet
285 439 m 0xc8
 285 457 310 549 310 588 c 0
 310 607 307 628 301 652 c 2
 293 688 l 1
 267 670 l 2
 221 637 207 620 174 544 c 0
 157 500 126 478 84 478 c 0
 28 478 -29 525 -29 587 c 0
 -29 618 -14 644 14 658 c 1
 38 668 43 673 117 673 c 0
 165 673 197 688 232 711 c 1
 257 730 l 1
 224 747 l 2
 158 779 140 789 44 789 c 0
 -32 789 -105 842 -105 915 c 0
 -105 954 -74 983 -29 983 c 0xe8
 -5 983 26 972 52 953 c 1
 69 938 70 937 121 880 c 0
 158 840 190 814 240 789 c 2
 274 772 l 1
 262 821 l 2
 251 872 240 889 176 977 c 0
 154 1009 139 1034 139 1072 c 0
 139 1116 168 1148 209 1148 c 0
 266 1148 330 1092 330 1021 c 0
 330 1005 305 913 305 877 c 0
 305 858 306 825 315 808 c 1
 324 772 l 1
 348 789 l 2
 396 824 405 836 441 916 c 0
 460 962 489 983 531 983 c 0
 584 983 642 937 642 874 c 0xd4
 642 843 626 817 599 802 c 0
 579 792 573 793 499 785 c 1
 449 785 420 772 382 747 c 2
 355 730 l 1
 389 713 l 1
 457 681 475 671 569 671 c 0
 646 671 718 616 718 542 c 0
 718 505 692 478 652 478 c 0
 600 478 575 496 492 582 c 1
 457 620 419 645 375 670 c 2
 343 688 l 1
 351 652 l 2
 366 591 369 576 434 483 c 1
 460 450 473 428 473 389 c 0
 473 344 446 312 402 312 c 0
 349 312 285 369 285 439 c 0xc8
EndSplineSet
Validated: 1
EndChar

StartChar: plus
Encoding: 12 43 12
Width: 1151
VWidth: 1900
GlyphClass: 2
Flags: W
HStem: 616 219<-45 274 544 861>
LayerCount: 2
Fore
SplineSet
325 616 m 1
 -45 616 l 1
 -96 835 l 1
 274 835 l 1
 189 1206 l 1
 408 1206 l 1
 493 835 l 1
 861 835 l 1
 912 616 l 1
 544 616 l 1
 629 246 l 1
 410 246 l 1
 325 616 l 1
EndSplineSet
Validated: 1
EndChar

StartChar: comma
Encoding: 13 44 13
Width: 528
VWidth: 1900
GlyphClass: 2
Flags: W
HStem: -19 348<113.895 271.51>
VStem: 274 161<-158.838 102.5>
LayerCount: 2
Fore
SplineSet
180 329 m 0
 316 329 435 193 435 12 c 0
 435 -123 359 -248 208 -353 c 1
 140 -276 l 1
 226 -205 274 -126 274 -59 c 0
 274 -45 273 -19 260 -19 c 2
 253 -19 l 1
 250 -21 246 -19 238 -19 c 0
 137 -19 36 66 36 187 c 0
 36 269 92 329 180 329 c 0
EndSplineSet
Validated: 1
EndChar

StartChar: hyphen
Encoding: 14 45 14
Width: 632
VWidth: 1900
GlyphClass: 2
Flags: W
HStem: 425 247<-18 397>
VStem: -75 529
LayerCount: 2
Fore
SplineSet
-75 672 m 1
 397 672 l 1
 454 425 l 1
 -18 425 l 1
 -75 672 l 1
EndSplineSet
Validated: 1
EndChar

StartChar: period
Encoding: 15 46 15
Width: 528
VWidth: 1900
GlyphClass: 2
Flags: W
HStem: -28 357<143.53 314.774>
VStem: 47 366<67.6543 234.225>
LayerCount: 2
Fore
SplineSet
268 -28 m 0
 164 -28 47 68 47 191 c 0
 47 270 103 329 188 329 c 0
 294 329 413 235 413 110 c 0
 413 30 355 -28 268 -28 c 0
EndSplineSet
Validated: 1
EndChar

StartChar: slash
Encoding: 16 47 16
Width: 528
VWidth: 1900
GlyphClass: 2
Flags: W
VStem: -38 289
LayerCount: 2
Fore
SplineSet
110 1400 m 1
 251 1400 l 1
 103 -28 l 1
 -38 -28 l 1
 110 1400 l 1
EndSplineSet
Validated: 1
EndChar

StartChar: zero
Encoding: 17 48 17
Width: 1090
VWidth: 1900
GlyphClass: 2
Flags: W
HStem: -27 99<425.983 612.092> 1246 99<170.345 359.766>
VStem: -129 278<810.839 1125.86> 631 282<192.162 508.636>
LayerCount: 2
Fore
SplineSet
234 1345 m 0
 361 1345 488 1288 602 1180 c 1
 746 1039 835 874 887 650 c 0
 905 574 913 501 913 433 c 0
 913 160 775 -27 551 -27 c 0
 266 -27 -10 264 -101 659 c 0
 -120 739 -129 816 -129 886 c 0
 -129 1160 8 1345 234 1345 c 0
526 72 m 0
 592 72 631 115 631 194 c 0
 631 265 599 468 556 656 c 0
 503 884 441 1088 401 1151 c 1
 366 1212 312 1246 255 1246 c 0
 189 1246 149 1204 149 1124 c 0
 149 1053 182 848 226 659 c 0
 278 435 342 230 379 167 c 0
 417 106 467 72 526 72 c 0
EndSplineSet
Validated: 1
EndChar

StartChar: one
Encoding: 18 49 18
Width: 1090
VWidth: 1900
GlyphClass: 2
Flags: W
HStem: 0 103<175 367.965 674.698 909> 1108 106<-98 150.125>
LayerCount: 2
Fore
SplineSet
212 103 m 2
 320 103 368 105 368 150 c 0
 368 167 361 198 344 274 c 2
 188 948 l 2
 152 1106 151 1108 -18 1108 c 2
 -98 1108 l 1
 -122 1214 l 1
 102 1214 230 1256 327 1345 c 1
 394 1345 l 1
 642 274 l 2
 669 154 671 146 688 131 c 1
 708 110 751 103 848 103 c 2
 909 103 l 1
 933 0 l 1
 175 0 l 1
 151 103 l 1
 212 103 l 2
EndSplineSet
Validated: 1
EndChar

StartChar: two
Encoding: 19 50 19
Width: 1090
VWidth: 1900
GlyphClass: 2
Flags: W
HStem: 0 285<266 772.258> 743 332<16.4881 136.112> 1237 108<53.6504 328.401>
VStem: -153 169<952 1190.09> 459 325<727.029 1078.42> 789 103<443.199 505>
LayerCount: 2
Fore
SplineSet
94 743 m 0
 -38 743 -153 866 -153 1038 c 0
 -153 1216 -1 1345 225 1345 c 0
 493 1345 728 1191 775 988 c 0
 781 961 784 933 784 904 c 0
 784 839 768 772 737 712 c 1
 698 642 648 599 423 428 c 0
 361 379 319 342 266 285 c 1
 633 285 l 2
 753 285 757 287 773 300 c 0
 785 310 789 332 789 400 c 0
 789 403 789 407 789 410 c 2
 789 505 l 1
 892 505 l 1
 1011 -8 l 1
 952 -2 881 0 849 0 c 2
 135 0 l 2
 108 0 85 -2 38 -8 c 1
 17 82 l 1
 80 219 134 306 296 530 c 1
 411 694 459 798 459 908 c 0
 459 1103 350 1237 185 1237 c 0
 97 1237 16 1182 16 1125 c 0
 16 1099 28 1087 56 1075 c 0
 153 1033 200 986 219 904 c 0
 223 888 225 873 225 858 c 0
 225 786 177 743 94 743 c 0
EndSplineSet
Validated: 1
EndChar

StartChar: three
Encoding: 20 51 20
Width: 1090
VWidth: 1900
GlyphClass: 2
Flags: W
HStem: -27 99<292.08 558.123> 631 135<153.622 345.59> 642 103<231.21 423.849> 1246 99<67.5788 316.129>
VStem: -151 210<1016.5 1220.52> 447 302<807.133 1091.55> 605 328<116.683 457.514>
LayerCount: 2
Fore
SplineSet
68 859 m 0xbc
 -43 859 -151 951 -151 1082 c 0
 -151 1139 -129 1196 -92 1239 c 1
 -28 1309 76 1345 213 1345 c 0
 483 1345 694 1210 740 1009 c 0
 746 984 749 961 749 938 c 0xbc
 749 830 681 752 552 712 c 0
 540 708 525 705 504 699 c 1
 608 686 658 672 718 642 c 0
 817 591 895 487 922 367 c 0
 929 337 933 306 933 278 c 0
 933 191 902 114 847 68 c 0
 774 7 650 -27 511 -27 c 0
 237 -27 22 104 -22 296 c 0
 -26 313 -28 330 -28 345 c 0
 -28 425 22 477 107 477 c 0
 210 477 314 394 314 280 c 0
 314 250 301 226 269 186 c 1
 259 175 255 163 258 152 c 0
 267 112 359 72 439 72 c 0
 548 72 605 138 605 255 c 0
 605 290 600 329 590 372 c 0
 549 551 470 642 352 642 c 0xba
 332 642 297 631 228 631 c 0
 185 631 141 669 141 722 c 0
 141 750 160 766 197 766 c 0xda
 219 766 318 745 347 745 c 0
 412 745 447 799 447 892 c 0
 447 926 442 966 432 1011 c 0
 397 1159 307 1246 187 1246 c 0
 120 1246 59 1214 59 1180 c 0
 59 1166 64 1162 78 1151 c 0
 145 1100 175 1060 187 1009 c 0
 190 995 192 983 192 970 c 0
 192 903 145 859 68 859 c 0xbc
EndSplineSet
Validated: 1
EndChar

StartChar: four
Encoding: 21 52 21
Width: 1090
VWidth: 1900
GlyphClass: 2
Flags: W
HStem: 0 103<370 510.964 831.91 994> 344 127<66 440 768 928>
LayerCount: 2
Fore
SplineSet
367 103 m 2
 462 103 511 105 511 148 c 0
 511 164 504 195 486 274 c 2
 470 344 l 1
 -43 344 l 1
 -76 484 l 1
 417 1345 l 1
 548 1345 l 1
 581 1204 594 1098 603 1056 c 2
 738 471 l 1
 928 471 l 1
 958 344 l 1
 768 344 l 1
 784 274 l 2
 811 154 814 146 831 129 c 1
 850 112 896 103 974 103 c 2
 994 103 l 1
 1018 0 l 1
 370 0 l 1
 346 103 l 1
 367 103 l 2
440 471 m 1
 331 946 l 1
 66 471 l 1
 440 471 l 1
EndSplineSet
Validated: 1
EndChar

StartChar: five
Encoding: 22 53 22
Width: 1090
VWidth: 1900
GlyphClass: 2
Flags: W
HStem: -27 109<271.157 548.088> 745 129<142.37 430.881> 1018 295<60.7896 516.902>
VStem: -42 152<579.609 672.207> 598 329<156.636 514.098>
LayerCount: 2
Fore
SplineSet
635 1345 m 0
 656 1345 659 1313 659 1291 c 0
 659 1251 647 1202 628 1165 c 0
 578 1072 461 1018 303 1018 c 0
 229 1018 150 1028 56 1047 c 1
 85 802 l 1
 197 859 252 874 341 874 c 0
 615 874 856 692 913 445 c 0
 922 405 927 367 927 331 c 0
 927 115 766 -27 498 -27 c 0
 236 -27 37 97 -7 287 c 0
 -12 307 -14 326 -14 344 c 0
 -14 429 39 481 130 481 c 0
 227 481 306 418 328 325 c 0
 331 312 333 300 333 288 c 0
 333 245 309 217 257 188 c 1
 245 180 239 171 239 163 c 0
 239 122 358 82 426 82 c 0
 540 82 598 151 598 281 c 0
 598 325 591 377 578 435 c 0
 530 640 434 745 292 745 c 0
 214 745 144 721 98 673 c 1
 105 656 110 644 110 625 c 0
 110 591 85 566 48 566 c 0
 3 566 -42 604 -42 656 c 0
 -42 675 -33 691 -9 722 c 1
 -85 1051 -74 1193 -110 1345 c 1
 14 1320 111 1313 269 1313 c 0
 417 1313 547 1325 607 1340 c 1
 617 1344 627 1345 635 1345 c 0
EndSplineSet
Validated: 1
EndChar

StartChar: six
Encoding: 23 54 23
Width: 1090
VWidth: 1900
GlyphClass: 2
Flags: W
HStem: -27 90<438.752 621.098> 669 142<311.396 508.324> 1246 99<242.48 438.199>
VStem: -111 291<690.517 1078.41> 440 324<991.921 1212> 644 314<145.839 468.249>
LayerCount: 2
Fore
SplineSet
620 908 m 0xf8
 510 908 415 981 415 1096 c 0
 415 1121 420 1146 432 1167 c 0
 437 1177 440 1186 440 1195 c 0xf8
 440 1229 397 1246 347 1246 c 0
 249 1246 180 1161 180 1002 c 0
 180 952 187 894 201 830 c 0
 210 794 220 709 226 686 c 1
 285 777 352 811 474 811 c 0
 698 811 892 652 945 424 c 0
 954 387 958 352 958 318 c 0xf4
 958 114 806 -27 566 -27 c 0
 410 -27 270 32 150 146 c 0
 36 256 -35 391 -79 581 c 0
 -101 674 -111 758 -111 835 c 0
 -111 946 -89 1043 -43 1129 c 1
 34 1275 159 1345 339 1345 c 0
 557 1345 720 1242 758 1079 c 0
 762 1063 764 1047 764 1032 c 0
 764 955 711 908 620 908 c 0xf8
408 669 m 0
 336 669 287 622 285 540 c 1
 285 496 295 435 310 369 c 0
 355 173 439 63 542 63 c 0
 610 63 644 117 644 218 c 0xf4
 644 268 636 330 619 403 c 0
 579 574 507 669 408 669 c 0
EndSplineSet
Validated: 1
EndChar

StartChar: seven
Encoding: 24 55 24
Width: 1090
VWidth: 1900
GlyphClass: 2
Flags: W
HStem: 1043 276<23.2188 580.052>
VStem: -93 106<777 896.748> 309 315<218.272 638>
LayerCount: 2
Fore
SplineSet
536 -27 m 0
 405 -27 309 84 309 241 c 0
 309 302 322 374 348 467 c 0
 354 486 403 613 501 849 c 1
 585 1043 l 1
 425 1043 345 1036 337 1036 c 0
 280 1036 181 1043 118 1043 c 2
 84 1043 l 2
 25 1043 12 1023 12 896 c 0
 12 882 12 867 13 851 c 2
 13 766 l 1
 -93 777 l 1
 -161 1345 l 1
 32 1324 124 1319 299 1319 c 0
 495 1319 611 1326 726 1345 c 1
 745 1265 l 1
 661 912 624 722 624 554 c 0
 624 436 642 329 676 184 c 0
 682 157 685 133 685 111 c 0
 685 21 633 -27 536 -27 c 0
EndSplineSet
Validated: 1
EndChar

StartChar: eight
Encoding: 25 56 25
Width: 1090
VWidth: 1900
GlyphClass: 2
Flags: W
HStem: -27 99<363.334 676.65> 1246 99<132.912 401.268>
VStem: -136 226<980.027 1192.73> -29 244<226.166 511.487> 522 232<863.961 1121.2> 740 215<144.196 379.784>
LayerCount: 2
Fore
SplineSet
754 992 m 0xe8
 754 876 682 823 586 781 c 1
 787 707 901 587 943 408 c 0
 951 373 955 339 955 307 c 0
 955 104 795 -27 530 -27 c 0
 241 -27 27 105 -21 310 c 0
 -26 335 -29 358 -29 381 c 0xd4
 -29 458 5 519 69 557 c 0
 97 574 121 581 175 600 c 1
 7 680 -89 790 -124 940 c 0
 -132 974 -136 1006 -136 1036 c 0
 -136 1226 14 1345 267 1345 c 0
 512 1345 707 1226 747 1051 c 0
 752 1031 754 1011 754 992 c 0xe8
522 961 m 0xe8
 522 1133 400 1246 257 1246 c 0
 155 1246 90 1187 90 1104 c 0
 90 1091 91 1078 94 1064 c 0
 114 980 190 902 283 870 c 0
 322 857 387 840 469 821 c 1
 473 823 473 822 474 826 c 1
 478 828 l 1
 505 863 522 904 522 961 c 0xe8
289 549 m 1
 238 496 215 452 215 393 c 0
 215 370 219 344 225 315 c 0
 260 163 374 72 528 72 c 0
 657 72 740 142 740 245 c 0xd4
 740 261 738 277 734 294 c 0
 712 391 652 442 522 484 c 1
 471 499 375 526 289 549 c 1
EndSplineSet
Validated: 1
EndChar

StartChar: nine
Encoding: 26 57 26
Width: 1090
VWidth: 1900
GlyphClass: 2
Flags: W
HStem: -27 99<348.308 543.962> 500 142<277.958 470.335> 1246 99<165.861 347.651>
VStem: -171 310<856.287 1174.05> 30 318<104 312.706> 609 289<224.995 592.14>
LayerCount: 2
Fore
SplineSet
557 625 m 1xec
 497 536 427 500 309 500 c 0
 92 500 -106 665 -157 889 c 0
 -166 928 -171 965 -171 1000 c 0xf4
 -171 1205 -24 1345 211 1345 c 0
 371 1345 527 1275 653 1146 c 0
 758 1038 827 906 867 733 c 0
 887 644 898 559 898 481 c 0
 898 377 880 283 844 203 c 1
 780 53 641 -27 445 -27 c 0
 230 -27 70 69 36 217 c 0
 32 234 30 251 30 267 c 0
 30 350 85 407 172 407 c 0
 267 407 347 344 368 253 c 0
 371 237 373 225 373 214 c 0
 373 196 368 178 355 144 c 1
 350 135 348 127 348 119 c 0
 348 89 382 72 424 72 c 0
 539 72 609 148 609 303 c 0
 609 353 602 411 587 477 c 0
 576 523 576 541 557 625 c 1xec
250 1246 m 0
 177 1246 139 1195 139 1094 c 0
 139 971 197 787 241 724 c 0
 275 676 335 642 388 642 c 0
 459 642 498 700 498 797 c 0
 498 832 493 872 483 916 c 0
 462 1003 422 1106 384 1161 c 1
 348 1216 299 1246 250 1246 c 0
EndSplineSet
Validated: 1
EndChar

StartChar: colon
Encoding: 27 58 27
Width: 528
VWidth: 1900
GlyphClass: 2
Flags: W
HStem: -28 355<166.18 336.413> 559 355<30.3889 201.203>
VStem: -67 366<653.727 819.713> 69 365<66.7266 232.713>
LayerCount: 2
Fore
SplineSet
289 -28 m 0xd0
 188 -28 69 67 69 189 c 0
 69 268 126 327 210 327 c 0
 316 327 434 233 434 110 c 0
 434 30 376 -28 289 -28 c 0xd0
154 559 m 0
 52 559 -67 654 -67 776 c 0
 -67 855 -10 914 74 914 c 0
 181 914 299 820 299 697 c 0xe0
 299 617 241 559 154 559 c 0
EndSplineSet
Validated: 1
EndChar

StartChar: semicolon
Encoding: 28 59 28
Width: 528
VWidth: 1900
GlyphClass: 2
Flags: W
HStem: -19 350<132.755 287.098> 559 355<21.3889 191.842>
VStem: -76 365<654.021 819.469> 289 162<-156.956 105>
LayerCount: 2
Fore
SplineSet
196 331 m 0xd0
 331 331 451 195 451 15 c 0
 451 -121 374 -247 223 -352 c 1
 153 -276 l 1
 239 -202 289 -124 289 -58 c 0
 289 -46 288 -19 276 -19 c 2
 268 -19 l 1
 265 -21 261 -19 253 -19 c 0
 152 -19 51 67 51 188 c 0
 51 271 108 331 196 331 c 0xd0
145 559 m 0
 43 559 -76 654 -76 776 c 0
 -76 855 -19 914 65 914 c 0
 172 914 289 820 289 696 c 0xe0
 289 617 232 559 145 559 c 0
EndSplineSet
Validated: 1
EndChar

StartChar: less
Encoding: 29 60 29
Width: 1151
VWidth: 1900
GlyphClass: 2
Flags: W
LayerCount: 2
Fore
SplineSet
883 768 m 1
 326 481 l 1
 1016 190 l 1
 1071 -48 l 1
 0 393 l 1
 -37 564 l 1
 828 1005 l 1
 883 768 l 1
EndSplineSet
Validated: 1
EndChar

StartChar: equal
Encoding: 30 61 30
Width: 1151
VWidth: 1900
GlyphClass: 2
Flags: W
HStem: 240 218<42 948> 631 219<-49 858>
LayerCount: 2
Fore
SplineSet
42 240 m 1
 -9 458 l 1
 948 458 l 1
 999 240 l 1
 42 240 l 1
-49 631 m 1
 -99 850 l 1
 858 850 l 1
 908 631 l 1
 -49 631 l 1
EndSplineSet
Validated: 1
EndChar

StartChar: greater
Encoding: 31 62 31
Width: 1151
VWidth: 1900
GlyphClass: 2
Flags: W
LayerCount: 2
Fore
SplineSet
-86 768 m 1
 -141 1005 l 1
 928 564 l 1
 967 393 l 1
 102 -48 l 1
 47 190 l 1
 603 481 l 1
 -86 768 l 1
EndSplineSet
Validated: 1
EndChar

StartChar: question
Encoding: 32 63 32
Width: 950
VWidth: 1900
GlyphClass: 2
Flags: W
HStem: -28 357<314.169 485.774> 1292 108<3.97514 220.433>
VStem: -217 220<1091 1285.33> 217 367<67.5576 234.225> 246 123<435.195 639.225> 330 337<842.599 1154.88>
LayerCount: 2
Fore
SplineSet
10 927 m 0xe4
 -109 927 -217 1022 -217 1160 c 0
 -217 1304 -76 1400 148 1400 c 0
 414 1400 611 1269 659 1062 c 0
 665 1037 667 1012 667 988 c 0xe4
 667 925 648 867 609 826 c 0
 599 815 584 802 464 690 c 0
 396 627 369 591 369 531 c 0
 369 504 374 473 383 433 c 1
 280 433 l 1
 261 487 246 528 246 587 c 0xe8
 246 638 262 696 304 823 c 0
 321 876 330 933 330 987 c 0
 330 1167 233 1292 93 1292 c 0
 38 1292 3 1274 3 1250 c 0
 3 1230 8 1231 49 1203 c 1
 103 1169 143 1116 143 1042 c 0
 143 973 93 927 10 927 c 0xe4
439 -28 m 0
 335 -28 217 67 217 191 c 0
 217 270 274 329 359 329 c 0
 465 329 584 235 584 110 c 0xf0
 584 30 526 -28 439 -28 c 0
EndSplineSet
Validated: 1
EndChar

StartChar: at
Encoding: 33 64 33
Width: 1419
VWidth: 1900
GlyphClass: 2
Flags: W
HStem: -28 115<494.816 931.227> 276 98<419.464 579.75> 281 116<838.59 989.047> 990 99<459.017 621.159> 1284 116<231.331 663.124>
VStem: -133 122<615.067 1049.3> 162 212<473.456 870.523> 656 179<483.18 665.836> 1081 118<500.858 885.342>
LayerCount: 2
Fore
SplineSet
835 477 m 0xdf80
 835 428 849 397 894 397 c 0
 930 397 969 418 1003 454 c 0
 1055 508 1081 583 1081 671 c 0
 1081 710 1076 752 1066 796 c 0
 1001 1079 739 1284 441 1284 c 0
 164 1284 -11 1103 -11 843 c 0
 -11 796 -5 747 7 695 c 0
 86 351 396 87 719 87 c 0
 922 87 1074 184 1141 361 c 1
 1272 361 l 1
 1260 291 1237 247 1190 186 c 0
 1080 40 933 -28 741 -28 c 0
 357 -28 -21 289 -113 688 c 0
 -126 746 -133 802 -133 855 c 0
 -133 1169 86 1400 416 1400 c 0
 768 1400 1109 1138 1185 809 c 0
 1195 768 1199 728 1199 689 c 0
 1199 464 1051 281 847 281 c 0xbf80
 760 281 691 323 676 388 c 0
 675 394 674 405 673 418 c 1
 645 321 586 276 491 276 c 0
 349 276 212 399 175 559 c 0
 166 597 162 638 162 678 c 0
 162 765 181 853 219 927 c 0
 271 1030 369 1089 481 1089 c 0
 565 1089 615 1060 679 990 c 1
 687 1056 l 1
 885 1056 l 1
 836 509 l 2
 836 498 835 487 835 477 c 0xdf80
374 615 m 0
 374 499 403 374 501 374 c 0xdf80
 562 374 604 429 624 532 c 0
 642 625 656 768 656 850 c 0
 656 874 655 893 652 904 c 0
 642 950 591 990 542 990 c 0
 483 990 441 944 412 851 c 0
 387 777 374 693 374 615 c 0
EndSplineSet
Validated: 1
EndChar

StartChar: bracketleft
Encoding: 60 91 34
Width: 739
VWidth: 1900
GlyphClass: 2
Flags: W
HStem: -205 95<418 669> 1277 95<98 327>
LayerCount: 2
Fore
SplineSet
327 1372 m 1
 349 1277 l 1
 98 1277 l 1
 418 -110 l 1
 669 -110 l 1
 691 -205 l 1
 207 -205 l 1
 -157 1372 l 1
 327 1372 l 1
EndSplineSet
Validated: 1
EndChar

StartChar: backslash
Encoding: 61 92 35
Width: 1151
VWidth: 1900
GlyphClass: 2
Flags: W
HStem: 0 21G<897.686 1054>
LayerCount: 2
Fore
SplineSet
-87 1400 m 1
 1054 0 l 1
 914 0 l 1
 -228 1400 l 1
 -87 1400 l 1
EndSplineSet
Validated: 1
EndChar

StartChar: bracketright
Encoding: 62 93 36
Width: 739
VWidth: 1900
GlyphClass: 2
Flags: W
HStem: -205 95<106 335> 1277 95<-236 15>
LayerCount: 2
Fore
SplineSet
106 -205 m 1
 84 -110 l 1
 335 -110 l 1
 15 1277 l 1
 -236 1277 l 1
 -258 1372 l 1
 226 1372 l 1
 590 -205 l 1
 106 -205 l 1
EndSplineSet
Validated: 1
EndChar

StartChar: asciicircum
Encoding: 63 94 37
Width: 1151
VWidth: 1900
GlyphClass: 2
Flags: W
LayerCount: 2
Fore
SplineSet
914 604 m 1
 687 604 l 1
 329 1079 l 1
 186 604 l 1
 -40 604 l 1
 179 1372 l 1
 340 1372 l 1
 914 604 l 1
EndSplineSet
Validated: 1
EndChar

StartChar: dotnosp
Encoding: 96 775 38
Width: 0
VWidth: 2248
GlyphClass: 4
Flags: W
HStem: 1382 136<-393.513 -275.59>
VStem: -405 140<1393.98 1506.13>
AnchorPoint: "m2b1" 0 0 mark 0
LayerCount: 2
Fore
SplineSet
-319 1382 m 0
 -361 1382 -405 1419 -405 1465 c 0
 -405 1495 -383 1518 -350 1518 c 0
 -310 1518 -265 1482 -265 1435 c 0
 -265 1405 -286 1382 -319 1382 c 0
EndSplineSet
Validated: 1
EndChar

StartChar: dieresisnosp
Encoding: 97 776 39
Width: 0
VWidth: 2248
GlyphClass: 4
Flags: W
HStem: 1382 136<-500.08 -381.537 -287.288 -168.616>
VStem: -512 141<1394.27 1506.29> -299 141<1394.27 1506.22>
AnchorPoint: "m2b1" 0 0 mark 0
LayerCount: 2
Fore
SplineSet
-213 1382 m 0
 -255 1382 -299 1420 -299 1466 c 0
 -299 1495 -277 1518 -244 1518 c 0
 -203 1518 -158 1483 -158 1436 c 0
 -158 1406 -180 1382 -213 1382 c 0
-425 1382 m 0
 -466 1382 -512 1419 -512 1466 c 0
 -512 1496 -489 1518 -456 1518 c 0
 -415 1518 -371 1482 -371 1436 c 0
 -371 1406 -392 1382 -425 1382 c 0
EndSplineSet
Validated: 1
EndChar

StartChar: ringnosp
Encoding: 98 778 40
Width: 0
VWidth: 2248
GlyphClass: 4
Flags: W
HStem: 1285 62<-370.492 -265.18> 1478 60<-386.048 -282.393>
VStem: -455 65<1365.3 1474.68> -262 65<1349.48 1460.38>
AnchorPoint: "m2b1" 0 0 mark 0
LayerCount: 2
Fore
SplineSet
-297 1285 m 0
 -372 1285 -455 1354 -455 1440 c 0
 -455 1494 -418 1538 -355 1538 c 0
 -284 1538 -197 1475 -197 1384 c 0
 -197 1328 -237 1285 -297 1285 c 0
-262 1395 m 0
 -262 1446 -305 1478 -341 1478 c 0
 -371 1478 -390 1459 -390 1430 c 0
 -390 1384 -351 1347 -311 1347 c 0
 -283 1347 -262 1365 -262 1395 c 0
EndSplineSet
Validated: 1
EndChar

StartChar: atnah
Encoding: 100 1425 42
Width: 0
VWidth: 2248
GlyphClass: 4
Flags: W
HStem: -494 372<3.65921 17.668>
VStem: -67 91<-491.318 -372.612> 170 92<-491.024 -334.711>
AnchorPoint: "m2m4" 165 0 mark 0
AnchorPoint: "m2m4" -245 0 basemark 0
AnchorPoint: "m2m3" -245 0 basemark 0
AnchorPoint: "m2m1" 165 0 mark 0
AnchorPoint: "m2bmback" 0 0 mark 0
AnchorPoint: "m2b5a" 0 0 mark 0
LayerCount: 2
Fore
SplineSet
28 -122 m 0
 48 -122 67 -133 82 -142 c 1
 101 -227 l 1
 139 -234 226 -263 262 -421 c 0
 269 -449 269 -454 274 -478 c 1
 264 -484 249 -494 232 -494 c 0
 218 -494 203 -487 184 -480 c 1
 170 -421 l 2
 151 -340 116 -313 72 -313 c 0
 39 -313 18 -329 18 -372 c 0
 18 -385 20 -402 24 -421 c 2
 38 -479 l 1
 27 -486 14 -494 -4 -494 c 0
 -21 -494 -37 -487 -54 -477 c 1
 -67 -421 l 2
 -74 -391 -77 -365 -77 -343 c 0
 -77 -253 -24 -233 3 -227 c 1
 -16 -142 l 1
 -4 -129 8 -122 28 -122 c 0
EndSplineSet
Validated: 1
Position2: "Single Positioning lookup 23 subtable" dx=200 dy=0 dh=0 dv=0
MultipleSubs2: "AddHairspaceAfterMark subtable" atnah hairspace
MultipleSubs2: "AddThinspaceAfterMark subtable" atnah thinspace
EndChar

StartChar: segolta
Encoding: 101 1426 43
Width: 0
VWidth: 2248
GlyphClass: 4
Flags: W
HStem: 1293 129<-460.864 -345.957 -280.864 -165.957> 1427 130<-401.842 -287.136>
VStem: -470 133<1302.95 1412.07> -411 133<1437.24 1546.8> -290 133<1302.95 1412.07>
AnchorPoint: "m2m8" 155 0 mark 0
AnchorPoint: "m2m7" 155 0 mark 0
AnchorPoint: "m2mrafe" 350 0 mark 0
AnchorPoint: "m2b8b" 0 0 mark 0
LayerCount: 2
Fore
SplineSet
-389 1293 m 0xe0
 -427 1293 -470 1326 -470 1372 c 0
 -470 1402 -448 1422 -418 1422 c 0
 -382 1422 -337 1391 -337 1343 c 0
 -337 1314 -358 1293 -389 1293 c 0xe0
-209 1293 m 0
 -247 1293 -290 1326 -290 1372 c 0
 -290 1402 -268 1422 -238 1422 c 0
 -202 1422 -157 1391 -157 1343 c 0xc8
 -157 1314 -178 1293 -209 1293 c 0
-329 1427 m 0
 -368 1427 -411 1461 -411 1507 c 0
 -411 1536 -390 1557 -359 1557 c 0
 -321 1557 -278 1523 -278 1477 c 0xd0
 -278 1448 -299 1427 -329 1427 c 0
EndSplineSet
Validated: 1
MultipleSubs2: "AddHairspaceAfterMark subtable" segolta hairspace
MultipleSubs2: "AddThinspaceAfterMark subtable" segolta thinspace
Substitution2: "UpperMarksChanges subtable" segolta_on_right
EndChar

StartChar: shalshelet
Encoding: 102 1427 44
Width: 0
VWidth: 2248
GlyphClass: 4
Flags: W
HStem: 1290 70<-310 -193.953>
VStem: -468 274
AnchorPoint: "m2m7" 110 0 mark 0
AnchorPoint: "m2m7" -195 0 basemark 0
AnchorPoint: "m2m7n" 120 0 mark 0
AnchorPoint: "m2mrafe" 0 0 mark 0
AnchorPoint: "m2b9" 0 0 mark 0
AnchorPoint: "m2b8a" 0 0 mark 0
LayerCount: 2
Fore
SplineSet
-392 1392 m 1
 -396 1392 l 2
 -415 1392 -441 1392 -441 1408 c 0
 -441 1415 -435 1426 -419 1442 c 2
 -364 1498 l 1
 -426 1498 l 1
 -431 1498 l 2
 -446 1498 -468 1499 -468 1513 c 0
 -468 1519 -464 1527 -453 1539 c 2
 -339 1659 l 1
 -330 1664 -325 1667 -314 1667 c 1
 -307 1665 l 1
 -303 1660 -284 1646 -304 1627 c 2
 -360 1574 l 1
 -302 1574 l 1
 -296 1574 l 2
 -278 1574 -258 1573 -258 1559 c 0
 -258 1553 -262 1544 -272 1531 c 1
 -326 1474 l 1
 -334 1467 l 1
 -293 1467 l 2
 -263 1467 -235 1466 -235 1451 c 0
 -235 1443 -242 1432 -259 1415 c 2
 -301 1372 l 1
 -310 1360 l 1
 -242 1360 l 1
 -233 1360 l 2
 -208 1360 -202 1358 -194 1326 c 0
 -192 1317 -191 1310 -191 1305 c 0
 -191 1293 -197 1290 -217 1290 c 2
 -370 1290 l 2
 -381 1290 -429 1295 -415 1313 c 0
 -410 1318 -400 1331 -390 1342 c 2
 -340 1392 l 1
 -392 1392 l 1
EndSplineSet
Validated: 1
MultipleSubs2: "AddHairspaceAfterMark subtable" shalshelet hairspace
MultipleSubs2: "AddThinspaceAfterMark subtable" shalshelet thinspace
EndChar

StartChar: zaqefqatan
Encoding: 103 1428 45
Width: 0
VWidth: 2496
GlyphClass: 4
Flags: W
HStem: 1290 157<-379.498 -252.502> 1481 157<-423.498 -296.502>
VStem: -441 162<1498.25 1620.62> -397 162<1307.25 1429.62>
AnchorPoint: "m2m7" 80 0 mark 0
AnchorPoint: "m2m7" -180 0 basemark 0
AnchorPoint: "m2m7n" 80 0 mark 0
AnchorPoint: "m2mrafe" 0 0 mark 0
AnchorPoint: "m2b9" 0 0 mark 0
AnchorPoint: "m2b8a" 0 0 mark 0
LayerCount: 2
Fore
SplineSet
-298 1290 m 0xd0
 -345 1290 -397 1331 -397 1386 c 0
 -397 1421 -372 1447 -334 1447 c 0
 -287 1447 -235 1406 -235 1350 c 0
 -235 1316 -260 1290 -298 1290 c 0xd0
-342 1481 m 0
 -389 1481 -441 1522 -441 1577 c 0
 -441 1612 -416 1638 -378 1638 c 0
 -331 1638 -279 1597 -279 1541 c 0xe0
 -279 1507 -304 1481 -342 1481 c 0
EndSplineSet
Validated: 1
MultipleSubs2: "AddHairspaceAfterMark subtable" zaqefqatan hairspace
MultipleSubs2: "AddThinspaceAfterMark subtable" zaqefqatan thinspace
EndChar

StartChar: zaqefgadol
Encoding: 104 1429 46
Width: 0
VWidth: 2495
GlyphClass: 4
Flags: W
HStem: 1290 158<-280.498 -155.771> 1481 158<-324.498 -199.771>
VStem: -342 160<1499.27 1622.23> -298 160<1308.27 1431.23>
AnchorPoint: "m2m7" 175 0 mark 0
AnchorPoint: "m2m7" -285 0 basemark 0
AnchorPoint: "m2m7n" 175 0 mark 0
AnchorPoint: "m2mrafe" 0 0 mark 0
AnchorPoint: "m2b9" 0 0 mark 0
AnchorPoint: "m2b8a" 0 0 mark 0
LayerCount: 2
Fore
SplineSet
-199 1290 m 0xd0
 -246 1290 -298 1332 -298 1387 c 0
 -298 1421 -273 1448 -235 1448 c 0
 -186 1448 -138 1404 -138 1350 c 0
 -138 1316 -160 1290 -199 1290 c 0xd0
-243 1481 m 0
 -290 1481 -342 1523 -342 1578 c 0
 -342 1612 -317 1639 -279 1639 c 0
 -230 1639 -182 1595 -182 1541 c 0xe0
 -182 1507 -204 1481 -243 1481 c 0
-543 1591 m 2
 -546 1604 -548 1614 -548 1620 c 0
 -548 1638 -535 1639 -496 1639 c 2
 -484 1639 l 2
 -443 1639 -435 1633 -425 1591 c 2
 -366 1333 l 2
 -364 1324 -362 1317 -362 1311 c 0
 -362 1293 -375 1290 -416 1290 c 0
 -469 1290 -475 1294 -485 1340 c 2
 -543 1591 l 2
EndSplineSet
Validated: 1
MultipleSubs2: "AddHairspaceAfterMark subtable" zaqefgadol hairspace
MultipleSubs2: "AddThinspaceAfterMark subtable" zaqefgadol thinspace
EndChar

StartChar: tipeha
Encoding: 105 1430 47
Width: 0
VWidth: 2245
GlyphClass: 4
Flags: W
HStem: -498 95<124.275 249.393>
VStem: -26 95<-340.709 -125.291>
AnchorPoint: "m2m4" 145 0 mark 0
AnchorPoint: "m2m4" -150 0 basemark 0
AnchorPoint: "m2m3" -150 0 basemark 0
AnchorPoint: "m2m1" 145 0 mark 0
AnchorPoint: "m2bmback" -52 0 mark 0
AnchorPoint: "m2b5a" -10 0 mark 0
LayerCount: 2
Fore
SplineSet
69 -139 m 1
 75 -198 80 -233 87 -264 c 0
 114 -380 135 -378 234 -403 c 1
 240 -413 251 -440 251 -465 c 0
 251 -483 244 -492 240 -498 c 1
 179 -486 36 -457 -3 -291 c 0
 -13 -245 -25 -168 -26 -138 c 1
 -9 -130 2 -125 18 -125 c 0
 37 -125 55 -133 69 -139 c 1
EndSplineSet
Validated: 1
Position2: "Single Positioning lookup 23 subtable" dx=200 dy=0 dh=0 dv=0
MultipleSubs2: "AddHairspaceAfterMark subtable" tipeha hairspace
MultipleSubs2: "AddThinspaceAfterMark subtable" tipeha thinspace
EndChar

StartChar: revia
Encoding: 106 1431 48
Width: 0
VWidth: 2509
GlyphClass: 4
Flags: W
HStem: 1290 232<-358.443 -293.662>
VStem: -429 211<1357.17 1448.41>
AnchorPoint: "m2m7" 105 0 mark 0
AnchorPoint: "m2m7" -185 0 basemark 0
AnchorPoint: "m2m7n" 205 0 mark 0
AnchorPoint: "m2b9" 0 0 mark 0
AnchorPoint: "m2b8a" 0 0 mark 0
LayerCount: 2
Fore
SplineSet
-298 1290 m 0
 -318 1290 -340 1319 -369 1344 c 0
 -407 1376 -429 1386 -429 1404 c 0
 -429 1416 -418 1431 -399 1462 c 0
 -374 1502 -365 1522 -351 1522 c 0
 -337 1522 -320 1502 -277 1462 c 0
 -238 1427 -218 1413 -218 1396 c 0
 -218 1385 -231 1372 -251 1344 c 0
 -270 1319 -278 1290 -298 1290 c 0
EndSplineSet
Validated: 1
MultipleSubs2: "AddHairspaceAfterMark subtable" revia hairspace
MultipleSubs2: "AddThinspaceAfterMark subtable" revia thinspace
EndChar

StartChar: zarqa
Encoding: 107 1432 49
Width: 0
VWidth: 2506
GlyphClass: 4
Flags: W
HStem: 1290 91<-285.747 -206.223> 1458 88<-449.617 -370.809>
VStem: -535 86<1369.13 1455.38>
AnchorPoint: "m2m7" 205 0 mark 0
AnchorPoint: "m2m7" -285 0 basemark 0
AnchorPoint: "m2m7n" 205 0 mark 0
AnchorPoint: "m2mrafe" 0 0 mark 0
AnchorPoint: "m2b9" 0 0 mark 0
AnchorPoint: "m2b8a" 0 0 mark 0
LayerCount: 2
Fore
SplineSet
-239 1553 m 1
 -204 1537 -122 1486 -122 1389 c 0
 -122 1328 -160 1290 -209 1290 c 0
 -280 1290 -324 1351 -355 1393 c 2
 -373 1418 l 2
 -402 1457 -418 1458 -425 1458 c 0
 -442 1458 -456 1442 -449 1413 c 0
 -443 1384 -414 1371 -397 1365 c 1
 -395 1357 -393 1347 -393 1339 c 0
 -393 1307 -413 1288 -417 1284 c 1
 -455 1303 -535 1353 -535 1450 c 0
 -535 1508 -498 1546 -445 1546 c 0
 -387 1546 -343 1503 -301 1446 c 2
 -281 1419 l 2
 -259 1390 -247 1381 -233 1381 c 0
 -215 1381 -200 1397 -206 1424 c 0
 -212 1453 -247 1467 -259 1472 c 1
 -261 1481 -263 1492 -263 1500 c 0
 -263 1530 -246 1546 -239 1553 c 1
EndSplineSet
Validated: 1
MultipleSubs2: "AddHairspaceAfterMark subtable" zarqa hairspace
MultipleSubs2: "AddThinspaceAfterMark subtable" zarqa thinspace
EndChar

StartChar: pashta
Encoding: 108 1433 50
Width: 0
VWidth: 2493
GlyphClass: 4
Flags: W
HStem: 1568 95<-529.393 -408.104>
VStem: -349 95<1290.29 1505.71>
AnchorPoint: "m2m8" 60 0 mark 0
AnchorPoint: "m2m7" 60 0 mark 0
AnchorPoint: "m2mrafe" 300 0 mark 0
AnchorPoint: "m2b8b" 0 0 mark 0
LayerCount: 2
Fore
SplineSet
-349 1304 m 1
 -355 1363 -360 1397 -367 1428 c 0
 -393 1544 -415 1543 -514 1568 c 1
 -520 1578 -531 1605 -531 1630 c 0
 -531 1648 -524 1657 -520 1663 c 1
 -459 1651 -315 1622 -277 1456 c 0
 -267 1410 -255 1333 -254 1303 c 1
 -271 1295 -282 1290 -298 1290 c 0
 -317 1290 -335 1298 -349 1304 c 1
EndSplineSet
Validated: 1
MultipleSubs2: "AddHairspaceAfterMark subtable" pashta hairspace
MultipleSubs2: "AddThinspaceAfterMark subtable" pashta thinspace
Substitution2: "UpperMarksChanges subtable" qadma
EndChar

StartChar: yetiv
Encoding: 109 1434 51
Width: 0
VWidth: 2248
GlyphClass: 4
Flags: W
HStem: -462 332
VStem: -67 298
AnchorPoint: "m2m6d" -130 0 mark 0
AnchorPoint: "m2m6c" -130 0 mark 0
AnchorPoint: "m2m6b" -130 0 mark 0
AnchorPoint: "m2m6a" -130 0 mark 0
AnchorPoint: "m2m5" -130 0 mark 0
AnchorPoint: "m2m6e" -130 0 mark 0
AnchorPoint: "m2b5b" -80 0 mark 0
LayerCount: 2
Fore
SplineSet
119 -130 m 0
 137 -130 179 -183 182 -197 c 0
 185 -205 176 -212 161 -221 c 1
 92 -281 l 1
 79 -294 75 -298 73 -301 c 1
 190 -370 l 2
 217 -385 231 -401 231 -423 c 0
 231 -445 211 -462 194 -462 c 0
 192 -462 190 -462 189 -462 c 0
 182 -462 177 -456 161 -448 c 1
 -17 -338 l 1
 -47 -325 -67 -316 -67 -298 c 0
 -67 -294 -66 -290 -64 -285 c 0
 -59 -276 -48 -266 -37 -257 c 2
 92 -148 l 1
 106 -134 113 -130 119 -130 c 0
EndSplineSet
Validated: 1
MultipleSubs2: "AddHairspaceAfterMark subtable" yetiv hairspace
MultipleSubs2: "AddThinspaceAfterMark subtable" yetiv thinspace
EndChar

StartChar: tevir
Encoding: 110 1435 52
Width: 0
VWidth: 2248
GlyphClass: 4
Flags: W
HStem: -495 95<19.1469 100.051> -323 109<-64.8708 40.4541>
VStem: -69 114<-318.297 -219.266> 105 98<-384.12 -161.719>
AnchorPoint: "m2m4" 130 0 mark 0
AnchorPoint: "m2m4" -210 0 basemark 0
AnchorPoint: "m2m3" -210 0 basemark 0
AnchorPoint: "m2m1" 130 0 mark 0
AnchorPoint: "m2bmback" 13 0 mark 0
AnchorPoint: "m2b5a" 0 0 mark 0
LayerCount: 2
Fore
SplineSet
0 -323 m 0
 -33 -323 -69 -297 -69 -256 c 0
 -69 -232 -51 -214 -25 -214 c 0
 11 -214 45 -244 45 -281 c 0
 45 -305 26 -323 0 -323 c 0
49 -495 m 1
 34 -481 23 -469 17 -442 c 0
 11 -417 11 -412 10 -400 c 1
 76 -381 105 -376 105 -330 c 0
 105 -313 101 -291 94 -261 c 0
 87 -229 76 -195 54 -136 c 1
 67 -130 80 -122 100 -122 c 0
 118 -122 139 -131 148 -135 c 1
 156 -156 203 -277 203 -344 c 0
 203 -461 98 -484 49 -495 c 1
EndSplineSet
Validated: 1
Position2: "Single Positioning lookup 23 subtable" dx=200 dy=0 dh=0 dv=0
MultipleSubs2: "AddHairspaceAfterMark subtable" tevir hairspace
MultipleSubs2: "AddThinspaceAfterMark subtable" tevir thinspace
EndChar

StartChar: gereshaccent
Encoding: 111 1436 53
Width: 0
VWidth: 2493
GlyphClass: 4
Flags: W
HStem: 1568 95<-298.615 -217.218>
VStem: -402 98<1327.42 1551.63>
AnchorPoint: "m2m7" 155 0 mark 0
AnchorPoint: "m2m7" -140 0 basemark 0
AnchorPoint: "m2m7n" 155 0 mark 0
AnchorPoint: "m2mrafe" 0 0 mark 0
AnchorPoint: "m2b9" 0 0 mark 0
AnchorPoint: "m2b8a" 0 0 mark 0
LayerCount: 2
Fore
SplineSet
-248 1663 m 1
 -239 1655 -222 1642 -215 1610 c 0
 -211 1593 -209 1585 -209 1578 c 0
 -209 1575 -210 1572 -210 1568 c 1
 -275 1550 -304 1545 -304 1498 c 0
 -304 1481 -300 1459 -293 1428 c 0
 -285 1396 -275 1363 -253 1304 c 1
 -265 1298 -279 1290 -298 1290 c 0
 -317 1290 -333 1297 -348 1303 c 1
 -361 1333 -385 1410 -395 1456 c 0
 -400 1477 -402 1495 -402 1512 c 0
 -402 1629 -296 1652 -248 1663 c 1
EndSplineSet
Validated: 1
MultipleSubs2: "AddHairspaceAfterMark subtable" gereshaccent hairspace
MultipleSubs2: "AddThinspaceAfterMark subtable" gereshaccent thinspace
EndChar

StartChar: gereshmuqdam
Encoding: 112 1437 54
Width: 0
VWidth: 2493
GlyphClass: 4
Flags: W
HStem: 1568 95<-298.615 -217.218>
VStem: -402 98<1327.42 1551.63>
AnchorPoint: "m2m7n" -140 0 basemark 0
AnchorPoint: "m2mrafe" -300 0 mark 0
AnchorPoint: "m2b8c" -10 0 mark 0
LayerCount: 2
Fore
SplineSet
-248 1663 m 1
 -239 1655 -222 1642 -215 1610 c 0
 -211 1593 -209 1585 -209 1578 c 0
 -209 1575 -210 1572 -210 1568 c 1
 -275 1550 -304 1545 -304 1498 c 0
 -304 1481 -300 1459 -293 1428 c 0
 -285 1396 -275 1363 -253 1304 c 1
 -265 1298 -279 1290 -298 1290 c 0
 -317 1290 -333 1297 -348 1303 c 1
 -361 1333 -385 1410 -395 1456 c 0
 -400 1477 -402 1495 -402 1512 c 0
 -402 1629 -296 1652 -248 1663 c 1
EndSplineSet
Validated: 1
MultipleSubs2: "AddHairspaceAfterMark subtable" gereshmuqdam hairspace
MultipleSubs2: "AddThinspaceAfterMark subtable" gereshmuqdam thinspace
EndChar

StartChar: gershayimaccent
Encoding: 113 1438 55
Width: 0
VWidth: 2493
GlyphClass: 4
Flags: W
HStem: 1569 95<-442.313 -362.869 -250.487 -170.066>
VStem: -548 98<1327.7 1553.07> -353 97<1329.69 1553.8>
AnchorPoint: "m2m7" 205 0 mark 0
AnchorPoint: "m2m7" -285 0 basemark 0
AnchorPoint: "m2m7n" 205 0 mark 0
AnchorPoint: "m2mrafe" 0 0 mark 0
AnchorPoint: "m2b9" 0 0 mark 0
AnchorPoint: "m2b8a" 0 0 mark 0
LayerCount: 2
Fore
SplineSet
-199 1664 m 1
 -181 1647 -162 1615 -162 1579 c 0
 -162 1576 -162 1573 -162 1569 c 1
 -227 1551 -256 1546 -256 1499 c 0
 -256 1482 -252 1459 -245 1429 c 0
 -238 1397 -227 1364 -204 1305 c 1
 -217 1299 -230 1291 -250 1291 c 0
 -268 1291 -284 1298 -298 1304 c 1
 -317 1349 -353 1445 -353 1514 c 0
 -353 1630 -249 1654 -199 1664 c 1
-450 1497 m 0
 -450 1438 -413 1338 -400 1305 c 1
 -417 1297 -428 1291 -445 1291 c 0
 -464 1291 -481 1298 -495 1304 c 1
 -503 1325 -548 1447 -548 1514 c 0
 -548 1630 -444 1654 -394 1664 c 1
 -375 1647 -353 1614 -353 1575 c 0
 -353 1573 -353 1571 -353 1569 c 1
 -419 1550 -450 1545 -450 1497 c 0
EndSplineSet
Validated: 1
MultipleSubs2: "AddHairspaceAfterMark subtable" gershayimaccent hairspace
MultipleSubs2: "AddThinspaceAfterMark subtable" gershayimaccent thinspace
EndChar

StartChar: qarneypara
Encoding: 114 1439 56
Width: 0
VWidth: 2499
GlyphClass: 4
Flags: W
HStem: 1313 75<-511.35 -423.527 -224.822 -144.918> 1488 75<-520.854 -427.004 -242.932 -149.669>
VStem: -590 69<1397.01 1487.5> -422 74<1388.4 1483.48> -318 75<1392.96 1487.2> -144 69<1388.24 1482.4>
AnchorPoint: "m2m7" 255 0 mark 0
AnchorPoint: "m2m7" -335 0 basemark 0
AnchorPoint: "m2m7n" 255 0 mark 0
AnchorPoint: "m2mrafe" 0 0 mark 0
AnchorPoint: "m2b9" 0 0 mark 0
AnchorPoint: "m2b8a" 0 0 mark 0
LayerCount: 2
Fore
SplineSet
-144 1427 m 0
 -144 1462 -168 1488 -204 1488 c 0
 -230 1488 -243 1475 -243 1454 c 0
 -243 1424 -223 1388 -182 1388 c 0
 -157 1388 -144 1405 -144 1427 c 0
-422 1425 m 0
 -422 1463 -447 1488 -483 1488 c 0
 -508 1488 -521 1475 -521 1454 c 0
 -521 1418 -491 1388 -458 1388 c 0
 -430 1388 -422 1406 -422 1425 c 0
-306 1320 m 0
 -296 1320 -269 1357 -267 1357 c 1
 -267 1358 -318 1405 -318 1469 c 0
 -318 1524 -278 1563 -223 1563 c 0
 -152 1563 -75 1499 -75 1411 c 0
 -75 1355 -112 1313 -167 1313 c 2
 -179 1313 l 2
 -211 1313 -238 1236 -285 1236 c 0
 -333 1236 -391 1313 -429 1313 c 2
 -439 1313 l 2
 -509 1313 -590 1382 -590 1470 c 0
 -590 1524 -553 1563 -499 1563 c 0
 -431 1563 -348 1500 -348 1414 c 0
 -348 1384 -360 1363 -359 1360 c 1
 -359 1360 -318 1320 -306 1320 c 0
EndSplineSet
Validated: 1
MultipleSubs2: "AddHairspaceAfterMark subtable" qarneypara hairspace
MultipleSubs2: "AddThinspaceAfterMark subtable" qarneypara thinspace
EndChar

StartChar: telishagedola
Encoding: 115 1440 57
Width: 0
VWidth: 2502
GlyphClass: 4
Flags: W
HStem: 1362 75<-373.362 -265.791> 1577 73<-418.124 -279.072>
VStem: -496 75<1454.85 1572.66> -464 84<1284.9 1307> -262 75<1440.82 1559.99>
AnchorPoint: "m2m7n" -230 0 basemark 0
AnchorPoint: "m2mrafe" -300 0 mark 0
AnchorPoint: "m2b9" 0 0 mark 0
AnchorPoint: "m2b8c" -135 0 mark 0
LayerCount: 2
Fore
SplineSet
-306 1362 m 0xe8
 -320 1362 -341 1368 -350 1368 c 0
 -362 1368 -362 1363 -365 1349 c 2
 -380 1307 l 2
 -384 1298 -388 1280 -404 1280 c 0
 -410 1280 -415 1281 -433 1290 c 0
 -455 1301 -464 1308 -464 1321 c 0xd8
 -464 1328 -461 1337 -455 1349 c 2
 -438 1385 l 2
 -432 1397 -432 1406 -432 1408 c 0
 -437 1428 -475 1434 -492 1509 c 0
 -495 1520 -496 1531 -496 1542 c 0
 -496 1603 -453 1650 -373 1650 c 0
 -275 1650 -207 1583 -190 1509 c 0
 -188 1500 -187 1490 -187 1481 c 0
 -187 1418 -235 1362 -306 1362 c 0xe8
-421 1527 m 0xe8
 -421 1474 -380 1437 -324 1437 c 0
 -282 1437 -262 1459 -262 1490 c 0
 -262 1542 -300 1577 -356 1577 c 0
 -400 1577 -421 1556 -421 1527 c 0xe8
EndSplineSet
Validated: 1
MultipleSubs2: "AddHairspaceAfterMark subtable" telishagedola hairspace
MultipleSubs2: "AddThinspaceAfterMark subtable" telishagedola thinspace
Substitution2: "UpperMarksChanges subtable" telishag_on_left
EndChar

StartChar: pazer
Encoding: 116 1441 58
Width: 0
VWidth: 2501
GlyphClass: 4
Flags: W
HStem: 1224 21G<-383.5 -363.5> 1315 91<-346.75 -295.021>
VStem: -291 95<1406.86 1572.11>
AnchorPoint: "m2m7" 145 0 mark 0
AnchorPoint: "m2m7" -230 0 basemark 0
AnchorPoint: "m2m7n" 145 0 mark 0
AnchorPoint: "m2mrafe" 0 0 mark 0
AnchorPoint: "m2b9" 0 0 mark 0
AnchorPoint: "m2b8a" 0 0 mark 0
LayerCount: 2
Fore
SplineSet
-291 1462 m 0
 -291 1507 -306 1541 -324 1573 c 1
 -314 1579 -300 1586 -282 1586 c 0
 -264 1586 -248 1580 -234 1575 c 1
 -213 1526 -196 1500 -196 1439 c 0
 -196 1368 -229 1315 -314 1315 c 2
 -347 1315 l 1
 -328 1236 l 1
 -340 1231 -354 1224 -373 1224 c 0
 -394 1224 -412 1230 -428 1236 c 1
 -507 1575 l 1
 -494 1580 -479 1586 -459 1586 c 0
 -441 1586 -427 1582 -407 1575 c 1
 -368 1408 l 1
 -362 1407 -354 1406 -346 1406 c 0
 -312 1406 -291 1421 -291 1462 c 0
EndSplineSet
Validated: 1
MultipleSubs2: "AddHairspaceAfterMark subtable" pazer hairspace
MultipleSubs2: "AddThinspaceAfterMark subtable" pazer thinspace
EndChar

StartChar: atnahhafukh
Encoding: 117 1442 59
Width: 0
VWidth: 2248
GlyphClass: 4
Flags: W
HStem: -494 372<125.079 138.341>
VStem: -132 90<-265.58 -122.125> 105 91<-243.388 -122.246> 125 95<-300.899 -139.282>
AnchorPoint: "m2m4" 165 0 mark 0
AnchorPoint: "m2m4" -245 0 basemark 0
AnchorPoint: "m2m3" -245 0 basemark 0
AnchorPoint: "m2m1" 165 0 mark 0
AnchorPoint: "m2bmback" 0 0 mark 0
AnchorPoint: "m2b5a" 0 0 mark 0
LayerCount: 2
Fore
SplineSet
114 -494 m 0xd0
 94 -494 76 -483 60 -474 c 1
 41 -389 l 1
 3 -382 -83 -353 -119 -195 c 2
 -132 -138 l 1
 -122 -132 -107 -122 -90 -122 c 0
 -76 -122 -61 -129 -42 -136 c 1
 -28 -195 l 2
 -9 -276 26 -303 70 -303 c 0
 103 -303 125 -287 125 -244 c 0xd0
 125 -231 122 -214 118 -195 c 2
 105 -137 l 1
 115 -130 128 -122 146 -122 c 0
 163 -122 179 -129 196 -139 c 1xe0
 204 -174 220 -233 220 -272 c 0
 220 -363 167 -383 139 -389 c 1
 158 -474 l 1
 146 -487 134 -494 114 -494 c 0xd0
EndSplineSet
Validated: 1
Position2: "Single Positioning lookup 23 subtable" dx=200 dy=0 dh=0 dv=0
MultipleSubs2: "AddHairspaceAfterMark subtable" atnahhafukh hairspace
MultipleSubs2: "AddThinspaceAfterMark subtable" atnahhafukh thinspace
EndChar

StartChar: munah
Encoding: 118 1443 60
Width: 0
VWidth: 2248
GlyphClass: 4
Flags: W
HStem: -448 84<-16.6165 104>
VStem: -18 223<-447.891 -364.656>
AnchorPoint: "m2m4" 110 0 mark 0
AnchorPoint: "m2m4" -190 0 basemark 0
AnchorPoint: "m2m3" -190 0 basemark 0
AnchorPoint: "m2m1" 110 0 mark 0
AnchorPoint: "m2bmback" 0 0 mark 0
AnchorPoint: "m2b5a" 0 0 mark 0
LayerCount: 2
Fore
SplineSet
201 -397 m 2
 204 -410 205 -419 205 -427 c 0
 205 -447 192 -448 152 -448 c 2
 35 -448 l 2
 -2 -448 -8 -444 -18 -402 c 1
 -18 -402 -18 -395 -18 -387 c 0
 -18 -377 -14 -364 6 -364 c 2
 89 -364 l 2
 114 -364 114 -365 109 -341 c 2
 69 -168 l 2
 66 -157 65 -150 65 -144 c 0
 65 -130 74 -128 100 -128 c 0
 131 -128 139 -129 148 -167 c 2
 201 -397 l 2
EndSplineSet
Validated: 1
Position2: "Single Positioning lookup 23 subtable" dx=200 dy=0 dh=0 dv=0
MultipleSubs2: "AddHairspaceAfterMark subtable" munah hairspace
MultipleSubs2: "AddThinspaceAfterMark subtable" munah thinspace
EndChar

StartChar: mahapakh
Encoding: 119 1444 61
Width: 0
VWidth: 2248
GlyphClass: 4
Flags: W
HStem: -462 332
VStem: -67 298
AnchorPoint: "m2m4" 135 0 mark 0
AnchorPoint: "m2m4" -210 0 basemark 0
AnchorPoint: "m2m3" -210 0 basemark 0
AnchorPoint: "m2m1" 140 0 mark 0
AnchorPoint: "m2bmback" 0 0 mark 0
AnchorPoint: "m2b5a" 0 0 mark 0
LayerCount: 2
Fore
SplineSet
119 -130 m 0
 137 -130 179 -183 182 -197 c 0
 185 -205 176 -212 161 -221 c 1
 92 -281 l 1
 79 -294 75 -298 73 -301 c 1
 190 -370 l 2
 217 -385 231 -401 231 -423 c 0
 231 -445 211 -462 194 -462 c 0
 192 -462 190 -462 189 -462 c 0
 182 -462 177 -456 161 -448 c 1
 -17 -338 l 1
 -47 -325 -67 -316 -67 -298 c 0
 -67 -294 -66 -290 -64 -285 c 0
 -59 -276 -48 -266 -37 -257 c 2
 92 -148 l 1
 106 -134 113 -130 119 -130 c 0
EndSplineSet
Validated: 1
Position2: "Single Positioning lookup 23 subtable" dx=200 dy=0 dh=0 dv=0
MultipleSubs2: "AddHairspaceAfterMark subtable" mahapakh hairspace
MultipleSubs2: "AddThinspaceAfterMark subtable" mahapakh thinspace
EndChar

StartChar: merkha
Encoding: 120 1445 62
Width: 0
VWidth: 2248
GlyphClass: 4
Flags: W
HStem: -495 95<-41.7824 40.051>
VStem: 45 98<-383.629 -159.471>
AnchorPoint: "m2m4" 70 0 mark 0
AnchorPoint: "m2m4" -225 0 basemark 0
AnchorPoint: "m2m3" -225 0 basemark 0
AnchorPoint: "m2m1" 70 0 mark 0
AnchorPoint: "m2bmback" 38 0 mark 0
AnchorPoint: "m2b5a" 10 0 mark 0
LayerCount: 2
Fore
SplineSet
-11 -495 m 1
 -20 -487 -37 -474 -44 -442 c 0
 -48 -425 -49 -417 -49 -410 c 0
 -49 -407 -49 -404 -49 -400 c 1
 16 -382 45 -378 45 -331 c 0
 45 -314 41 -292 34 -261 c 0
 27 -229 16 -195 -6 -136 c 1
 6 -130 20 -122 39 -122 c 0
 58 -122 75 -129 89 -135 c 1
 102 -165 126 -242 136 -288 c 0
 141 -309 143 -327 143 -344 c 0
 143 -461 38 -484 -11 -495 c 1
EndSplineSet
Validated: 1
Position2: "Single Positioning lookup 23 subtable" dx=200 dy=0 dh=0 dv=0
MultipleSubs2: "AddHairspaceAfterMark subtable" merkha hairspace
MultipleSubs2: "AddThinspaceAfterMark subtable" merkha thinspace
EndChar

StartChar: merkhakefula
Encoding: 121 1446 63
Width: 0
VWidth: 2248
GlyphClass: 4
Flags: W
HStem: -495 95<-99.9337 -19.3203 93.4857 175.68>
VStem: -14 98<-384.797 -162.12> 181 98<-384.561 -161.328>
AnchorPoint: "m2m4" 205 0 mark 0
AnchorPoint: "m2m4" -285 0 basemark 0
AnchorPoint: "m2m3" -285 0 basemark 0
AnchorPoint: "m2m1" 205 0 mark 0
AnchorPoint: "m2bmback" 0 0 mark 0
AnchorPoint: "m2b5a" 0 0 mark 0
LayerCount: 2
Fore
SplineSet
-71 -495 m 1
 -89 -478 -108 -446 -108 -410 c 0
 -108 -407 -108 -404 -108 -400 c 1
 -43 -382 -14 -377 -14 -330 c 0
 -14 -314 -18 -291 -25 -261 c 0
 -32 -229 -43 -195 -66 -136 c 1
 -53 -130 -40 -122 -20 -122 c 0
 -2 -122 14 -129 28 -135 c 1
 47 -180 84 -276 84 -345 c 0
 84 -461 -21 -485 -71 -495 c 1
181 -329 m 0
 181 -270 143 -169 130 -136 c 1
 148 -128 158 -122 175 -122 c 0
 194 -122 211 -129 225 -135 c 1
 233 -156 279 -278 279 -345 c 0
 279 -461 174 -485 124 -495 c 1
 105 -478 84 -445 84 -406 c 0
 84 -404 84 -402 84 -400 c 1
 151 -381 181 -377 181 -329 c 0
EndSplineSet
Validated: 1
Position2: "Single Positioning lookup 23 subtable" dx=200 dy=0 dh=0 dv=0
MultipleSubs2: "AddHairspaceAfterMark subtable" merkhakefula hairspace
MultipleSubs2: "AddThinspaceAfterMark subtable" merkhakefula thinspace
EndChar

StartChar: darga
Encoding: 122 1447 64
Width: 0
VWidth: 2248
GlyphClass: 4
Flags: W
HStem: -477 81<10.8221 96.1786>
VStem: -42 80<-256.996 -212.424> 98 82<-384.585 -339.44>
AnchorPoint: "m2m4" 95 0 mark 0
AnchorPoint: "m2m4" -175 0 basemark 0
AnchorPoint: "m2m3" -175 0 basemark 0
AnchorPoint: "m2m1" 95 0 mark 0
AnchorPoint: "m2bmback" 0 0 mark 0
AnchorPoint: "m2b5a" 0 0 mark 0
LayerCount: 2
Fore
SplineSet
25 -477 m 1
 17 -459 6 -429 6 -402 c 0
 6 -400 6 -398 6 -396 c 1
 67 -381 98 -383 98 -359 c 0
 98 -356 98 -353 98 -349 c 1
 74 -340 -19 -332 -37 -257 c 0
 -40 -243 -42 -230 -42 -219 c 0
 -42 -147 20 -135 98 -124 c 1
 109 -142 121 -166 121 -195 c 0
 121 -199 120 -203 120 -207 c 1
 113 -207 l 2
 84 -207 38 -218 38 -247 c 0
 38 -248 38 -248 38 -249 c 1
 63 -257 157 -266 175 -343 c 0
 178 -356 180 -368 180 -378 c 0
 180 -450 112 -465 25 -477 c 1
EndSplineSet
Validated: 1
Position2: "Single Positioning lookup 23 subtable" dx=200 dy=0 dh=0 dv=0
MultipleSubs2: "AddHairspaceAfterMark subtable" darga hairspace
MultipleSubs2: "AddThinspaceAfterMark subtable" darga thinspace
EndChar

StartChar: qadma
Encoding: 123 1448 65
Width: 0
VWidth: 2495
GlyphClass: 4
Flags: W
HStem: 1567 96<-528.752 -404.642>
VStem: -348 95<1290.15 1504.77>
AnchorPoint: "m2m7" 55 0 mark 0
AnchorPoint: "m2m7" -237 0 basemark 0
AnchorPoint: "m2m7n" 60 0 mark 0
AnchorPoint: "m2mrafe" 0 0 mark 0
AnchorPoint: "m2b9" 0 0 mark 0
AnchorPoint: "m2b8a" 0 0 mark 0
LayerCount: 2
Fore
SplineSet
-348 1301 m 1
 -355 1361 -359 1396 -367 1428 c 0
 -393 1541 -412 1541 -514 1567 c 1
 -515 1570 -531 1606 -531 1630 c 0
 -531 1648 -524 1657 -520 1663 c 1
 -461 1652 -315 1621 -277 1455 c 0
 -266 1409 -254 1331 -253 1301 c 1
 -265 1296 -279 1290 -298 1290 c 0
 -317 1290 -333 1296 -348 1301 c 1
EndSplineSet
Validated: 1
MultipleSubs2: "AddHairspaceAfterMark subtable" qadma hairspace
MultipleSubs2: "AddThinspaceAfterMark subtable" qadma thinspace
EndChar

StartChar: telishaqetana
Encoding: 124 1449 66
Width: 0
VWidth: 2502
GlyphClass: 4
Flags: W
HStem: 1378 69<-408.343 -272.874> 1587 73<-426.146 -286.328>
VStem: -505 76<1464.29 1583.05> -270 76<1450.53 1569.65>
AnchorPoint: "m2m8" 150 0 mark 0
AnchorPoint: "m2m7" 150 0 mark 0
AnchorPoint: "m2mrafe" 350 0 mark 0
AnchorPoint: "m2b8b" 50 0 mark 0
LayerCount: 2
Fore
SplineSet
-139 1321 m 0
 -139 1309 -170 1290 -182 1290 c 0
 -198 1290 -210 1308 -218 1317 c 2
 -252 1359 l 2
 -262 1373 -264 1378 -276 1378 c 0
 -285 1378 -303 1372 -317 1372 c 0
 -407 1372 -505 1457 -505 1553 c 0
 -505 1612 -466 1660 -383 1660 c 0
 -281 1660 -194 1584 -194 1482 c 0
 -194 1444 -213 1435 -213 1422 c 0
 -213 1415 -209 1409 -196 1395 c 2
 -164 1359 l 2
 -147 1341 -139 1330 -139 1321 c 0
-270 1499 m 0
 -270 1552 -309 1587 -366 1587 c 0
 -409 1587 -429 1567 -429 1537 c 0
 -429 1484 -387 1447 -334 1447 c 0
 -290 1447 -270 1468 -270 1499 c 0
EndSplineSet
Validated: 1
MultipleSubs2: "AddHairspaceAfterMark subtable" telishaqetana hairspace
MultipleSubs2: "AddThinspaceAfterMark subtable" telishaqetana thinspace
Substitution2: "UpperMarksChanges subtable" telishaq_on_right
EndChar

StartChar: yerahbenyomo
Encoding: 125 1450 67
Width: 0
VWidth: 2248
GlyphClass: 4
Flags: W
HStem: -494 372<125.079 138.341>
VStem: -132 90<-265.58 -122.125> 105 91<-243.388 -122.246> 125 95<-300.899 -139.282>
AnchorPoint: "m2m4" 165 0 mark 0
AnchorPoint: "m2m4" -245 0 basemark 0
AnchorPoint: "m2m3" -245 0 basemark 0
AnchorPoint: "m2m1" 165 0 mark 0
AnchorPoint: "m2bmback" 0 0 mark 0
AnchorPoint: "m2b5a" 0 0 mark 0
LayerCount: 2
Fore
SplineSet
114 -494 m 0xd0
 94 -494 76 -483 60 -474 c 1
 41 -389 l 1
 3 -382 -83 -353 -119 -195 c 2
 -132 -138 l 1
 -122 -132 -107 -122 -90 -122 c 0
 -76 -122 -61 -129 -42 -136 c 1
 -28 -195 l 2
 -9 -276 26 -303 70 -303 c 0
 103 -303 125 -287 125 -244 c 0xd0
 125 -231 122 -214 118 -195 c 2
 105 -137 l 1
 115 -130 128 -122 146 -122 c 0
 163 -122 179 -129 196 -139 c 1xe0
 204 -174 220 -233 220 -272 c 0
 220 -363 167 -383 139 -389 c 1
 158 -474 l 1
 146 -487 134 -494 114 -494 c 0xd0
EndSplineSet
Validated: 1
Position2: "Single Positioning lookup 23 subtable" dx=200 dy=0 dh=0 dv=0
MultipleSubs2: "AddHairspaceAfterMark subtable" yerahbenyomo hairspace
MultipleSubs2: "AddThinspaceAfterMark subtable" yerahbenyomo thinspace
EndChar

StartChar: ole
Encoding: 126 1451 68
Width: 0
VWidth: 2497
GlyphClass: 4
Flags: W
HStem: 1289 333
VStem: -475 297
AnchorPoint: "m2m7" 135 0 mark 0
AnchorPoint: "m2m7" -215 0 basemark 0
AnchorPoint: "m2m7n" 140 0 mark 0
AnchorPoint: "m2mrafe" 0 0 mark 0
AnchorPoint: "m2b9" 0 0 mark 0
AnchorPoint: "m2b8a" 0 0 mark 0
LayerCount: 2
Fore
SplineSet
-216 1384 m 1
 -187 1370 -178 1364 -178 1349 c 0
 -178 1328 -190 1289 -211 1289 c 0
 -213 1289 -214 1289 -216 1289 c 0
 -223 1289 -228 1295 -245 1306 c 2
 -423 1416 l 2
 -449 1432 -475 1449 -475 1465 c 0
 -475 1468 -474 1471 -471 1473 c 0
 -466 1481 -454 1490 -443 1498 c 2
 -314 1605 l 1
 -302 1616 -293 1622 -285 1622 c 0
 -272 1622 -228 1582 -225 1568 c 0
 -223 1558 -230 1549 -244 1532 c 1
 -314 1474 l 2
 -327 1464 -332 1461 -333 1459 c 1
 -330 1455 -322 1450 -306 1439 c 1
 -216 1384 l 1
EndSplineSet
Validated: 1
MultipleSubs2: "AddHairspaceAfterMark subtable" ole hairspace
MultipleSubs2: "AddThinspaceAfterMark subtable" ole thinspace
EndChar

StartChar: iluy
Encoding: 127 1452 69
Width: 0
VWidth: 2499
GlyphClass: 4
Flags: W
HStem: 1290 88<-416.629 -298>
VStem: -423 227<1290.34 1374.34>
AnchorPoint: "m2m7" 110 0 mark 0
AnchorPoint: "m2m7" -190 0 basemark 0
AnchorPoint: "m2m7n" 110 0 mark 0
AnchorPoint: "m2mrafe" 0 0 mark 0
AnchorPoint: "m2b9" 0 0 mark 0
AnchorPoint: "m2b8a" 0 0 mark 0
LayerCount: 2
Fore
SplineSet
-201 1342 m 2
 -198 1329 -196 1320 -196 1313 c 0
 -196 1292 -210 1290 -249 1290 c 2
 -366 1290 l 2
 -404 1290 -408 1296 -418 1338 c 0
 -420 1349 -423 1357 -423 1363 c 0
 -423 1375 -415 1378 -386 1378 c 2
 -313 1378 l 2
 -287 1378 -287 1374 -293 1400 c 2
 -333 1572 l 2
 -335 1582 -337 1590 -337 1596 c 0
 -337 1610 -328 1612 -302 1612 c 0
 -271 1612 -263 1612 -254 1572 c 2
 -201 1342 l 2
EndSplineSet
Validated: 1
MultipleSubs2: "AddHairspaceAfterMark subtable" iluy hairspace
MultipleSubs2: "AddThinspaceAfterMark subtable" iluy thinspace
EndChar

StartChar: dehi
Encoding: 128 1453 70
Width: 0
VWidth: 2248
GlyphClass: 4
Flags: W
HStem: -495 95<123.584 249.254>
VStem: -27 95<-337.709 -122.291>
AnchorPoint: "m2m6d" -70 0 mark 0
AnchorPoint: "m2m6c" -70 0 mark 0
AnchorPoint: "m2m6b" -70 0 mark 0
AnchorPoint: "m2m6a" -70 0 mark 0
AnchorPoint: "m2m5" -70 0 mark 0
AnchorPoint: "m2m6e" -70 0 mark 0
AnchorPoint: "m2b5b" -10 0 mark 0
LayerCount: 2
Fore
SplineSet
68 -136 m 1
 74 -195 79 -230 86 -261 c 0
 113 -377 135 -375 233 -400 c 1
 239 -410 251 -437 251 -462 c 0
 251 -480 243 -489 239 -495 c 1
 179 -483 35 -454 -4 -288 c 0
 -14 -242 -26 -165 -27 -135 c 1
 -10 -127 1 -122 17 -122 c 0
 36 -122 54 -130 68 -136 c 1
EndSplineSet
Validated: 1
MultipleSubs2: "AddHairspaceAfterMark subtable" dehi hairspace
MultipleSubs2: "AddThinspaceAfterMark subtable" dehi thinspace
EndChar

StartChar: tsinor
Encoding: 129 1454 71
Width: 0
VWidth: 2506
GlyphClass: 4
Flags: W
HStem: 1290 91<-284.914 -206.222> 1460 86<-449.573 -372.804>
VStem: -535 86<1369.58 1458.15>
AnchorPoint: "m2m8" 205 0 mark 0
AnchorPoint: "m2m7" 195 0 mark 0
AnchorPoint: "m2m7n" 205 0 mark 0
AnchorPoint: "m2mrafe" 320 0 mark 0
AnchorPoint: "m2b8b" 0 0 mark 0
LayerCount: 2
Fore
SplineSet
-236 1553 m 1
 -201 1537 -121 1486 -121 1389 c 0
 -121 1327 -160 1290 -209 1290 c 0
 -279 1290 -324 1351 -353 1392 c 1
 -373 1418 l 2
 -402 1456 -417 1460 -425 1460 c 0
 -441 1460 -456 1443 -449 1414 c 0
 -443 1385 -411 1370 -397 1364 c 1
 -395 1356 -393 1345 -393 1336 c 0
 -393 1307 -409 1291 -417 1284 c 1
 -455 1303 -535 1354 -535 1450 c 0
 -535 1509 -497 1546 -445 1546 c 0
 -387 1546 -342 1503 -300 1446 c 2
 -279 1418 l 2
 -259 1390 -247 1381 -233 1381 c 0
 -215 1381 -200 1397 -206 1424 c 0
 -212 1449 -237 1462 -258 1472 c 1
 -260 1480 -262 1491 -262 1499 c 0
 -262 1530 -243 1546 -236 1553 c 1
EndSplineSet
Validated: 1
MultipleSubs2: "AddHairspaceAfterMark subtable" tsinor hairspace
MultipleSubs2: "AddThinspaceAfterMark subtable" tsinor thinspace
Substitution2: "UpperMarksChanges subtable" zarqa
EndChar

StartChar: masoracircle
Encoding: 130 1455 72
Width: 0
VWidth: 2498
GlyphClass: 4
Flags: W
HStem: 1290 75<-392.184 -254.625> 1537 76<-417.13 -275.847>
VStem: -500 78<1392.49 1531.49> -249 79<1371.35 1510.59>
AnchorPoint: "m2m7" 160 0 mark 0
AnchorPoint: "m2m7" -240 0 basemark 0
AnchorPoint: "m2m7n" 160 0 mark 0
AnchorPoint: "m2mrafe" 0 0 mark 0
AnchorPoint: "m2b9" 0 0 mark 0
AnchorPoint: "m2b8a" 0 0 mark 0
LayerCount: 2
Fore
SplineSet
-372 1613 m 0
 -282 1613 -170 1532 -170 1417 c 0
 -170 1345 -221 1290 -298 1290 c 0
 -393 1290 -500 1377 -500 1488 c 0
 -500 1556 -452 1613 -372 1613 c 0
-249 1430 m 0
 -249 1497 -307 1537 -355 1537 c 0
 -394 1537 -422 1515 -422 1475 c 0
 -422 1410 -366 1365 -315 1365 c 0
 -278 1365 -249 1390 -249 1430 c 0
EndSplineSet
Validated: 1
MultipleSubs2: "AddHairspaceAfterMark subtable" masoracircle hairspace
MultipleSubs2: "AddThinspaceAfterMark subtable" masoracircle thinspace
EndChar

StartChar: sheva
Encoding: 131 1456 73
Width: 0
VWidth: 2248
GlyphClass: 4
Flags: W
HStem: -472 156<26.5836 154.498> -281 156<-17.4164 110.498>
VStem: -34 162<-263.459 -143.407> 10 162<-454.459 -334.407>
AnchorPoint: "m2m5" 360 0 basemark 0
AnchorPoint: "m2m6e" 160 0 basemark 0
AnchorPoint: "m2m3" 80 0 mark 0
AnchorPoint: "m2m2" 80 0 mark 0
AnchorPoint: "m2m1" -160 0 basemark 0
AnchorPoint: "m2bv2left" 35 0 mark 0
AnchorPoint: "m2bvback" 0 0 mark 0
AnchorPoint: "m2bv2r" -150 0 mark 0
AnchorPoint: "VbWM" -70 0 mark 0
AnchorPoint: "VbNM" -70 0 mark 0
AnchorPoint: "m2b4a" 0 0 mark 0
LayerCount: 2
Fore
SplineSet
109 -472 m 0xd0
 64 -472 10 -434 10 -377 c 0
 10 -342 35 -316 73 -316 c 0
 120 -316 172 -358 172 -413 c 0
 172 -449 145 -472 109 -472 c 0xd0
65 -281 m 0
 20 -281 -34 -243 -34 -186 c 0
 -34 -151 -9 -125 29 -125 c 0
 76 -125 128 -167 128 -222 c 0xe0
 128 -258 101 -281 65 -281 c 0
EndSplineSet
Validated: 1
Position2: "positionMoveVowelToLeft subtable" dx=-30 dy=0 dh=0 dv=0
MultipleSubs2: "AddHairspaceAfterMark subtable" sheva hairspace
MultipleSubs2: "AddThinspaceAfterMark subtable" sheva thinspace
Substitution2: "ShevaAndQamatsForFinalkaf subtable" sheva_for_finalkaf
EndChar

StartChar: hatafsegol
Encoding: 132 1457 74
Width: 0
VWidth: 2248
GlyphClass: 4
Flags: W
HStem: -472 156<241.119 368.041> -456 161<-82.3828 48.7005> -290 163<-226.963 -99.6699 -13.8594 113.997 204.101 325.388>
VStem: -246 166<-270.587 -147.012> -102 168<-435.689 -313.671> -32 166<-271.925 -147.954> 181 160<-264.18 -142.375> 225 160<-455.18 -333.375>
AnchorPoint: "m2m5" 570 0 basemark 0
AnchorPoint: "m2m6e" 370 0 basemark 0
AnchorPoint: "m2m2" 290 0 mark 0
AnchorPoint: "m2m1" -370 0 basemark 0
AnchorPoint: "m2bv2r" -320 0 mark 0
AnchorPoint: "HbWM" -282 0 mark 0
AnchorPoint: "HbNM" -282 0 mark 0
AnchorPoint: "m2b4c" 0 0 mark 0
LayerCount: 2
Fore
SplineSet
-145 -290 m 0x30
 -194 -290 -246 -247 -246 -189 c 0
 -246 -154 -222 -127 -183 -127 c 0
 -134 -127 -80 -171 -80 -228 c 0
 -80 -264 -106 -290 -145 -290 c 0x30
67 -290 m 0
 17 -290 -32 -247 -32 -188 c 0
 -32 -154 -10 -127 29 -127 c 0
 77 -127 134 -169 134 -227 c 0x24
 134 -264 106 -290 67 -290 c 0
0 -456 m 0x68
 -48 -456 -102 -412 -102 -356 c 0
 -102 -319 -75 -295 -36 -295 c 0
 12 -295 66 -334 66 -392 c 0
 66 -429 39 -456 0 -456 c 0x68
323 -472 m 0xa1
 276 -472 225 -432 225 -377 c 0
 225 -342 250 -316 287 -316 c 0
 335 -316 385 -357 385 -414 c 0
 385 -447 362 -472 323 -472 c 0xa1
279 -281 m 0
 232 -281 181 -241 181 -186 c 0
 181 -151 206 -125 243 -125 c 0
 291 -125 341 -166 341 -223 c 0x22
 341 -256 318 -281 279 -281 c 0
EndSplineSet
Validated: 1
Position2: "positionMoveVowelToLeft subtable" dx=-70 dy=0 dh=0 dv=0
MultipleSubs2: "AddHairspaceAfterMark subtable" hatafsegol hairspace
MultipleSubs2: "AddThinspaceAfterMark subtable" hatafsegol thinspace
EndChar

StartChar: hatafpatah
Encoding: 133 1458 75
Width: 0
VWidth: 2248
GlyphClass: 4
Flags: W
HStem: -472 156<241.078 368.498> -281 156<197.078 324.498> -258 114<-242.487 127.019>
VStem: 181 161<-264.026 -143.27> 225 161<-455.026 -334.27>
AnchorPoint: "m2m5" 570 0 basemark 0
AnchorPoint: "m2m6e" 370 0 basemark 0
AnchorPoint: "m2m2" 290 0 mark 0
AnchorPoint: "m2m1" -370 0 basemark 0
AnchorPoint: "m2bv2r" -320 0 mark 0
AnchorPoint: "HbWM" -282 0 mark 0
AnchorPoint: "HbNM" -282 0 mark 0
AnchorPoint: "m2b4c" 0 0 mark 0
LayerCount: 2
Fore
SplineSet
70 -144 m 2xa0
 115 -144 118 -147 129 -196 c 0
 133 -210 135 -222 135 -231 c 0
 135 -250 125 -258 94 -258 c 2
 -186 -258 l 2
 -228 -258 -236 -244 -244 -207 c 0
 -249 -185 -253 -171 -253 -162 c 0
 -253 -145 -242 -144 -212 -144 c 2
 70 -144 l 2xa0
323 -472 m 0
 277 -472 225 -434 225 -376 c 0
 225 -342 247 -316 287 -316 c 0
 334 -316 386 -358 386 -413 c 0x88
 386 -449 359 -472 323 -472 c 0
279 -281 m 0xd0
 233 -281 181 -243 181 -185 c 0
 181 -151 203 -125 243 -125 c 0
 290 -125 342 -167 342 -222 c 0
 342 -258 315 -281 279 -281 c 0xd0
EndSplineSet
Validated: 1
Position2: "positionMoveVowelToLeft subtable" dx=-70 dy=0 dh=0 dv=0
MultipleSubs2: "AddHairspaceAfterMark subtable" hatafpatah hairspace
MultipleSubs2: "AddThinspaceAfterMark subtable" hatafpatah thinspace
EndChar

StartChar: hatafqamats
Encoding: 134 1459 76
Width: 0
VWidth: 2248
GlyphClass: 4
Flags: W
HStem: -470 155<241.711 368.289> -279 155<196.31 323.793> -255 113<-242.84 -77 -6 127.337>
VStem: -77 146<-445.778 -281> 180 161<-261.392 -140.94> 225 160<-452.901 -332.438>
AnchorPoint: "m2m5" 570 0 basemark 0
AnchorPoint: "m2m6e" 370 0 basemark 0
AnchorPoint: "m2m2" 290 0 mark 0
AnchorPoint: "m2m1" -370 0 basemark 0
AnchorPoint: "m2bv2r" -320 0 mark 0
AnchorPoint: "HbWM" -282 0 mark 0
AnchorPoint: "HbNM" -282 0 mark 0
AnchorPoint: "m2b4c" 0 0 mark 0
LayerCount: 2
Fore
SplineSet
-77 -286 m 0xb0
 -77 -276 -77 -263 -82 -255 c 1
 -183 -255 l 2
 -230 -255 -237 -238 -247 -193 c 0
 -251 -178 -253 -167 -253 -160 c 0
 -253 -144 -243 -142 -212 -142 c 2
 70 -142 l 2
 115 -142 117 -145 129 -193 c 0
 132 -207 134 -219 134 -228 c 0
 134 -247 124 -255 93 -255 c 2
 -6 -255 l 1
 -7 -260 -6 -265 -5 -269 c 0
 6 -318 69 -356 69 -418 c 0
 69 -455 46 -485 8 -485 c 0
 -35 -485 -93 -439 -93 -378 c 0
 -93 -346 -77 -316 -77 -286 c 0xb0
323 -470 m 0
 274 -470 225 -429 225 -375 c 0
 225 -341 247 -315 287 -315 c 0
 336 -315 385 -357 385 -411 c 0x94
 385 -445 360 -470 323 -470 c 0
278 -279 m 0xd8
 233 -279 180 -241 180 -183 c 0
 180 -149 204 -124 243 -124 c 0
 290 -124 341 -164 341 -221 c 0
 341 -256 314 -279 278 -279 c 0xd8
EndSplineSet
Validated: 1
Position2: "positionMoveVowelToLeft subtable" dx=-70 dy=0 dh=0 dv=0
MultipleSubs2: "AddHairspaceAfterMark subtable" hatafqamats hairspace
MultipleSubs2: "AddThinspaceAfterMark subtable" hatafqamats thinspace
EndChar

StartChar: hiriq
Encoding: 135 1460 77
Width: 0
VWidth: 2248
GlyphClass: 4
Flags: W
HStem: -303 156<-12.4164 115.498>
VStem: -29 162<-285.459 -165.407>
AnchorPoint: "m2m5" 360 0 basemark 0
AnchorPoint: "m2m6e" 160 0 basemark 0
AnchorPoint: "m2m3" 80 0 mark 0
AnchorPoint: "m2m2" 80 0 mark 0
AnchorPoint: "m2m1" -160 0 basemark 0
AnchorPoint: "m2bv2left" 35 0 mark 0
AnchorPoint: "m2bvback" 0 0 mark 0
AnchorPoint: "m2bv2r" -150 0 mark 0
AnchorPoint: "VbWM" -70 0 mark 0
AnchorPoint: "VbNM" -70 0 mark 0
AnchorPoint: "m2b4a" 0 0 mark 0
LayerCount: 2
Fore
SplineSet
70 -303 m 0
 25 -303 -29 -265 -29 -208 c 0
 -29 -173 -4 -147 34 -147 c 0
 81 -147 133 -189 133 -244 c 0
 133 -280 106 -303 70 -303 c 0
EndSplineSet
Validated: 1
Position2: "positionMoveVowelToLeft subtable" dx=-30 dy=0 dh=0 dv=0
MultipleSubs2: "AddHairspaceAfterMark subtable" hiriq hairspace
MultipleSubs2: "AddThinspaceAfterMark subtable" hiriq thinspace
Substitution2: "Single Substitution lookup 13 subtable" hiriqmem
Ligature2: "L2ccmpCgjZwjZwnjComatibility subtable" cgj hiriq
Ligature2: "L2ccmpCgjZwjZwnjComatibility subtable" zerojoin hiriq
LCarets2: 1 0 
EndChar

StartChar: tsere
Encoding: 136 1461 78
Width: 0
VWidth: 2248
GlyphClass: 4
Flags: W
HStem: -310 164<-118.332 9.48227 95.6677 223.482>
VStem: -138 167<-289.838 -165.707> 76 167<-289.838 -165.707>
AnchorPoint: "m2m5" 470 0 basemark 0
AnchorPoint: "m2m6e" 270 0 basemark 0
AnchorPoint: "m2m3" 190 0 mark 0
AnchorPoint: "m2m2" 190 0 mark 0
AnchorPoint: "m2m1" -270 0 basemark 0
AnchorPoint: "m2bv2left" 90 0 mark 0
AnchorPoint: "m2bvback" 0 0 mark 0
AnchorPoint: "m2bv2r" -230 0 mark 0
AnchorPoint: "VbWM" -180 0 mark 0
AnchorPoint: "VbNM" -180 0 mark 0
AnchorPoint: "m2b4b" 0 0 mark 0
LayerCount: 2
Fore
SplineSet
-35 -310 m 0
 -85 -310 -138 -266 -138 -209 c 0
 -138 -173 -113 -146 -73 -146 c 0
 -24 -146 29 -190 29 -247 c 0
 29 -283 4 -310 -35 -310 c 0
179 -310 m 0
 129 -310 76 -266 76 -209 c 0
 76 -173 101 -146 141 -146 c 0
 190 -146 243 -190 243 -247 c 0
 243 -283 218 -310 179 -310 c 0
EndSplineSet
Validated: 1
Position2: "positionMoveVowelToLeft subtable" dx=-70 dy=0 dh=0 dv=0
MultipleSubs2: "AddHairspaceAfterMark subtable" tsere hairspace
MultipleSubs2: "AddThinspaceAfterMark subtable" tsere thinspace
EndChar

StartChar: segol
Encoding: 137 1462 79
Width: 0
VWidth: 2248
GlyphClass: 4
Flags: W
HStem: -455 161<20.3027 154.063> -289 163<-122.646 4.64648 91.3535 218.646>
VStem: -142 166<-269.654 -145.707> 0 171<-434.218 -312.021> 72 166<-269.654 -145.707>
AnchorPoint: "m2m5" 470 0 basemark 0
AnchorPoint: "m2m6e" 270 0 basemark 0
AnchorPoint: "m2m2" 190 0 mark 0
AnchorPoint: "m2m1" -270 0 basemark 0
AnchorPoint: "m2bv2left" 90 0 mark 0
AnchorPoint: "m2bvback" 0 0 mark 0
AnchorPoint: "m2bv2r" -230 0 mark 0
AnchorPoint: "VbWM" -180 0 mark 0
AnchorPoint: "VbNM" -180 0 mark 0
AnchorPoint: "m2b4b" 0 0 mark 0
LayerCount: 2
Fore
SplineSet
-40 -289 m 0xe0
 -89 -289 -142 -246 -142 -189 c 0
 -142 -153 -117 -126 -78 -126 c 0
 -29 -126 24 -170 24 -227 c 0
 24 -262 -2 -289 -40 -289 c 0xe0
174 -289 m 0
 125 -289 72 -246 72 -189 c 0
 72 -153 97 -126 136 -126 c 0
 185 -126 238 -170 238 -227 c 0xc8
 238 -262 212 -289 174 -289 c 0
105 -455 m 0
 56 -455 0 -412 0 -355 c 0
 0 -319 28 -294 68 -294 c 0
 117 -294 171 -333 171 -391 c 0xd0
 171 -428 145 -455 105 -455 c 0
EndSplineSet
Validated: 1
Position2: "positionMoveVowelToLeft subtable" dx=-70 dy=0 dh=0 dv=0
MultipleSubs2: "AddHairspaceAfterMark subtable" segol hairspace
MultipleSubs2: "AddThinspaceAfterMark subtable" segol thinspace
EndChar

StartChar: patah
Encoding: 138 1463 80
Width: 0
VWidth: 2248
GlyphClass: 4
Flags: W
HStem: -266 114<-136.487 233.019>
VStem: -147 388<-264.192 -152.6>
AnchorPoint: "m2m5" 470 0 basemark 0
AnchorPoint: "m2m6e" 270 0 basemark 0
AnchorPoint: "m2m3" 190 0 mark 0
AnchorPoint: "m2m2" 190 0 mark 0
AnchorPoint: "m2m1" -270 0 basemark 0
AnchorPoint: "m2bv2left" 90 0 mark 0
AnchorPoint: "m2bvback" 0 0 mark 0
AnchorPoint: "m2bv2r" -230 0 mark 0
AnchorPoint: "VbWM" -180 0 mark 0
AnchorPoint: "VbNM" -180 0 mark 0
AnchorPoint: "m2bpg" 0 0 mark 0
AnchorPoint: "m2b4b" 0 0 mark 0
LayerCount: 2
Fore
SplineSet
176 -152 m 2
 221 -152 224 -155 235 -204 c 0
 238 -218 241 -230 241 -239 c 0
 241 -258 231 -266 199 -266 c 2
 -81 -266 l 2
 -123 -266 -130 -252 -138 -215 c 0
 -143 -193 -147 -179 -147 -170 c 0
 -147 -153 -136 -152 -106 -152 c 2
 176 -152 l 2
EndSplineSet
Validated: 1
Position2: "positionMoveVowelToLeft subtable" dx=-70 dy=0 dh=0 dv=0
MultipleSubs2: "AddHairspaceAfterMark subtable" patah hairspace
MultipleSubs2: "AddThinspaceAfterMark subtable" patah thinspace
EndChar

StartChar: qamats
Encoding: 139 1464 81
Width: 0
VWidth: 2248
GlyphClass: 4
Flags: W
HStem: -239 113<-142.884 23 94 227.337>
VStem: 23 146<-429.778 -265>
AnchorPoint: "m2m5" 470 0 basemark 0
AnchorPoint: "m2m6e" 270 0 basemark 0
AnchorPoint: "m2m2" 190 0 mark 0
AnchorPoint: "m2m1" -270 0 basemark 0
AnchorPoint: "m2bv2left" 90 0 mark 0
AnchorPoint: "m2bvback" 0 0 mark 0
AnchorPoint: "m2bv2r" -230 0 mark 0
AnchorPoint: "VbWM" -180 0 mark 0
AnchorPoint: "VbNM" -180 0 mark 0
AnchorPoint: "m2b4b" 0 0 mark 0
LayerCount: 2
Fore
SplineSet
23 -270 m 0
 23 -260 23 -247 18 -239 c 1
 -83 -239 l 2
 -131 -239 -137 -222 -147 -177 c 0
 -151 -162 -153 -151 -153 -144 c 0
 -153 -128 -143 -126 -112 -126 c 2
 170 -126 l 2
 215 -126 218 -129 229 -177 c 0
 232 -191 234 -203 234 -212 c 0
 234 -231 224 -239 193 -239 c 2
 94 -239 l 1
 93 -244 94 -249 95 -253 c 0
 107 -302 169 -340 169 -402 c 0
 169 -439 146 -469 108 -469 c 0
 65 -469 7 -423 7 -362 c 0
 7 -330 23 -300 23 -270 c 0
EndSplineSet
Validated: 1
Position2: "positionMoveVowelToLeft subtable" dx=-70 dy=0 dh=0 dv=0
MultipleSubs2: "AddHairspaceAfterMark subtable" qamats
MultipleSubs2: "AddThinspaceAfterMark subtable" qamats
Substitution2: "ShevaAndQamatsForFinalkaf subtable" qamats_for_finalkaf
EndChar

StartChar: holam
Encoding: 140 1465 82
Width: 0
VWidth: 2248
GlyphClass: 4
Flags: W
HStem: 1252 170<-374.001 -242.441>
VStem: -396 175<1274.01 1399.61>
AnchorPoint: "m2m8" -165 0 basemark 0
AnchorPoint: "m2b7d" 0 0 mark 0
AnchorPoint: "m2b7c" 0 0 mark 0
AnchorPoint: "m2b7b" 0 0 mark 0
AnchorPoint: "m2b7a" 0 0 mark 0
LayerCount: 2
Fore
SplineSet
-289 1252 m 0
 -340 1252 -396 1297 -396 1356 c 0
 -396 1393 -370 1422 -328 1422 c 0
 -275 1422 -221 1375 -221 1317 c 0
 -221 1280 -248 1252 -289 1252 c 0
EndSplineSet
Validated: 1
EndChar

StartChar: qubuts
Encoding: 142 1467 84
Width: 0
VWidth: 2248
GlyphClass: 4
Flags: W
HStem: -496 155<233.87 363.404> -389 155<66.2537 194.416> -277 155<-105.58 24.4517>
VStem: -121 163<-260.18 -140.557> 49 162<-371.841 -251.247> 218 162<-479.18 -357.88>
AnchorPoint: "m2bv2r" -230 0 mark 0
AnchorPoint: "m2m5" 560 0 basemark 0
AnchorPoint: "m2m6e" 360 0 basemark 0
AnchorPoint: "m2m2" 270 0 mark 0
AnchorPoint: "m2m1" -245 0 basemark 0
AnchorPoint: "m2bv2left" 60 0 mark 0
AnchorPoint: "m2bvback" 0 0 mark 0
AnchorPoint: "VbWM" -155 0 mark 0
AnchorPoint: "VbNM" -155 0 mark 0
AnchorPoint: "m2b4b" -20 0 mark 0
LayerCount: 2
Fore
SplineSet
317 -496 m 0x9c
 268 -496 218 -456 218 -401 c 0
 218 -366 242 -341 281 -341 c 0
 328 -341 380 -381 380 -437 c 0
 380 -471 354 -496 317 -496 c 0x9c
-22 -277 m 0x3c
 -72 -277 -121 -237 -121 -182 c 0
 -121 -147 -96 -122 -58 -122 c 0
 -10 -122 42 -163 42 -219 c 0
 42 -253 17 -277 -22 -277 c 0x3c
148 -389 m 0x5c
 100 -389 49 -348 49 -293 c 0
 49 -257 75 -234 112 -234 c 0
 157 -234 211 -271 211 -329 c 0
 211 -364 186 -389 148 -389 c 0x5c
EndSplineSet
Validated: 1
Position2: "positionMoveVowelToLeft subtable" dx=-70 dy=0 dh=0 dv=0
MultipleSubs2: "AddHairspaceAfterMark subtable" qubuts hairspace
MultipleSubs2: "AddThinspaceAfterMark subtable" qubuts thinspace
EndChar

StartChar: dagesh
Encoding: 143 1468 85
Width: 0
VWidth: 2248
GlyphClass: 4
Flags: W
HStem: 455 173<-189.693 -60.3066>
VStem: -212 174<477.776 605.224>
AnchorPoint: "m2b2" 0 0 mark 0
LayerCount: 2
Fore
SplineSet
-105 455 m 0
 -157 455 -212 503 -212 561 c 0
 -212 598 -187 628 -145 628 c 0
 -92 628 -38 580 -38 522 c 0
 -38 485 -63 455 -105 455 c 0
EndSplineSet
Validated: 1
EndChar

StartChar: meteg
Encoding: 144 1469 86
Width: 0
VWidth: 2248
GlyphClass: 4
Flags: W
HStem: -470 344<39.4667 98.5333>
VStem: -24 186
AnchorPoint: "m2m6c" 800 0 basemark 0
AnchorPoint: "m2m6b" 600 0 basemark 0
AnchorPoint: "m2m6a" 380 0 basemark 0
AnchorPoint: "m2m4" 60 0 mark 0
AnchorPoint: "m2m4" -140 0 basemark 0
AnchorPoint: "m2m2" -140 0 basemark 0
AnchorPoint: "m2m1" 60 0 mark 0
AnchorPoint: "m2bv2left" 25 0 mark 0
AnchorPoint: "m2bv2left" 35 0 mark 0
AnchorPoint: "m2bv2r" -150 0 mark 0
AnchorPoint: "m2b4a" 0 0 mark 0
AnchorPoint: "m2m6b" 35 0 mark 0
LayerCount: 2
Fore
SplineSet
122 -470 m 2
 98 -470 l 2
 56 -470 49 -468 39 -424 c 2
 -19 -172 l 2
 -22 -160 -24 -151 -24 -144 c 0
 -24 -129 -14 -126 16 -126 c 2
 40 -126 l 2
 82 -126 89 -128 99 -172 c 2
 157 -424 l 2
 160 -436 162 -445 162 -452 c 0
 162 -467 152 -470 122 -470 c 2
EndSplineSet
Validated: 1
LCarets2: 1 0 
Position2: "Single Positioning lookup 29 subtable" dx=214 dy=0 dh=0 dv=0
Position2: "Single Positioning lookup 28 subtable" dx=360 dy=0 dh=0 dv=0
Position2: "Single Positioning lookup 27 subtable" dx=494 dy=0 dh=0 dv=0
Position2: "Single Positioning lookup 23 subtable" dx=200 dy=0 dh=0 dv=0
Position2: "positionMoveVowelToLeft subtable" dx=-30 dy=0 dh=0 dv=0
MultipleSubs2: "AddHairspaceAfterMark subtable" meteg hairspace
MultipleSubs2: "AddThinspaceAfterMark subtable" meteg thinspace
Ligature2: "L2ccmpCgjZwjZwnjComatibility subtable" cgj meteg
Ligature2: "L2ccmpCgjZwjZwnjComatibility subtable" meteg cgj
Ligature2: "L2ccmpCgjZwjZwnjComatibility subtable" zerononjoin meteg
EndChar

StartChar: makaf
Encoding: 145 1470 87
Width: 1029
VWidth: 2248
GlyphClass: 2
Flags: W
HStem: 899 208<-42.4585 610.853>
AnchorPoint: "m2b8a" 515 0 basechar 0
AnchorPoint: "m2b8b" 295 0 basechar 0
AnchorPoint: "m2b8c" 785 0 basechar 0
LayerCount: 2
Fore
SplineSet
566 1107 m 2
 625 1107 655 1106 655 1073 c 0
 655 1062 650 1047 641 1018 c 2
 627 979 l 1
 596 907 604 899 515 899 c 2
 -22 899 l 2
 -62 899 -85 904 -85 940 c 0
 -85 950 -82 963 -73 987 c 2
 -57 1028 l 2
 -27 1106 -27 1107 69 1107 c 2
 566 1107 l 2
EndSplineSet
Validated: 1
EndChar

StartChar: rafe
Encoding: 146 1471 88
Width: 0
VWidth: 2248
GlyphClass: 4
Flags: W
HStem: 1290 145<-507.675 -118.134>
VStem: -518 406
AnchorPoint: "m2mrafe" -46.1738 200 basemark 0
AnchorPoint: "m2b3" 0 0 mark 0
LayerCount: 2
Fore
SplineSet
-478 1290 m 2
 -492 1290 -518 1294 -518 1319 c 0
 -518 1323 -519 1326 -518 1330 c 2
 -505 1408 l 2
 -503 1423 -500 1435 -482 1435 c 2
 -150 1435 l 1
 -148 1435 l 2
 -137 1435 -112 1432 -112 1407 c 0
 -112 1403 -113 1399 -114 1397 c 2
 -119 1318 l 2
 -121 1306 -128 1290 -147 1290 c 2
 -478 1290 l 2
EndSplineSet
Validated: 1
EndChar

StartChar: paseq
Encoding: 147 1472 89
Width: 383
VWidth: 2248
GlyphClass: 2
Flags: W
VStem: -107 341
LayerCount: 2
Fore
SplineSet
-107 1139 m 1
 -34 1139 l 1
 234 -22 l 1
 161 -22 l 1
 -107 1139 l 1
EndSplineSet
Validated: 1
EndChar

StartChar: shindot
Encoding: 148 1473 90
Width: 0
VWidth: 2248
GlyphClass: 4
Flags: W
HStem: 1165 170<-354.001 -222.441>
VStem: -376 175<1187.01 1312.61>
AnchorPoint: "m2b0" -435 0 mark 0
LayerCount: 2
Fore
SplineSet
-269 1165 m 0
 -320 1165 -376 1210 -376 1269 c 0
 -376 1306 -350 1335 -308 1335 c 0
 -255 1335 -201 1288 -201 1230 c 0
 -201 1193 -228 1165 -269 1165 c 0
EndSplineSet
Validated: 1
EndChar

StartChar: sofpasuq
Encoding: 150 1475 92
Width: 593
VWidth: 2248
GlyphClass: 2
Flags: W
VStem: -87 507
LayerCount: 2
Fore
SplineSet
288 62 m 0
 226 62 269 112 108 195 c 1
 91 202 80 214 77 226 c 0
 70 256 85 272 92 277 c 0
 127 305 161 329 174 377 c 1
 177 395 190 406 208 406 c 0
 225 406 243 396 254 379 c 1
 289 330 335 307 383 278 c 0
 401 267 420 246 420 225 c 0
 420 189 334 179 323 88 c 1
 319 71 305 62 288 62 c 0
127 758 m 0
 110 758 91 771 79 792 c 1
 25 879 -71 866 -87 935 c 0
 -87 937 -87 939 -87 941 c 0
 -87 951 -80 961 -67 968 c 1
 -32 998 1 1023 12 1077 c 0
 16 1095 30 1104 47 1104 c 0
 64 1104 81 1094 92 1077 c 0
 129 1025 175 1000 223 970 c 1
 254 957 258 944 258 922 c 0
 258 869 174 876 159 791 c 1
 157 770 144 758 127 758 c 0
EndSplineSet
Validated: 1
EndChar

StartChar: upperdot
Encoding: 151 1476 93
Width: 0
VWidth: 2248
GlyphClass: 4
Flags: W
HStem: 1400 232<-383.791 -318.716>
VStem: -454 211<1466.01 1558.36>
AnchorPoint: "m2b1" 25.3955 -110 mark 0
LayerCount: 2
Fore
SplineSet
-277 1454 m 0
 -295 1429 -303 1400 -323 1400 c 0
 -328 1400 -335 1402 -341 1406 c 0
 -352 1413 -373 1436 -395 1454 c 0
 -437 1490 -454 1490 -454 1518 c 0
 -454 1534 -441 1544 -424 1572 c 0
 -399 1613 -390 1632 -377 1632 c 0
 -363 1632 -345 1612 -302 1572 c 0
 -263 1537 -243 1522 -243 1505 c 0
 -243 1494 -256 1482 -277 1454 c 0
EndSplineSet
Validated: 1
EndChar

StartChar: lowerdot
Encoding: 152 1477 94
Width: 0
VWidth: 2248
GlyphClass: 4
Flags: W
HStem: -508 232<57.136 121.973>
VStem: -13 211<-441.99 -349.64>
AnchorPoint: "m2b1" -17.3154 75 mark 0
LayerCount: 2
Fore
SplineSet
164 -454 m 0
 146 -479 137 -508 117 -508 c 0
 112 -508 106 -506 100 -502 c 0
 88 -495 68 -472 46 -454 c 0
 3 -418 -13 -418 -13 -390 c 0
 -13 -374 -0 -364 17 -336 c 0
 41 -295 51 -276 64 -276 c 0
 78 -276 95 -296 139 -336 c 0
 177 -371 198 -386 198 -403 c 0
 198 -414 185 -426 164 -454 c 0
EndSplineSet
Validated: 1
EndChar

StartChar: nunhapukha
Encoding: 153 1478 95
Width: 759
VWidth: 2248
GlyphClass: 2
Flags: W
HStem: 0 314<297.184 519.194>
VStem: 64 65<569.917 719.387>
AnchorPoint: "m2b8a" 345 0 basechar 0
AnchorPoint: "m2b8b" 235 0 basechar 0
AnchorPoint: "m2b8c" 480 0 basechar 0
AnchorPoint: "m2b1" 350 0 basechar 0
LayerCount: 2
Fore
SplineSet
185 469 m 2
 203 390 202 351 206 332 c 0
 210 316 218 314 244 314 c 2
 349 314 l 2
 489 314 493 312 599 171 c 0
 653 98 683 56 689 32 c 0
 689 29 690 27 690 25 c 0
 690 1 654 0 580 0 c 2
 463 0 l 2
 334 0 328 0 259 92 c 2
 126 268 l 1
 110 293 110 321 102 356 c 0
 63 522 92 599 64 718 c 1
 59 720 55 720 52 720 c 0
 31 720 2 704 -21 704 c 0
 -37 704 -50 712 -56 738 c 0
 -59 751 -59 767 -62 780 c 0
 -67 802 -69 826 -69 851 c 0
 -69 889 -65 928 -63 960 c 0
 -55 1060 148 1098 197 1123 c 1
 224 1141 204 1202 228 1202 c 0
 285 1202 334 972 338 955 c 0
 342 937 344 921 344 906 c 0
 344 778 201 765 160 747 c 0
 138 738 129 735 129 715 c 0
 129 704 133 686 139 659 c 2
 185 469 l 2
EndSplineSet
Validated: 1
EndChar

StartChar: qamatsqatan
Encoding: 154 1479 96
Width: 0
VWidth: 2248
GlyphClass: 4
Flags: W
HStem: -229 113<-127.375 12 92 207.054>
VStem: 12 80<-344.15 -229> 19 160<-504.827 -440.374>
AnchorPoint: "m2m5" 470 0 basemark 0
AnchorPoint: "m2m6e" 270 0 basemark 0
AnchorPoint: "m2m2" 190 0 mark 0
AnchorPoint: "m2m1" -270 0 basemark 0
AnchorPoint: "m2bv2left" 90 0 mark 0
AnchorPoint: "m2bvback" 0 0 mark 0
AnchorPoint: "m2bv2r" -230 0 mark 0
AnchorPoint: "VbWM" -180 0 mark 0
AnchorPoint: "VbNM" -180 0 mark 0
AnchorPoint: "m2b4b" 0 0 mark 0
LayerCount: 2
Fore
SplineSet
122 -529 m 0xa0
 70 -529 19 -473 19 -414 c 0
 19 -389 31 -382 31 -345 c 0
 31 -327 28 -300 19 -260 c 2xa0
 12 -229 l 1
 -74 -229 l 2
 -118 -229 -122 -210 -131 -169 c 0
 -134 -154 -136 -144 -136 -137 c 0
 -136 -120 -126 -118 -99 -118 c 2
 153 -116 l 2
 195 -116 199 -123 210 -172 c 0
 213 -186 215 -197 215 -206 c 0
 215 -221 207 -229 180 -229 c 2
 92 -229 l 1xc0
 99 -260 l 2
 133 -405 160 -370 177 -440 c 0
 178 -448 179 -455 179 -463 c 0
 179 -498 160 -529 122 -529 c 0xa0
EndSplineSet
Validated: 1
Position2: "positionMoveVowelToLeft subtable" dx=-70 dy=0 dh=0 dv=0
MultipleSubs2: "AddHairspaceAfterMark subtable" qamatsqatan hairspace
MultipleSubs2: "AddThinspaceAfterMark subtable" qamatsqatan thinspace
EndChar

StartChar: alef
Encoding: 155 1488 97
Width: 1123
VWidth: 2248
GlyphClass: 2
Flags: W
HStem: 0 21G<162.5 370>
VStem: 36 148<419.953 554.452>
AnchorPoint: "m2b10" -275 0 basechar 0
AnchorPoint: "m2b9" 700 0 basechar 0
AnchorPoint: "m2b8a" 545 0 basechar 0
AnchorPoint: "m2b8b" 270 0 basechar 0
AnchorPoint: "m2b8c" 870 0 basechar 0
AnchorPoint: "m2b7c" -220 0 basechar 0
AnchorPoint: "m2b7b" 305 0 basechar 0
AnchorPoint: "m2b7a" 205 0 basechar 0
AnchorPoint: "m2b5a" 595 0 basechar 0
AnchorPoint: "m2b5b" 885 0 basechar 0
AnchorPoint: "m2bv2r" 566 0 basechar 0
AnchorPoint: "HbWM" 390 0 basechar 0
AnchorPoint: "HbNM" 330 0 basechar 0
AnchorPoint: "VbWM" 550 0 basechar 0
AnchorPoint: "VbNM" 490 0 basechar 0
AnchorPoint: "m2b4a" 595 0 basechar 0
AnchorPoint: "m2b4b" 595 0 basechar 0
AnchorPoint: "m2b4c" 595 0 basechar 0
AnchorPoint: "m2b4d" 550 0 basechar 0
AnchorPoint: "m2b3" 545 0 basechar 0
AnchorPoint: "m2b1" 545 0 basechar 0
LayerCount: 2
Fore
SplineSet
176 0 m 18
 149 0 119 10 119 40 c 0
 119 82 200 69 200 124 c 0
 200 129 201 134 200 140 c 0
 189 185 67 259 44 360 c 0
 39 383 36 404 36 424 c 0
 36 510 83 571 150 622 c 1
 43 717 -35 792 -65 922 c 16
 -70 942 -72 964 -72 986 c 0
 -72 1093 -21 1205 5 1205 c 0
 18 1205 32 1187 47 1142 c 0
 113 953 344 797 574 629 c 9
 622 725 l 25
 498 834 l 17
 459 872 437 910 437 970 c 0
 437 1000 444 1030 455 1056 c 8
 482 1118 509 1210 532 1210 c 3
 564 1210 553 1158 560 1128 c 0
 579 1045 802 961 825 864 c 0
 826 858 827 852 827 845 c 0
 827 786 774 710 747 626 c 9
 681 686 l 25
 635 591 l 25
 808 452 l 17
 885 388 924 311 941 239 c 0
 948 209 951 179 951 151 c 0
 951 53 914 -22 886 -22 c 0
 872 -22 855 -6 831 37 c 0
 686 292 461 355 278 519 c 9
 254 534 242 558 216 558 c 19
 191 558 184 532 184 508 c 0
 184 497 186 487 187 479 c 0
 213 369 421 380 470 171 c 0
 471 163 472 156 472 148 c 0
 472 70 385 0 355 0 c 10
 176 0 l 18
EndSplineSet
Validated: 1
MultipleSubs2: "Addhairspacebeforeletter subtable" hairspace alef
MultipleSubs2: "Addthinspacebeforeletter subtable" thinspace alef
MultipleSubs2: "AddHairspaceAfterMark subtable" alef hairspace
MultipleSubs2: "AddThinspaceAfterMark subtable" alef thinspace
Substitution2: "jaltWideLetterAlternativesinHeb subtable" alef.wide
EndChar

StartChar: bet
Encoding: 156 1489 98
Width: 1015
VWidth: 2248
GlyphClass: 2
Flags: W
HStem: 0 296<122.284 635.992 765.938 821.792> 824 301<24.2176 485.453>
AnchorPoint: "m2b10" -275 0 basechar 0
AnchorPoint: "m2b9" 665 0 basechar 0
AnchorPoint: "m2b8a" 500 0 basechar 0
AnchorPoint: "m2b8b" 170 0 basechar 0
AnchorPoint: "m2b8c" 790 0 basechar 0
AnchorPoint: "m2b7c" -220 0 basechar 0
AnchorPoint: "m2b7b" 230 0 basechar 0
AnchorPoint: "m2b7a" 125 0 basechar 0
AnchorPoint: "m2b5a" 510 0 basechar 0
AnchorPoint: "m2b5b" 790 0 basechar 0
AnchorPoint: "m2bv2r" 503 0 basechar 0
AnchorPoint: "VbWM" 460 0 basechar 0
AnchorPoint: "VbNM" 400 0 basechar 0
AnchorPoint: "m2b4a" 510 0 basechar 0
AnchorPoint: "m2b4b" 510 0 basechar 0
AnchorPoint: "m2b4c" 510 0 basechar 0
AnchorPoint: "m2b4d" 490 0 basechar 0
AnchorPoint: "m2b3" 500 0 basechar 0
AnchorPoint: "m2b1" 500 0 basechar 0
LayerCount: 2
Fore
SplineSet
119 0 m 18
 68 0 41 -0 41 24 c 0
 41 37 49 58 60 89 c 10
 103 202 l 17
 135 294 136 296 253 296 c 2
 590 296 l 2
 625 296 636 296 636 314 c 0
 636 323 633 337 629 357 c 10
 559 658 l 18
 542 733 502 824 353 824 c 10
 260 824 l 18
 91 824 -21 848 -53 988 c 10
 -76 1089 l 18
 -82 1115 -90 1144 -90 1172 c 0
 -90 1193 -82 1204 -71 1204 c 0
 -60 1204 -45 1193 -33 1169 c 0
 -10 1126 -8 1125 46 1125 c 2
 316 1125 l 2
 485 1125 613 1001 636 903 c 10
 768 329 l 18
 776 294 776 296 800 296 c 2
 856 296 l 2
 891 296 909 296 909 279 c 0
 909 267 901 245 887 209 c 10
 841 91 l 18
 805 0 811 0 705 0 c 10
 119 0 l 18
EndSplineSet
Validated: 1
MultipleSubs2: "Addhairspacebeforeletter subtable" hairspace bet
MultipleSubs2: "Addthinspacebeforeletter subtable" thinspace bet
MultipleSubs2: "AddHairspaceAfterMark subtable" bet hairspace
MultipleSubs2: "AddThinspaceAfterMark subtable" bet thinspace
EndChar

StartChar: gimel
Encoding: 157 1490 99
Width: 700
VWidth: 2248
GlyphClass: 2
Flags: W
HStem: 0 296<131.588 327.921>
VStem: -22 578
AnchorPoint: "m2b10" -275 0 basechar 0
AnchorPoint: "m2b9" 560 0 basechar 0
AnchorPoint: "m2b8a" 405 0 basechar 0
AnchorPoint: "m2b8b" 280 0 basechar 0
AnchorPoint: "m2b8c" 540 0 basechar 0
AnchorPoint: "m2b7d" 50 0 basechar 0
AnchorPoint: "m2b7c" -220 0 basechar 0
AnchorPoint: "m2b7b" 290 0 basechar 0
AnchorPoint: "m2b7a" 190 0 basechar 0
AnchorPoint: "m2b5a" 350 0 basechar 0
AnchorPoint: "m2b5b" 510 0 basechar 0
AnchorPoint: "m2bv2r" 322 0 basechar 0
AnchorPoint: "VbWM" 360 0 basechar 0
AnchorPoint: "VbNM" 300 0 basechar 0
AnchorPoint: "m2b4a" 350 0 basechar 0
AnchorPoint: "m2b4b" 350 0 basechar 0
AnchorPoint: "m2b4c" 350 0 basechar 0
AnchorPoint: "m2b4d" 350 0 basechar 0
AnchorPoint: "m2b3" 405 0 basechar 0
AnchorPoint: "m2b1" 405 0 basechar 0
LayerCount: 2
Fore
SplineSet
499 -4 m 0
 486 -4 454 11 448 38 c 0
 435 97 428 111 416 164 c 0
 413 179 408 184 403 184 c 3
 397 184 391 174 387 160 c 2
 355 58 l 2
 336 0 338 0 277 0 c 2
 36 0 l 1
 124 233 l 2
 147 293 144 296 208 296 c 2
 276 296 l 2
 320 296 328 299 328 316 c 0
 328 322 327 330 326 341 c 0
 317 467 300 548 274 663 c 0
 258 732 248 739 174 771 c 0
 116 795 46 792 7 962 c 0
 -5 1016 -22 1106 -22 1159 c 0
 -22 1186 -18 1203 -8 1203 c 0
 10 1203 20 1145 58 1125 c 0
 109 1100 148 1100 194 1086 c 0
 252 1068 324 1014 338 955 c 0
 375 793 398 667 426 544 c 0
 484 296 539 192 556 118 c 0
 559 103 561 89 561 76 c 0
 561 59 558 43 552 25 c 0
 546 8 508 -4 499 -4 c 0
EndSplineSet
Validated: 1
MultipleSubs2: "Addhairspacebeforeletter subtable" hairspace gimel
MultipleSubs2: "Addthinspacebeforeletter subtable" thinspace gimel
MultipleSubs2: "AddHairspaceAfterMark subtable" gimel hairspace
MultipleSubs2: "AddThinspaceAfterMark subtable" gimel thinspace
EndChar

StartChar: dalet
Encoding: 158 1491 100
Width: 1079
VWidth: 2248
GlyphClass: 2
Flags: W
HStem: 0 21G<809.5 818> 823 302<-38.1283 557.43>
AnchorPoint: "m2b10" -275 0 basechar 0
AnchorPoint: "m2b9" 695 0 basechar 0
AnchorPoint: "m2b8a" 520 0 basechar 0
AnchorPoint: "m2b8b" 120 0 basechar 0
AnchorPoint: "m2b8c" 885 0 basechar 0
AnchorPoint: "m2b7c" -220 0 basechar 0
AnchorPoint: "m2b7b" 160 0 basechar 0
AnchorPoint: "m2b7a" 60 0 basechar 0
AnchorPoint: "m2b5a" 790 0 basechar 0
AnchorPoint: "m2b5b" 895 0 basechar 0
AnchorPoint: "m2bv2left" 799 0 basechar 0
AnchorPoint: "m2b4a" 830 0 basechar 0
AnchorPoint: "m2b4b" 830 0 basechar 0
AnchorPoint: "m2b4c" 780 0 basechar 0
AnchorPoint: "m2b4d" 560 0 basechar 0
AnchorPoint: "m2b3" 520 0 basechar 0
AnchorPoint: "m2b1" 520 0 basechar 0
LayerCount: 2
Fore
SplineSet
194 823 m 18
 25 824 -88 848 -120 988 c 10
 -143 1089 l 18
 -149 1115 -156 1144 -156 1172 c 0
 -156 1193 -148 1204 -137 1204 c 0
 -126 1204 -111 1193 -99 1169 c 0
 -76 1126 -74 1125 -20 1125 c 2
 518 1125 l 2
 631 1125 682 1076 707 1027 c 1
 739 946 l 1
 759 897 774 871 774 827 c 0
 774 807 768 793 762 793 c 0
 755 792 745 796 732 808 c 0
 722 818 706 823 693 823 c 0
 682 823 674 820 673 816 c 1
 698 708 l 2
 740 522 788 329 853 161 c 1
 859 132 862 108 862 89 c 0
 862 11 820 -0 816 0 c 0
 803 0 725 17 714 64 c 0
 685 187 612 544 578 693 c 2
 562 761 l 2
 549 815 545 823 490 823 c 10
 194 823 l 18
EndSplineSet
Validated: 1
MultipleSubs2: "Addhairspacebeforeletter subtable" hairspace dalet
MultipleSubs2: "Addthinspacebeforeletter subtable" thinspace dalet
MultipleSubs2: "AddHairspaceAfterMark subtable" dalet hairspace
MultipleSubs2: "AddThinspaceAfterMark subtable" dalet thinspace
Substitution2: "jaltWideLetterAlternativesinHeb subtable" dalet.wide
EndChar

StartChar: he
Encoding: 159 1492 101
Width: 1141
VWidth: 2248
GlyphClass: 2
Flags: W
HStem: -12 33G<162 172.5 893.5 902> 821 304<-13.1283 635.287>
AnchorPoint: "m2b10" -275 0 basechar 0
AnchorPoint: "m2b9" 715 0 basechar 0
AnchorPoint: "m2b8a" 545 0 basechar 0
AnchorPoint: "m2b8b" 150 0 basechar 0
AnchorPoint: "m2b8c" 960 0 basechar 0
AnchorPoint: "m2b7c" -220 0 basechar 0
AnchorPoint: "m2b7b" 185 0 basechar 0
AnchorPoint: "m2b7a" 85 0 basechar 0
AnchorPoint: "m2b5a" 560 0 basechar 0
AnchorPoint: "m2b5b" 915 0 basechar 0
AnchorPoint: "m2bv2r" 529 0 basechar 0
AnchorPoint: "HbWM" 340 0 basechar 0
AnchorPoint: "HbNM" 280 0 basechar 0
AnchorPoint: "VbWM" 520 0 basechar 0
AnchorPoint: "VbNM" 460 0 basechar 0
AnchorPoint: "m2bpg" 1000 0 basechar 0
AnchorPoint: "m2b4a" 560 0 basechar 0
AnchorPoint: "m2b4b" 560 0 basechar 0
AnchorPoint: "m2b4c" 560 0 basechar 0
AnchorPoint: "m2b4d" 560 0 basechar 0
AnchorPoint: "m2b3" 540 0 basechar 0
AnchorPoint: "m2b1" 540 0 basechar 0
LayerCount: 2
Fore
SplineSet
219 821 m 2
 50 821 -63 848 -95 988 c 10
 -118 1089 l 18
 -124 1115 -131 1144 -131 1172 c 0
 -131 1193 -123 1204 -112 1204 c 0
 -101 1204 -86 1193 -74 1169 c 0
 -51 1126 -49 1125 5 1125 c 2
 606 1125 l 2
 719 1125 734 1090 760 1041 c 1
 792 959 l 2
 807 921 815 890 820 867 c 0
 822 857 823 848 823 840 c 0
 823 820 817 806 811 806 c 0
 804 805 798 821 780 821 c 0
 762 821 757 818 762 796 c 2
 783 707 l 2
 826 521 871 328 936 160 c 1
 943 131 945 107 945 88 c 0
 945 11 904 -0 900 0 c 0
 887 0 806 17 795 64 c 0
 767 187 692 544 658 693 c 2
 642 761 l 2
 630 815 625 821 570 821 c 2
 219 821 l 2
186 572 m 10
 269 214 l 18
 273 196 275 180 275 166 c 0
 275 108 244 79 211 35 c 1
 189 4 177 -12 168 -12 c 0
 156 -12 148 16 134 76 c 10
 44 467 l 18
 36 501 32 520 32 536 c 0
 32 558 42 572 66 605 c 0
 89 634 137 681 147 681 c 0
 161 681 169 646 186 572 c 10
EndSplineSet
Validated: 1
MultipleSubs2: "Addhairspacebeforeletter subtable" hairspace he
MultipleSubs2: "Addthinspacebeforeletter subtable" thinspace he
MultipleSubs2: "AddHairspaceAfterMark subtable" he hairspace
MultipleSubs2: "AddThinspaceAfterMark subtable" he thinspace
Substitution2: "jaltWideLetterAlternativesinHeb subtable" he.wide
EndChar

StartChar: vav
Encoding: 160 1493 102
Width: 589
VWidth: 2248
GlyphClass: 2
Flags: W
HStem: -15 21G<378 390.5>
VStem: 287 143<-3.50391 183.994>
AnchorPoint: "m2b10" -275 0 basechar 0
AnchorPoint: "m2b9" 450 0 basechar 0
AnchorPoint: "m2b8a" 280 0 basechar 0
AnchorPoint: "m2b8b" 155 0 basechar 0
AnchorPoint: "m2b8c" 455 0 basechar 0
AnchorPoint: "m2b7d" -65 0 basechar 0
AnchorPoint: "m2b7c" -220 0 basechar 0
AnchorPoint: "m2b7b" 175 0 basechar 0
AnchorPoint: "m2b7a" 75 0 basechar 0
AnchorPoint: "m2b5a" 375 0 basechar 0
AnchorPoint: "m2b5b" 480 0 basechar 0
AnchorPoint: "m2bv2left" 370 0 basechar 0
AnchorPoint: "VbWM" 350 0 basechar 0
AnchorPoint: "VbNM" 300 0 basechar 0
AnchorPoint: "m2b4a" 370 0 basechar 0
AnchorPoint: "m2b4b" 370 0 basechar 0
AnchorPoint: "m2b4c" 370 0 basechar 0
AnchorPoint: "m2b4d" 290 0 basechar 0
AnchorPoint: "m2b1" 280 0 basechar 0
LayerCount: 2
Fore
SplineSet
430 43 m 0
 430 17 397 -15 384 -15 c 0
 372 -15 292 0 287 25 c 2
 279 56 l 1
 268 182 197 537 171 652 c 0
 155 721 147 730 72 762 c 0
 15 786 -69 783 -108 953 c 0
 -120 1007 -137 1097 -137 1150 c 0
 -137 1177 -133 1194 -123 1194 c 0
 -105 1194 -95 1136 -57 1116 c 0
 -6 1091 32 1091 78 1077 c 0
 137 1059 215 1007 228 948 c 2
 323 533 l 1
 418 130 l 2
 423 107 430 77 430 43 c 0
EndSplineSet
Validated: 1
MultipleSubs2: "Addhairspacebeforeletter subtable" hairspace vav
MultipleSubs2: "Addthinspacebeforeletter subtable" thinspace vav
MultipleSubs2: "AddHairspaceAfterMark subtable" vav hairspace
MultipleSubs2: "AddThinspaceAfterMark subtable" vav thinspace
EndChar

StartChar: zayin
Encoding: 161 1494 103
Width: 572
VWidth: 2248
GlyphClass: 2
Flags: W
HStem: -20 21G<235.5 251>
VStem: -105 363<860.876 990> 55 97<465.5 735.057> 194 123<-8.54612 231.639>
AnchorPoint: "m2b10" -275 0 basechar 0
AnchorPoint: "m2b9" 475 0 basechar 0
AnchorPoint: "m2b8a" 320 0 basechar 0
AnchorPoint: "m2b8b" 205 0 basechar 0
AnchorPoint: "m2b8c" 395 0 basechar 0
AnchorPoint: "m2b7d" 5 0 basechar 0
AnchorPoint: "m2b7c" -220 0 basechar 0
AnchorPoint: "m2b7b" 245 0 basechar 0
AnchorPoint: "m2b7a" 145 0 basechar 0
AnchorPoint: "m2b5a" 240 0 basechar 0
AnchorPoint: "m2b5b" 395 0 basechar 0
AnchorPoint: "m2bv2left" 290 0 basechar 0
AnchorPoint: "VbWM" 250 0 basechar 0
AnchorPoint: "VbNM" 190 0 basechar 0
AnchorPoint: "m2b4a" 250 0 basechar 0
AnchorPoint: "m2b4b" 250 0 basechar 0
AnchorPoint: "m2b4c" 250 0 basechar 0
AnchorPoint: "m2b4d" 250 0 basechar 0
AnchorPoint: "m2b1" 320 0 basechar 0
LayerCount: 2
Fore
SplineSet
-101 941 m 0xb0
 -104 952 -105 968 -105 988 c 0
 -105 1072 -84 1213 -57 1213 c 2
 -55 1213 l 1
 -38 1209 -42 1152 -9 1125 c 0
 59 1071 232 1028 257 920 c 0
 259 910 259 897 258 886 c 2xc0
 246 746 l 18
 243 715 241 701 228 701 c 0
 215 701 192 715 152 737 c 1
 152 734 152 730 152 727 c 0
 152 479 266 330 312 134 c 0
 315 119 317 104 317 91 c 0
 317 53 304 21 284 -10 c 0
 279 -16 256 -20 246 -20 c 0
 225 -20 198 -8 194 8 c 1
 186 83 175 145 162 200 c 1
 65 488 l 1
 58 520 55 551 55 581 c 0
 55 656 74 722 86 768 c 1
 51 792 -72 816 -101 941 c 0xb0
EndSplineSet
Validated: 1
MultipleSubs2: "Addhairspacebeforeletter subtable" hairspace zayin
MultipleSubs2: "Addthinspacebeforeletter subtable" thinspace zayin
MultipleSubs2: "AddHairspaceAfterMark subtable" zayin hairspace
MultipleSubs2: "AddThinspaceAfterMark subtable" zayin thinspace
EndChar

StartChar: het
Encoding: 162 1495 104
Width: 1171
VWidth: 2248
GlyphClass: 2
Flags: W
HStem: 0 21G<924.5 933> 821 304<122 672.994>
VStem: 4 118<584.031 819.695>
AnchorPoint: "m2b10" -275 0 basechar 0
AnchorPoint: "m2b9" 745 0 basechar 0
AnchorPoint: "m2b8a" 575 0 basechar 0
AnchorPoint: "m2b8b" 120 0 basechar 0
AnchorPoint: "m2b8c" 960 0 basechar 0
AnchorPoint: "m2b7c" -220 0 basechar 0
AnchorPoint: "m2b7b" 165 0 basechar 0
AnchorPoint: "m2b7a" 65 0 basechar 0
AnchorPoint: "m2b5a" 560 0 basechar 0
AnchorPoint: "m2b5b" 930 0 basechar 0
AnchorPoint: "m2bv2r" 584 0 basechar 0
AnchorPoint: "HbWM" 440 0 basechar 0
AnchorPoint: "HbNM" 380 0 basechar 0
AnchorPoint: "VbWM" 560 0 basechar 0
AnchorPoint: "VbNM" 480 0 basechar 0
AnchorPoint: "m2bpg" 1000 0 basechar 0
AnchorPoint: "m2b4a" 560 0 basechar 0
AnchorPoint: "m2b4b" 560 0 basechar 0
AnchorPoint: "m2b4c" 600 0 basechar 0
AnchorPoint: "m2b4d" 600 0 basechar 0
AnchorPoint: "m2b2" 580 0 basechar 0
AnchorPoint: "m2b1" 575 0 basechar 0
LayerCount: 2
Fore
SplineSet
43 821 m 1
 -8 836 -91 897 -112 988 c 10
 -135 1089 l 18
 -141 1115 -149 1144 -149 1172 c 0
 -149 1193 -141 1204 -130 1204 c 0
 -119 1204 -104 1193 -92 1169 c 0
 -69 1126 -66 1125 -12 1125 c 2
 635 1125 l 2
 748 1125 763 1090 789 1041 c 1
 821 959 l 2
 836 921 845 890 850 867 c 0
 852 857 853 848 853 840 c 0
 853 820 847 806 841 806 c 0
 834 805 827 821 809 821 c 0
 791 821 786 818 791 796 c 2
 812 707 l 2
 855 521 903 328 968 160 c 1
 975 131 977 108 977 88 c 0
 977 11 935 0 931 0 c 0
 918 0 843 17 832 64 c 0
 804 187 730 544 696 693 c 2
 680 761 l 2
 668 815 663 821 608 821 c 2
 122 821 l 1
 145 576 228 420 281 191 c 0
 292 146 296 109 296 90 c 0
 296 73 279 37 259 10 c 0
 237 -21 211 -29 202 -29 c 0
 190 -29 174 -1 160 59 c 10
 14 693 l 2
 8 717 4 735 4 750 c 0
 4 775 14 793 43 821 c 1
EndSplineSet
Validated: 1
MultipleSubs2: "Addhairspacebeforeletter subtable" hairspace het
MultipleSubs2: "Addthinspacebeforeletter subtable" thinspace het
MultipleSubs2: "AddHairspaceAfterMark subtable" het hairspace
MultipleSubs2: "AddThinspaceAfterMark subtable" het thinspace
EndChar

StartChar: tet
Encoding: 163 1496 105
Width: 1135
VWidth: 2248
GlyphClass: 2
Flags: W
HStem: 0 296<234.984 796.395> 821 306<416 657>
VStem: 35 106<478.653 757.11> 402 128<474.268 816.967> 803 122<300.171 660.02>
AnchorPoint: "m2b10" -275 0 basechar 0
AnchorPoint: "m2b9" 715 0 basechar 0
AnchorPoint: "m2b8a" 545 0 basechar 0
AnchorPoint: "m2b8b" 155 0 basechar 0
AnchorPoint: "m2b8c" 930 0 basechar 0
AnchorPoint: "m2b7c" -220 0 basechar 0
AnchorPoint: "m2b7b" 190 0 basechar 0
AnchorPoint: "m2b7a" 90 0 basechar 0
AnchorPoint: "m2b5a" 560 0 basechar 0
AnchorPoint: "m2b5b" 840 0 basechar 0
AnchorPoint: "m2bv2r" 546 0 basechar 0
AnchorPoint: "VbWM" 510 0 basechar 0
AnchorPoint: "VbNM" 430 0 basechar 0
AnchorPoint: "m2b4a" 560 0 basechar 0
AnchorPoint: "m2b4b" 560 0 basechar 0
AnchorPoint: "m2b4c" 600 0 basechar 0
AnchorPoint: "m2b4d" 600 0 basechar 0
AnchorPoint: "m2b1" 540 0 basechar 0
LayerCount: 2
Fore
SplineSet
764 637 m 0
 744 725 713 821 601 821 c 0
 538 821 528 774 528 706 c 0
 528 674 530 637 530 598 c 0
 530 561 528 522 520 483 c 1
 508 445 434 416 402 416 c 9
 402 1050 l 18
 401 1056 402 1062 402 1067 c 0
 402 1110 405 1127 427 1127 c 0
 437 1127 816 1062 902 688 c 0
 919 614 925 535 925 453 c 0
 925 334 913 210 907 87 c 1
 905 0 905 0 831 0 c 10
 282 0 l 18
 212 0 204 1 193 46 c 2
 180 106 l 2
 150 234 93 367 49 498 c 1
 40 538 35 574 35 608 c 0
 35 674 52 730 79 790 c 1
 -49 846 -91 905 -106 971 c 0
 -116 1015 -126 1085 -126 1137 c 0
 -126 1176 -121 1204 -107 1204 c 0
 -96 1204 -83 1190 -73 1168 c 1
 -49 1126 -26 1108 84 1078 c 1
 165 1048 257 1023 278 933 c 0
 279 925 279 917 282 907 c 9
 280 726 l 25
 166 759 l 17
 148 730 141 700 141 667 c 0
 141 563 207 437 220 381 c 0
 237 309 272 296 330 296 c 10
 722 296 l 18
 790 296 791 296 803 382 c 0
 803 385 803 388 803 392 c 0
 803 440 778 573 764 637 c 0
EndSplineSet
Validated: 1
MultipleSubs2: "Addhairspacebeforeletter subtable" hairspace tet
MultipleSubs2: "Addthinspacebeforeletter subtable" thinspace tet
MultipleSubs2: "AddHairspaceAfterMark subtable" tet hairspace
MultipleSubs2: "AddThinspaceAfterMark subtable" tet thinspace
EndChar

StartChar: yod
Encoding: 164 1497 106
Width: 583
VWidth: 2248
GlyphClass: 2
Flags: W
HStem: 537 666
VStem: -127 453
AnchorPoint: "m2b10" -275 0 basechar 0
AnchorPoint: "m2b9" 455 0 basechar 0
AnchorPoint: "m2b8a" 300 0 basechar 0
AnchorPoint: "m2b8b" 145 0 basechar 0
AnchorPoint: "m2b8c" 485 0 basechar 0
AnchorPoint: "m2b7d" -55 0 basechar 0
AnchorPoint: "m2b7c" -220 0 basechar 0
AnchorPoint: "m2b7b" 185 0 basechar 0
AnchorPoint: "m2b7a" 85 0 basechar 0
AnchorPoint: "m2b5a" 420 0 basechar 0
AnchorPoint: "m2b5b" 455 0 basechar 0
AnchorPoint: "m2bv2left" 390 0 basechar 0
AnchorPoint: "VbWM" 400 0 basechar 0
AnchorPoint: "VbNM" 350 0 basechar 0
AnchorPoint: "m2b4a" 420 0 basechar 0
AnchorPoint: "m2b4b" 420 0 basechar 0
AnchorPoint: "m2b4c" 300 0 basechar 0
AnchorPoint: "m2b4d" 300 0 basechar 0
AnchorPoint: "m2b1" 295 0 basechar 0
LayerCount: 2
Fore
SplineSet
204 582 m 0
 176 707 158 767 84 784 c 1
 12 815 -58 792 -97 962 c 0
 -110 1016 -127 1108 -127 1161 c 0
 -127 1186 -123 1203 -113 1203 c 0
 -95 1203 -84 1145 -46 1125 c 0
 5 1100 44 1100 90 1086 c 0
 148 1068 221 1003 235 944 c 2
 326 565 l 2
 326 561 327 558 327 555 c 0
 327 543 321 537 315 537 c 0
 306 537 210 558 204 582 c 0
EndSplineSet
Validated: 1
MultipleSubs2: "Addhairspacebeforeletter subtable" hairspace yod
MultipleSubs2: "Addthinspacebeforeletter subtable" thinspace yod
MultipleSubs2: "AddHairspaceAfterMark subtable" yod hairspace
MultipleSubs2: "AddThinspaceAfterMark subtable" yod thinspace
EndChar

StartChar: finalkaf
Encoding: 165 1498 107
Width: 1013
VWidth: 2248
GlyphClass: 2
Flags: HW
HStem: 821 304<-38.3953 516.994>
AnchorPoint: "m2b9" 630 0 basechar 0
AnchorPoint: "m2b8a" 465 0 basechar 0
AnchorPoint: "m2b8b" 115 0 basechar 0
AnchorPoint: "m2b8c" 855 0 basechar 0
AnchorPoint: "m2b7b" 155 0 basechar 0
AnchorPoint: "m2b7a" 55 0 basechar 0
AnchorPoint: "m2bmback" 435 0 basechar 0
AnchorPoint: "m2b5a" 400 0 basechar 0
AnchorPoint: "m2b5b" 980 0 basechar 0
AnchorPoint: "m2bvback" 435 0 basechar 0
AnchorPoint: "m2b6" 230 0 basechar 0
AnchorPoint: "m2b4a" 420 0 basechar 0
AnchorPoint: "m2b4b" 370 0 basechar 0
AnchorPoint: "m2b4c" 320 0 basechar 0
AnchorPoint: "m2b4d" 260 0 basechar 0
AnchorPoint: "m2b3" 460 0 basechar 0
AnchorPoint: "m2b1" 465 0 basechar 0
LayerCount: 2
Fore
SplineSet
188 826 m 18
 19 829 -92 848 -124 988 c 10
 -147 1089 l 18
 -153 1115 -161 1144 -161 1172 c 0
 -161 1193 -153 1204 -142 1204 c 0
 -131 1204 -116 1193 -104 1169 c 0
 -81 1126 -78 1125 -24 1125 c 10
 479 1125 l 2
 592 1125 607 1090 633 1041 c 1
 666 959 l 2
 681 921 689 890 694 867 c 0
 696 857 697 848 697 840 c 0
 697 820 691 806 685 806 c 0
 678 805 672 821 654 821 c 0
 636 821 631 818 636 796 c 2
 657 705 l 2
 659 697 659 688 661 679 c 0
 712 458 896 -231 958 -392 c 1
 964 -417 967 -438 967 -456 c 0
 967 -542 912 -557 908 -557 c 0
 895 -557 819 -540 808 -493 c 2
 521 761 l 2
 509 815 504 821 449 821 c 2
 188 826 l 18
EndSplineSet
Validated: 1
MultipleSubs2: "Addhairspacebeforeletter subtable" hairspace finalkaf
MultipleSubs2: "Addthinspacebeforeletter subtable" thinspace finalkaf
MultipleSubs2: "AddHairspaceAfterMark subtable" finalkaf hairspace
MultipleSubs2: "AddThinspaceAfterMark subtable" finalkaf thinspace
EndChar

StartChar: kaf
Encoding: 166 1499 108
Width: 1011
VWidth: 2248
GlyphClass: 2
Flags: W
HStem: 0 296<137.145 671.762> 824 301<-21.7824 529.836>
VStem: 673 138<296.957 422.986>
AnchorPoint: "m2b10" -275 0 basechar 0
AnchorPoint: "m2b9" 600 0 basechar 0
AnchorPoint: "m2b8a" 445 0 basechar 0
AnchorPoint: "m2b8b" 150 0 basechar 0
AnchorPoint: "m2b8c" 800 0 basechar 0
AnchorPoint: "m2b7c" -220 0 basechar 0
AnchorPoint: "m2b7b" 180 0 basechar 0
AnchorPoint: "m2b7a" 80 0 basechar 0
AnchorPoint: "m2b5a" 410 0 basechar 0
AnchorPoint: "m2b5b" 705 0 basechar 0
AnchorPoint: "m2bv2r" 415 0 basechar 0
AnchorPoint: "VbWM" 420 0 basechar 0
AnchorPoint: "VbNM" 360 0 basechar 0
AnchorPoint: "m2b4a" 410 0 basechar 0
AnchorPoint: "m2b4b" 410 0 basechar 0
AnchorPoint: "m2b4c" 410 0 basechar 0
AnchorPoint: "m2b4d" 410 0 basechar 0
AnchorPoint: "m2b3" 445 0 basechar 0
AnchorPoint: "m2b1" 445 0 basechar 0
LayerCount: 2
Fore
SplineSet
133 0 m 2
 129 0 126 -0 122 -0 c 0
 79 -0 56 1 56 24 c 0
 56 37 64 58 75 89 c 10
 118 202 l 17
 150 294 150 296 267 296 c 2
 602 296 l 2
 655 296 673 300 673 326 c 0
 673 339 669 357 663 382 c 2
 599 658 l 2
 582 733 542 824 393 824 c 10
 214 824 l 18
 45 824 -67 848 -99 988 c 10
 -122 1089 l 18
 -128 1115 -136 1144 -136 1172 c 0
 -136 1193 -128 1204 -117 1204 c 0
 -106 1204 -91 1193 -79 1169 c 0
 -56 1126 -54 1125 0 1125 c 2
 361 1125 l 2
 530 1125 657 1001 680 903 c 2
 804 364 l 2
 809 343 811 325 811 309 c 0
 811 265 796 234 785 203 c 10
 745 91 l 17
 719 0 719 0 613 0 c 2
 133 0 l 2
EndSplineSet
Validated: 1
MultipleSubs2: "Addhairspacebeforeletter subtable" hairspace kaf
MultipleSubs2: "Addthinspacebeforeletter subtable" thinspace kaf
MultipleSubs2: "AddHairspaceAfterMark subtable" kaf hairspace
MultipleSubs2: "AddThinspaceAfterMark subtable" kaf thinspace
Substitution2: "jaltWideLetterAlternativesinHeb subtable" kaf.wide
EndChar

StartChar: lamed
Encoding: 167 1500 109
Width: 961
VWidth: 2248
GlyphClass: 2
Flags: W
HStem: 821 304<-35.7342 489.546>
VStem: -239 202<1560.51 1656.65> -217 97<1244.72 1507.13> -174 54<1455.36 1489.25> 389 167<24.7174 164.343> 627 137<392.5 570.531>
AnchorPoint: "m2b10" -275 0 basechar 0
AnchorPoint: "m2b9" 635 0 basechar 0
AnchorPoint: "m2b8a" 550 0 basechar 0
AnchorPoint: "m2b8b" -120 0 basechar 0
AnchorPoint: "m2b8c" 780 0 basechar 0
AnchorPoint: "m2b7c" -220 0 basechar 0
AnchorPoint: "m2b7a" -60 0 basechar 0
AnchorPoint: "m2b5a" 450 0 basechar 0
AnchorPoint: "m2b5b" 780 0 basechar 0
AnchorPoint: "m2bv2r" 430 0 basechar 0
AnchorPoint: "VbWM" 410 0 basechar 0
AnchorPoint: "VbNM" 350 0 basechar 0
AnchorPoint: "m2b4a" 460 0 basechar 0
AnchorPoint: "m2b4b" 460 0 basechar 0
AnchorPoint: "m2b4c" 460 0 basechar 0
AnchorPoint: "m2b4d" 460 0 basechar 0
AnchorPoint: "m2b1" 520 0 basechar 0
LayerCount: 2
Fore
SplineSet
-214 1380 m 18xac
 -216 1390 -217 1398 -217 1406 c 0xac
 -217 1457 -174 1470 -174 1513 c 0x9c
 -174 1578 -218 1543 -239 1631 c 0
 -240 1637 -239 1644 -239 1652 c 0
 -239 1701 -211 1769 -198 1769 c 3
 -176 1769 -177 1738 -161 1720 c 24
 -114 1664 -37 1657 -37 1580 c 0xcc
 -37 1516 -120 1493 -120 1434 c 0
 -120 1429 -120 1423 -118 1418 c 10
 -89 1289 l 18
 -70 1210 -22 1125 31 1125 c 10
 383 1125 l 18
 530 1125 576 1072 610 962 c 9
 751 460 l 18
 757 441 764 424 764 403 c 0
 764 382 755 362 732 334 c 9
 569 165 l 17
 560 151 556 136 556 121 c 0
 556 114 556 107 558 100 c 0
 564 74 551 66 538 52 c 10
 447 -41 l 18
 446 -43 443 -44 441 -44 c 0
 435 -44 428 -36 426 -26 c 0
 419 4 389 94 389 139 c 0
 389 158 393 176 404 188 c 10
 606 432 l 18
 620 449 627 460 627 472 c 0
 627 487 617 503 603 530 c 9
 507 750 l 17
 478 805 453 821 372 821 c 10
 63 821 l 18
 0 821 -94 862 -123 987 c 10
 -214 1380 l 18xac
EndSplineSet
Validated: 1
MultipleSubs2: "Addhairspacebeforeletter subtable" hairspace lamed
MultipleSubs2: "Addthinspacebeforeletter subtable" thinspace lamed
MultipleSubs2: "AddHairspaceAfterMark subtable" lamed hairspace
MultipleSubs2: "AddThinspaceAfterMark subtable" lamed thinspace
Substitution2: "jaltWideLetterAlternativesinHeb subtable" lamed.wide
EndChar

StartChar: finalmem
Encoding: 168 1501 110
Width: 1165
VWidth: 2248
GlyphClass: 2
Flags: W
HStem: 0 296<206.757 808.844> 829 299<180.909 649.06>
VStem: 18 144<479.445 780.412>
AnchorPoint: "m2b9" 740 0 basechar 0
AnchorPoint: "m2b8a" 580 0 basechar 0
AnchorPoint: "m2b8b" 195 0 basechar 0
AnchorPoint: "m2b8c" 1010 0 basechar 0
AnchorPoint: "m2b7b" 215 0 basechar 0
AnchorPoint: "m2b7a" 115 0 basechar 0
AnchorPoint: "m2b5a" 565 0 basechar 0
AnchorPoint: "m2b5b" 975 0 basechar 0
AnchorPoint: "m2bv2r" 565 0 basechar 0
AnchorPoint: "m2b4a" 565 0 basechar 0
AnchorPoint: "m2b4b" 565 0 basechar 0
AnchorPoint: "m2b4c" 565 0 basechar 0
AnchorPoint: "m2b4d" 565 0 basechar 0
AnchorPoint: "m2b2" 565 0 basechar 0
AnchorPoint: "m2b1" 580 0 basechar 0
LayerCount: 2
Fore
SplineSet
298 824 m 2
 232 825 222 829 214 829 c 0
 190 829 162 757 162 653 c 0
 162 623 165 590 170 555 c 2
 199 360 l 1
 204 337 l 2
 213 299 221 296 264 296 c 2
 780 296 l 2
 811 296 818 299 810 332 c 2
 736 656 l 2
 718 732 657 821 527 821 c 2
 298 824 l 2
82 165 m 10
 22 557 l 18
 20 574 18 592 18 609 c 0
 18 691 48 769 95 836 c 1
 13 854 -42 897 -63 989 c 10
 -87 1090 l 18
 -93 1116 -101 1145 -101 1173 c 0
 -101 1194 -92 1205 -81 1205 c 0
 -69 1205 -55 1194 -42 1170 c 0
 -20 1129 -14 1128 34 1128 c 0
 41 1128 l 2
 490 1128 l 2
 659 1128 794 1001 817 903 c 10
 987 165 l 18
 1000 107 1009 69 1009 45 c 0
 1009 0 980 0 902 0 c 10
 264 0 l 18
 147 0 116 0 95 90 c 0
 91 110 87 134 82 165 c 10
EndSplineSet
Validated: 1
MultipleSubs2: "Addhairspacebeforeletter subtable" hairspace finalmem
MultipleSubs2: "Addthinspacebeforeletter subtable" thinspace finalmem
MultipleSubs2: "AddHairspaceAfterMark subtable" finalmem hairspace
MultipleSubs2: "AddThinspaceAfterMark subtable" finalmem thinspace
Substitution2: "jaltWideLetterAlternativesinHeb subtable" finalmem.wide
EndChar

StartChar: mem
Encoding: 169 1502 111
Width: 1127
VWidth: 2248
GlyphClass: 2
Flags: W
HStem: 0 296<369.109 834.966> 793 371<375.565 512.754> 793 54<313 329>
VStem: 38 156<262.09 629.012> 128 104<40.1163 259.284> 838 141<264 495.63>
AnchorPoint: "m2b10" -275 0 basechar 0
AnchorPoint: "m2b9" 695 0 basechar 0
AnchorPoint: "m2b8a" 545 0 basechar 0
AnchorPoint: "m2b8b" 155 0 basechar 0
AnchorPoint: "m2b8c" 930 0 basechar 0
AnchorPoint: "m2b7c" -220 0 basechar 0
AnchorPoint: "m2b7b" 275 0 basechar 0
AnchorPoint: "m2b7a" 175 0 basechar 0
AnchorPoint: "m2b5a" 555 0 basechar 0
AnchorPoint: "m2b5b" 855 0 basechar 0
AnchorPoint: "m2bv2r" 526 0 basechar 0
AnchorPoint: "VbWM" 560 0 basechar 0
AnchorPoint: "VbNM" 480 0 basechar 0
AnchorPoint: "m2b4a" 555 0 basechar 0
AnchorPoint: "m2b4b" 555 0 basechar 0
AnchorPoint: "m2b4c" 555 0 basechar 0
AnchorPoint: "m2b4d" 555 0 basechar 0
AnchorPoint: "m2b1" 525 0 basechar 0
LayerCount: 2
Fore
SplineSet
141 -4 m 0xcc
 128 -4 128 6 128 21 c 0
 128 38 128 62 128 90 c 0xcc
 128 115 128 142 122 168 c 8
 106 239 67 270 51 341 c 16
 42 382 38 418 38 452 c 0
 38 546 72 620 125 706 c 0
 133 720 152 731 148 750 c 1
 113 774 -41 816 -70 941 c 0
 -73 952 -74 969 -74 989 c 0
 -74 1073 -54 1213 -27 1213 c 2
 -25 1213 l 1
 -8 1209 -11 1152 22 1125 c 0
 90 1071 285 1017 310 909 c 0
 315 889 313 847 324 847 c 3xb4
 329 847 333 855 334 863 c 2
 372 1103 l 1
 377 1145 380 1164 402 1164 c 0
 421 1164 454 1150 508 1125 c 1
 805 966 908 626 972 350 c 0
 977 327 979 304 979 282 c 0
 979 246 975 214 971 194 c 1
 945 98 l 2
 918 0 918 0 812 0 c 10
 345 0 l 18
 336 0 327 -0 320 -0 c 0
 282 -0 263 1 263 18 c 0
 263 31 274 52 292 89 c 10
 343 195 l 17
 385 294 385 296 502 296 c 10
 768 296 l 18
 823 296 838 315 838 343 c 0
 838 355 835 368 832 382 c 0
 779 609 638 793 436 793 c 3
 267 793 194 596 194 452 c 0xd4
 194 434 193 414 195 399 c 2
 220 231 l 2
 221 226 225 204 226 199 c 0
 230 181 232 165 232 150 c 0
 232 77 188 41 161 11 c 0
 155 4 150 -4 141 -4 c 0xcc
EndSplineSet
Validated: 1
MultipleSubs2: "Addhairspacebeforeletter subtable" hairspace mem
MultipleSubs2: "Addthinspacebeforeletter subtable" thinspace mem
MultipleSubs2: "AddHairspaceAfterMark subtable" mem hairspace
MultipleSubs2: "AddThinspaceAfterMark subtable" mem thinspace
EndChar

StartChar: finalnun
Encoding: 170 1503 112
Width: 594
VWidth: 2248
GlyphClass: 2
Flags: W
HStem: 822 303<-77.0619 137>
VStem: -160 425<894 1172> 101 123<468.549 821.769>
AnchorPoint: "m2b9" 445 0 basechar 0
AnchorPoint: "m2b8a" 290 0 basechar 0
AnchorPoint: "m2b8b" 125 0 basechar 0
AnchorPoint: "m2b8c" 430 0 basechar 0
AnchorPoint: "m2b7b" 155 0 basechar 0
AnchorPoint: "m2b7a" 55 0 basechar 0
AnchorPoint: "m2bmback" -15 0 basechar 0
AnchorPoint: "m2b5a" 0 0 basechar 0
AnchorPoint: "m2b5b" 475 0 basechar 0
AnchorPoint: "m2bvback" -35 0 basechar 0
AnchorPoint: "m2b4a" 25 0 basechar 0
AnchorPoint: "m2b4b" -100 0 basechar 0
AnchorPoint: "m2b4c" -150 0 basechar 0
AnchorPoint: "m2b4d" -220 0 basechar 0
AnchorPoint: "m2b2" 80 0 basechar 0
AnchorPoint: "m2b1" 290 0 basechar 0
LayerCount: 2
Fore
SplineSet
122 822 m 0xa0
 -77 825 -91 846 -124 988 c 10
 -147 1089 l 18
 -153 1115 -160 1144 -160 1172 c 0
 -160 1193 -152 1204 -141 1204 c 0
 -130 1204 -115 1193 -103 1169 c 0
 -80 1126 -78 1125 -24 1125 c 0
 180 1125 230 1085 258 962 c 0
 263 940 265 917 265 894 c 0xc0
 265 792 224 684 224 607 c 0
 224 595 225 584 228 573 c 2
 343 52 l 1
 383 -120 424 -281 453 -357 c 1
 459 -382 461 -402 461 -420 c 0
 461 -507 406 -521 402 -521 c 0
 389 -521 335 -502 324 -455 c 2
 101 532 l 2
 101 532 101 542 101 548 c 0
 101 600 119 682 137 781 c 1
 138 797 147 822 122 822 c 0xa0
EndSplineSet
Validated: 1
MultipleSubs2: "Addhairspacebeforeletter subtable" hairspace finalnun
MultipleSubs2: "Addthinspacebeforeletter subtable" thinspace finalnun
MultipleSubs2: "AddHairspaceAfterMark subtable" finalnun hairspace
MultipleSubs2: "AddThinspaceAfterMark subtable" finalnun thinspace
EndChar

StartChar: nun
Encoding: 171 1504 113
Width: 631
VWidth: 2248
GlyphClass: 2
Flags: W
HStem: 0 296<110.365 303.547>
VStem: 308 174<279.5 418.9>
AnchorPoint: "m2b10" -275 0 basechar 0
AnchorPoint: "m2b9" 490 0 basechar 0
AnchorPoint: "m2b8a" 335 0 basechar 0
AnchorPoint: "m2b8b" 190 0 basechar 0
AnchorPoint: "m2b8c" 480 0 basechar 0
AnchorPoint: "m2b7d" 15 0 basechar 0
AnchorPoint: "m2b7c" -220 0 basechar 0
AnchorPoint: "m2b7b" 225 0 basechar 0
AnchorPoint: "m2b7a" 125 0 basechar 0
AnchorPoint: "m2b5a" 260 0 basechar 0
AnchorPoint: "m2b5b" 405 0 basechar 0
AnchorPoint: "m2bv2left" 265 0 basechar 0
AnchorPoint: "m2bv2r" 265 0 basechar 0
AnchorPoint: "VbWM" 260 0 basechar 0
AnchorPoint: "VbNM" 200 0 basechar 0
AnchorPoint: "m2b4a" 260 0 basechar 0
AnchorPoint: "m2b4b" 260 0 basechar 0
AnchorPoint: "m2b4c" 260 0 basechar 0
AnchorPoint: "m2b4d" 260 0 basechar 0
AnchorPoint: "m2b1" 335 0 basechar 0
LayerCount: 2
Fore
SplineSet
159 0 m 18
 149 0 139 -0 131 -0 c 0
 72 -0 45 2 45 37 c 0
 45 60 57 97 75 156 c 1
 113 294 132 296 225 296 c 10
 272 296 l 18
 298 296 308 296 308 312 c 0
 308 356 280 404 266 464 c 16
 242 567 236 642 200 728 c 0
 193 743 160 753 124 765 c 1
 66 788 -21 796 -60 966 c 0
 -72 1020 -89 1110 -89 1163 c 0
 -89 1190 -85 1207 -75 1207 c 0
 -57 1207 -47 1149 -9 1129 c 0
 42 1104 82 1104 128 1090 c 0
 187 1072 259 1007 272 948 c 0
 310 786 366 596 464 352 c 1
 470 326 482 309 482 282 c 0
 482 277 481 272 480 267 c 10
 430 88 l 18
 405 0 403 0 276 0 c 10
 159 0 l 18
EndSplineSet
Validated: 1
MultipleSubs2: "Addhairspacebeforeletter subtable" hairspace nun
MultipleSubs2: "Addthinspacebeforeletter subtable" thinspace nun
MultipleSubs2: "AddHairspaceAfterMark subtable" nun hairspace
MultipleSubs2: "AddThinspaceAfterMark subtable" nun thinspace
EndChar

StartChar: samekh
Encoding: 172 1505 114
Width: 1084
VWidth: 2248
GlyphClass: 2
Flags: W
HStem: 0 296<197.75 751.111> 821 304<151.138 594.617>
VStem: 3 131<415.914 779.18> 752 134<271 507.719>
AnchorPoint: "m2b10" -275 0 basechar 0
AnchorPoint: "m2b9" 713.384 7 basechar 0
AnchorPoint: "m2b8a" 520 0 basechar 0
AnchorPoint: "m2b8b" 120 0 basechar 0
AnchorPoint: "m2b8c" 883.384 7 basechar 0
AnchorPoint: "m2b7c" -220 0 basechar 0
AnchorPoint: "m2b7b" 205 0 basechar 0
AnchorPoint: "m2b7a" 105 0 basechar 0
AnchorPoint: "m2b5a" 530 0 basechar 0
AnchorPoint: "m2b5b" 840 0 basechar 0
AnchorPoint: "m2bv2r" 566 0 basechar 0
AnchorPoint: "VbWM" 530 0 basechar 0
AnchorPoint: "VbNM" 470 0 basechar 0
AnchorPoint: "m2b4a" 545 0 basechar 0
AnchorPoint: "m2b4b" 545 0 basechar 0
AnchorPoint: "m2b4c" 545 0 basechar 0
AnchorPoint: "m2b4d" 500 0 basechar 0
AnchorPoint: "m2b1" 550 0 basechar 0
LayerCount: 2
Fore
SplineSet
148 550 m 2
 192 359 l 2
 206 300 208 296 255 296 c 2
 718 296 l 2
 743 296 752 297 752 309 c 0
 752 315 751 322 748 332 c 2
 674 656 l 2
 656 732 601 821 471 821 c 2
 189 821 l 2
 164 821 134 761 134 667 c 0
 134 632 138 593 148 550 c 2
669 0 m 2
 399 0 l 2
 237 0 124 62 100 165 c 10
 9 557 l 18
 5 577 3 598 3 618 c 0
 3 697 37 771 82 836 c 1
 -0 854 -55 897 -76 989 c 10
 -100 1090 l 18
 -106 1116 -114 1145 -114 1173 c 0
 -114 1194 -105 1205 -94 1205 c 0
 -82 1205 -68 1194 -55 1170 c 0
 -32 1127 -30 1125 24 1125 c 2
 422 1125 l 2
 591 1125 729 1001 752 903 c 2
 880 351 l 2
 884 332 886 315 886 298 c 0
 886 246 866 204 845 145 c 0
 808 40 779 0 669 0 c 2
EndSplineSet
Validated: 1
MultipleSubs2: "Addhairspacebeforeletter subtable" hairspace samekh
MultipleSubs2: "Addthinspacebeforeletter subtable" thinspace samekh
MultipleSubs2: "AddHairspaceAfterMark subtable" samekh hairspace
MultipleSubs2: "AddThinspaceAfterMark subtable" samekh thinspace
EndChar

StartChar: ayin
Encoding: 173 1506 115
Width: 1072
VWidth: 2248
GlyphClass: 2
Flags: W
VStem: -110 385<849.462 987.564> 57 105<552.957 740> 598 124<362.606 695.268> 627 101<218.434 541.904>
AnchorPoint: "m2b10" -275 0 basechar 0
AnchorPoint: "m2b9" 675 0 basechar 0
AnchorPoint: "m2b8a" 515 0 basechar 0
AnchorPoint: "m2b8b" 200 0 basechar 0
AnchorPoint: "m2b8c" 905 0 basechar 0
AnchorPoint: "m2b7c" -220 0 basechar 0
AnchorPoint: "m2b7b" 240 0 basechar 0
AnchorPoint: "m2b7a" 140 0 basechar 0
AnchorPoint: "m2b5a" 855 0 basechar 0
AnchorPoint: "m2b5b" 920 0 basechar 0
AnchorPoint: "m2bv2r" 809 0 basechar 0
AnchorPoint: "HbWM" 760 0 basechar 0
AnchorPoint: "HbNM" 700 0 basechar 0
AnchorPoint: "VbWM" 900 0 basechar 0
AnchorPoint: "VbNM" 700 0 basechar 0
AnchorPoint: "m2bpg" 1000 0 basechar 0
AnchorPoint: "m2b4a" 800 0 basechar 0
AnchorPoint: "m2b4b" 855 0 basechar 0
AnchorPoint: "m2b4c" 950 0 basechar 0
AnchorPoint: "m2b4d" 1050 0 basechar 0
AnchorPoint: "m2b2" 555 0 basechar 0
AnchorPoint: "m2b1" 515 0 basechar 0
LayerCount: 2
Fore
SplineSet
767 873 m 0x20
 767 832 756 777 735 693 c 0
 725 653 722 600 722 545 c 0x20
 722 479 726 410 728 356 c 0
 730 298 735 253 750 205 c 2
 776 120 l 1
 786 74 787 42 787 20 c 0
 787 -21 767 -41 710 -93 c 10
 302 -462 l 1
 269 -462 243 -387 217 -276 c 0
 204 -221 195 -186 195 -158 c 0
 195 -117 215 -91 274 -37 c 9
 323 18 l 17
 349 41 361 51 361 71 c 0
 361 77 363 83 361 90 c 0
 322 269 98 454 70 576 c 0
 62 613 57 661 57 710 c 0
 57 726 56 743 57 759 c 1x50
 22 783 -79 813 -105 938 c 0
 -108 954 -110 974 -110 996 c 0
 -110 1087 -84 1211 -61 1211 c 1
 -44 1207 -43 1150 -10 1123 c 0
 64 1064 275 1033 275 891 c 2
 275 700 l 1x80
 262 700 208 729 162 740 c 1
 162 671 168 672 180 620 c 8
 227 421 425 399 475 188 c 0
 488 135 502 144 536 171 c 0
 608 228 627 295 627 359 c 0x50
 627 436 598 509 598 556 c 2
 598 581 l 2
 598 627 595 681 583 696 c 1
 556 715 513 752 485 791 c 0
 463 823 434 850 425 863 c 0
 406 892 385 928 385 972 c 1
 481 1217 l 1
 526 1217 514 1130 544 1109 c 10
 679 1014 l 17
 737 969 767 939 767 873 c 0x20
EndSplineSet
Validated: 1
MultipleSubs2: "Addhairspacebeforeletter subtable" hairspace ayin
MultipleSubs2: "Addthinspacebeforeletter subtable" thinspace ayin
MultipleSubs2: "AddHairspaceAfterMark subtable" ayin hairspace
MultipleSubs2: "AddThinspaceAfterMark subtable" ayin thinspace
Substitution2: "saltStylisticAlternativesinHebr subtable" ayin.alt
EndChar

StartChar: finalpe
Encoding: 174 1507 116
Width: 1074
VWidth: 2248
GlyphClass: 2
Flags: W
HStem: 412 297<114.965 324.925> 821 304<128.072 564.293>
VStem: -8 115<559.5 803.61> 30 62<286.06 384.03>
AnchorPoint: "m2b9" 665 0 basechar 0
AnchorPoint: "m2b8a" 515 0 basechar 0
AnchorPoint: "m2b8b" 155 0 basechar 0
AnchorPoint: "m2b8c" 910 0 basechar 0
AnchorPoint: "m2b7b" 195 0 basechar 0
AnchorPoint: "m2b7a" 95 0 basechar 0
AnchorPoint: "m2bmback" 543 0 basechar 0
AnchorPoint: "m2b5a" 545 0 basechar 0
AnchorPoint: "m2b5b" 1090 0 basechar 0
AnchorPoint: "m2bvback" 543 0 basechar 0
AnchorPoint: "m2b4a" 580 0 basechar 0
AnchorPoint: "m2b4b" 500 0 basechar 0
AnchorPoint: "m2b4c" 450 0 basechar 0
AnchorPoint: "m2b4d" 390 0 basechar 0
AnchorPoint: "m2b3" 515 0 basechar 0
AnchorPoint: "m2b1" 515 0 basechar 0
LayerCount: 2
Fore
SplineSet
85 429 m 1xd0
 30 470 -8 515 -8 604 c 0
 -8 712 48 830 52 842 c 1
 -12 864 -65 910 -83 988 c 10
 -106 1089 l 18
 -114 1123 -119 1151 -119 1171 c 0
 -119 1192 -114 1204 -101 1204 c 0
 -89 1204 -76 1193 -63 1169 c 0
 -40 1126 -37 1125 17 1125 c 10
 397 1125 l 18
 566 1125 708 994 730 896 c 0
 791 634 1040 -302 1097 -451 c 1
 1103 -476 1105 -497 1105 -515 c 0
 1105 -601 1050 -616 1046 -616 c 0
 1033 -616 954 -600 944 -553 c 2
 674 655 l 2
 656 730 616 821 467 821 c 2
 229 826 l 18
 209 826 196 821 183 821 c 0
 165 821 150 823 127 826 c 1
 119 817 107 778 107 747 c 0xe0
 107 725 111 709 132 709 c 2
 244 709 l 2
 293 709 325 687 339 628 c 10
 361 531 l 18
 368 504 371 483 371 465 c 0
 371 429 356 412 320 412 c 10
 141 412 l 17
 119 390 106 344 92 296 c 0
 90 291 77 286 63 286 c 0
 44 286 30 295 30 317 c 0
 30 351 61 391 85 429 c 1xd0
EndSplineSet
Validated: 1
MultipleSubs2: "Addhairspacebeforeletter subtable" hairspace finalpe
MultipleSubs2: "Addthinspacebeforeletter subtable" thinspace finalpe
MultipleSubs2: "AddHairspaceAfterMark subtable" finalpe hairspace
MultipleSubs2: "AddThinspaceAfterMark subtable" finalpe thinspace
EndChar

StartChar: pe
Encoding: 175 1508 117
Width: 997
VWidth: 2248
GlyphClass: 2
Flags: W
HStem: 0 296<155.145 701.579> 412 297<114.915 338.925> 824 301<120.782 500.313>
VStem: 6 92<563 806.17> 33 60<291.89 383.5> 704 147<297.556 456.594>
AnchorPoint: "m2b10" -275 0 basechar 0
AnchorPoint: "m2b9" 625 0 basechar 0
AnchorPoint: "m2b8a" 470 0 basechar 0
AnchorPoint: "m2b8b" 160 0 basechar 0
AnchorPoint: "m2b8c" 750 0 basechar 0
AnchorPoint: "m2b7c" -220 0 basechar 0
AnchorPoint: "m2b7b" 210 0 basechar 0
AnchorPoint: "m2b7a" 110 0 basechar 0
AnchorPoint: "m2b5a" 480 0 basechar 0
AnchorPoint: "m2b5b" 735 0 basechar 0
AnchorPoint: "m2bv2r" 491 0 basechar 0
AnchorPoint: "VbWM" 460 0 basechar 0
AnchorPoint: "VbNM" 400 0 basechar 0
AnchorPoint: "m2b4a" 480 0 basechar 0
AnchorPoint: "m2b4b" 480 0 basechar 0
AnchorPoint: "m2b4c" 480 0 basechar 0
AnchorPoint: "m2b4d" 480 0 basechar 0
AnchorPoint: "m2b3" 470 0 basechar 0
AnchorPoint: "m2b1" 470 0 basechar 0
LayerCount: 2
Fore
SplineSet
87 441 m 1xec
 33 482 6 522 6 604 c 0
 6 712 61 830 65 842 c 1
 1 864 -52 910 -70 988 c 10
 -93 1089 l 18
 -101 1123 -106 1151 -106 1171 c 0
 -106 1192 -101 1204 -88 1204 c 0
 -76 1204 -62 1193 -49 1169 c 0
 -26 1126 -24 1125 30 1125 c 10
 339 1125 l 18
 519 1125 611 997 644 904 c 2
 841 364 l 2
 847 348 851 325 851 306 c 0
 851 264 833 233 822 203 c 10
 781 91 l 17
 755 0 755 0 649 0 c 2
 151 0 l 2
 101 0 73 -0 73 23 c 0
 73 36 83 57 95 89 c 10
 136 202 l 17
 168 294 168 296 285 296 c 2
 631 296 l 2
 684 296 704 302 704 328 c 0
 704 334 703 341 701 349 c 2
 694 382 l 1
 600 662 l 1
 581 743 551 824 405 824 c 2
 244 824 l 18
 196 824 157 824 119 829 c 1
 110 820 98 782 98 750 c 0xf4
 98 729 104 709 124 709 c 2
 248 709 l 18
 303 709 338 691 353 628 c 10
 375 531 l 18
 382 504 385 483 385 465 c 0
 385 429 370 412 334 412 c 10
 142 412 l 17
 120 390 104 345 93 296 c 0
 92 292 86 290 77 290 c 0
 56 290 33 301 33 329 c 0
 33 363 64 403 87 441 c 1xec
EndSplineSet
Validated: 1
MultipleSubs2: "Addhairspacebeforeletter subtable" hairspace pe
MultipleSubs2: "Addthinspacebeforeletter subtable" thinspace pe
MultipleSubs2: "AddHairspaceAfterMark subtable" pe hairspace
MultipleSubs2: "AddThinspaceAfterMark subtable" pe thinspace
EndChar

StartChar: finaltsadi
Encoding: 176 1509 118
Width: 961
VWidth: 2248
GlyphClass: 2
Flags: W
VStem: -100 333<863.249 996.29> 91 78<520.62 775.266>
AnchorPoint: "m2b9" 635 0 basechar 0
AnchorPoint: "m2b8a" 480 0 basechar 0
AnchorPoint: "m2b8b" 200 0 basechar 0
AnchorPoint: "m2b8c" 745 0 basechar 0
AnchorPoint: "m2b7b" 250 0 basechar 0
AnchorPoint: "m2b7a" 150 0 basechar 0
AnchorPoint: "m2b5a" 580 0 basechar 0
AnchorPoint: "m2b5b" 775 0 basechar 0
AnchorPoint: "m2bvback" 548 0 basechar 0
AnchorPoint: "m2bv2r" 548 0 basechar 0
AnchorPoint: "VbWM" 850 0 basechar 0
AnchorPoint: "VbNM" 710 0 basechar 0
AnchorPoint: "m2b4a" 490 0 basechar 0
AnchorPoint: "m2b4b" 580 0 basechar 0
AnchorPoint: "m2b4c" 650 0 basechar 0
AnchorPoint: "m2b4d" 740 0 basechar 0
AnchorPoint: "m2b2" 40 0 basechar 0
AnchorPoint: "m2b1" 480 0 basechar 0
LayerCount: 2
Fore
SplineSet
91 733 m 0x40
 75 802 -100 822 -100 982 c 0
 -100 1061 -80 1204 -49 1204 c 1
 -32 1200 -36 1143 -3 1116 c 0
 65 1062 207 1033 231 925 c 0
 233 920 233 915 233 909 c 0x80
 233 841 169 693 169 607 c 0
 169 598 171 589 172 581 c 2
 193 445 l 2
 201 410 208 395 216 395 c 3
 224 395 224 393 245 442 c 10
 388 784 l 18
 397 804 403 820 403 828 c 0
 403 836 395 844 379 853 c 0
 315 890 322 922 316 986 c 0
 315 996 315 1007 315 1018 c 0
 315 1101 339 1213 366 1213 c 1
 383 1209 379 1152 412 1125 c 1
 480 1049 615 1038 639 936 c 0
 640 930 641 924 641 917 c 0
 641 913 640 908 640 904 c 2
 628 763 l 18
 626 737 616 728 602 728 c 0
 569 728 543 768 519 768 c 0
 508 768 499 759 486 728 c 10
 283 257 l 17
 269 231 263 220 263 202 c 0
 263 186 268 166 277 126 c 2
 296 45 l 2
 342 -156 377 -277 395 -357 c 0
 401 -382 404 -403 404 -421 c 0
 404 -507 349 -521 345 -521 c 0
 325 -521 289 -512 256 -370 c 2
 55 501 l 2
 54 506 54 511 54 518 c 0
 54 573 91 686 91 725 c 0
 91 728 91 731 91 733 c 0x40
EndSplineSet
Validated: 1
MultipleSubs2: "Addhairspacebeforeletter subtable" hairspace finaltsadi
MultipleSubs2: "Addthinspacebeforeletter subtable" thinspace finaltsadi
MultipleSubs2: "AddHairspaceAfterMark subtable" finaltsadi hairspace
MultipleSubs2: "AddThinspaceAfterMark subtable" finaltsadi thinspace
EndChar

StartChar: tsadi
Encoding: 177 1510 119
Width: 1047
VWidth: 2248
GlyphClass: 2
Flags: W
HStem: 0 294<171.359 550.973> 821 305<501.002 650.951> 1203 20G<-143 -129>
VStem: 433 68<601 788>
AnchorPoint: "m2b10" -275 0 basechar 0
AnchorPoint: "m2b9" 660 0 basechar 0
AnchorPoint: "m2b8a" 505 0 basechar 0
AnchorPoint: "m2b8b" 135 0 basechar 0
AnchorPoint: "m2b8c" 810 0 basechar 0
AnchorPoint: "m2b7c" -220 0 basechar 0
AnchorPoint: "m2b7b" 165 0 basechar 0
AnchorPoint: "m2b7a" 65 0 basechar 0
AnchorPoint: "m2b5a" 505 0 basechar 0
AnchorPoint: "m2b5b" 795 0 basechar 0
AnchorPoint: "m2bv2r" 484 0 basechar 0
AnchorPoint: "VbWM" 480 0 basechar 0
AnchorPoint: "VbNM" 420 0 basechar 0
AnchorPoint: "m2b4a" 545 0 basechar 0
AnchorPoint: "m2b4b" 545 0 basechar 0
AnchorPoint: "m2b4c" 545 0 basechar 0
AnchorPoint: "m2b4d" 500 0 basechar 0
AnchorPoint: "m2b1" 500 0 basechar 0
LayerCount: 2
Fore
SplineSet
122 821 m 2
 81 821 l 2
 68 821 -92 868 -122 981 c 0
 -136 1035 -152 1127 -152 1181 c 0
 -152 1206 -148 1223 -138 1223 c 0
 -120 1223 -110 1165 -71 1145 c 0
 -21 1120 52 1124 98 1110 c 0
 156 1092 244 1024 258 965 c 0
 294 806 279 776 339 649 c 1
 358 603 406 575 419 575 c 0
 428 575 433 583 433 601 c 0
 433 618 429 643 420 679 c 9
 347 1206 l 18
 345 1215 344 1222 344 1227 c 0
 344 1238 365 1216 371 1216 c 0
 377 1216 385 1211 394 1203 c 1
 412 1128 415 1126 478 1126 c 10
 524 1126 l 2
 637 1126 655 1088 666 1041 c 2
 685 958 l 1
 690 943 715 886 715 863 c 0
 715 844 700 821 683 821 c 2
 599 821 l 2
 598 821 549 821 548 821 c 0
 503 821 501 816 501 788 c 0
 501 778 502 765 504 750 c 10
 521 619 l 17
 528 588 531 568 534 553 c 1
 548 495 559 498 615 453 c 1
 744 362 856 294 883 178 c 0
 886 164 888 151 888 137 c 0
 888 65 845 0 792 0 c 10
 234 0 l 18
 226 0 219 -0 213 -0 c 0
 148 -0 122 2 122 37 c 0
 122 52 127 74 135 106 c 10
 158 203 l 17
 179 294 177 294 296 294 c 10
 451 294 l 18
 514 294 551 295 551 323 c 0
 551 365 433 426 353 488 c 0
 314 519 242 551 230 600 c 2
 194 757 l 18
 181 815 173 821 133 821 c 0
 130 821 126 821 122 821 c 2
EndSplineSet
Validated: 1
MultipleSubs2: "Addhairspacebeforeletter subtable" hairspace tsadi
MultipleSubs2: "Addthinspacebeforeletter subtable" thinspace tsadi
MultipleSubs2: "AddHairspaceAfterMark subtable" tsadi hairspace
MultipleSubs2: "AddThinspaceAfterMark subtable" tsadi thinspace
EndChar

StartChar: qof
Encoding: 178 1511 120
Width: 1052
VWidth: 2248
GlyphClass: 2
Flags: W
HStem: 821 307<-42.614 576.952>
VStem: 84 75<376 575.802> 276 164<-514.062 -394.922> 385 55<-35.4433 39.2472> 740 161<286.441 489.812>
AnchorPoint: "m2b10" -275 0 basechar 0
AnchorPoint: "m2b9" 605 0 basechar 0
AnchorPoint: "m2b8a" 470 0 basechar 0
AnchorPoint: "m2b8b" 160 0 basechar 0
AnchorPoint: "m2b8c" 750 0 basechar 0
AnchorPoint: "m2b7c" -220 0 basechar 0
AnchorPoint: "m2b7b" 165 0 basechar 0
AnchorPoint: "m2b7a" 65 0 basechar 0
AnchorPoint: "m2bmback" 580 0 basechar 0
AnchorPoint: "m2b5a" 605 0 basechar 0
AnchorPoint: "m2b5b" 850 0 basechar 0
AnchorPoint: "m2bvback" 580 0 basechar 0
AnchorPoint: "m2bv2r" 580 0 basechar 0
AnchorPoint: "VbWM" 850 0 basechar 0
AnchorPoint: "VbNM" 700 0 basechar 0
AnchorPoint: "m2b4a" 600 0 basechar 0
AnchorPoint: "m2b4b" 600 0 basechar 0
AnchorPoint: "m2b4c" 650 0 basechar 0
AnchorPoint: "m2b4d" 770 0 basechar 0
AnchorPoint: "m2b1" 450 0 basechar 0
LayerCount: 2
Fore
SplineSet
84 374 m 0xe8
 84 381 84 389 84 397 c 0
 84 495 133 616 143 616 c 0
 150 616 154 605 159 583 c 0
 171 533 183 423 219 269 c 0
 255 112 315 -90 421 -325 c 1
 429 -358 l 2
 436 -389 440 -408 440 -424 c 0
 440 -449 430 -464 409 -498 c 0
 394 -522 383 -536 372 -536 c 0
 357 -536 288 -508 276 -458 c 2
 256 -370 l 2
 210 -171 157 12 121 169 c 0
 103 244 89 313 84 374 c 0xe8
-138 1089 m 18
 -146 1123 -151 1151 -151 1171 c 0
 -151 1192 -146 1204 -133 1204 c 0
 -121 1204 -108 1193 -95 1169 c 0
 -74 1130 -70 1128 -28 1128 c 2
 480 1128 l 2
 574 1128 621 1060 662 982 c 8
 789 740 839 581 899 321 c 0
 900 314 901 307 901 299 c 0
 901 263 886 217 852 192 c 8
 709 87 504 150 440 -4 c 0
 429 -31 409 -38 405 -38 c 0
 387 -38 385 -6 385 3 c 0
 386 13 385 23 385 33 c 0
 385 57 385 81 385 103 c 0xd8
 385 158 394 204 459 228 c 0
 563 265 600 261 690 284 c 16
 725 293 740 330 740 380 c 0
 740 406 736 435 729 466 c 0
 705 569 678 669 586 768 c 0
 545 814 474 821 324 821 c 10
 196 821 l 18
 0 821 -83 848 -115 988 c 10
 -138 1089 l 18
EndSplineSet
Validated: 1
MultipleSubs2: "Addhairspacebeforeletter subtable" hairspace qof
MultipleSubs2: "Addthinspacebeforeletter subtable" thinspace qof
MultipleSubs2: "AddHairspaceAfterMark subtable" qof hairspace
MultipleSubs2: "AddThinspaceAfterMark subtable" qof thinspace
EndChar

StartChar: resh
Encoding: 179 1512 121
Width: 1061
VWidth: 2248
GlyphClass: 2
Flags: W
HStem: 821 304<-37.9551 563.318>
VStem: 803 121<-18.6675 147.145>
AnchorPoint: "m2b10" -275 0 basechar 0
AnchorPoint: "m2b9" 645 0 basechar 0
AnchorPoint: "m2b8a" 520 0 basechar 0
AnchorPoint: "m2b8b" 120 0 basechar 0
AnchorPoint: "m2b8c" 885 0 basechar 0
AnchorPoint: "m2b7c" -220 0 basechar 0
AnchorPoint: "m2b7b" 160 0 basechar 0
AnchorPoint: "m2b7a" 60 0 basechar 0
AnchorPoint: "m2b5a" 850 0 basechar 0
AnchorPoint: "m2b5b" 975 0 basechar 0
AnchorPoint: "m2bv2left" 859 0 basechar 0
AnchorPoint: "m2b4a" 880 0 basechar 0
AnchorPoint: "m2b4b" 880 0 basechar 0
AnchorPoint: "m2b4c" 785 0 basechar 0
AnchorPoint: "m2b4d" 735 0 basechar 0
AnchorPoint: "m2b1" 475 0 basechar 0
LayerCount: 2
Fore
SplineSet
924 18 m 0
 915 -13 898 -28 880 -28 c 0
 859 -28 812 -7 803 30 c 0
 778 140 746 245 721 354 c 2
 652 655 l 2
 633 736 594 821 445 821 c 2
 194 821 l 2
 25 821 -88 849 -120 989 c 10
 -144 1090 l 18
 -150 1116 -157 1145 -157 1173 c 0
 -157 1194 -149 1205 -137 1205 c 0
 -126 1205 -112 1194 -99 1170 c 0
 -76 1127 -74 1125 -20 1125 c 2
 384 1125 l 2
 553 1125 688 1062 780 664 c 10
 912 90 l 18
 917 70 924 53 924 29 c 0
 924 26 924 22 924 18 c 0
EndSplineSet
Validated: 1
MultipleSubs2: "Addhairspacebeforeletter subtable" hairspace resh
MultipleSubs2: "Addthinspacebeforeletter subtable" thinspace resh
MultipleSubs2: "AddHairspaceAfterMark subtable" resh hairspace
MultipleSubs2: "AddThinspaceAfterMark subtable" resh thinspace
Substitution2: "jaltWideLetterAlternativesinHeb subtable" resh.wide
EndChar

StartChar: shin
Encoding: 180 1513 122
Width: 1403
VWidth: 2248
GlyphClass: 2
Flags: W
HStem: 0 296<283.898 366.886 478.469 818.393>
VStem: -94 357<850.168 1012.68> 28 107<520.562 741.588> 68 94<628.917 744>
AnchorPoint: "m2b10" -275 0 basechar 0
AnchorPoint: "m2b9" 830 0 basechar 0
AnchorPoint: "m2b8a" 675 0 basechar 0
AnchorPoint: "m2b8b" 145 0 basechar 0
AnchorPoint: "m2b8c" 1170 0 basechar 0
AnchorPoint: "m2b7c" -220 0 basechar 0
AnchorPoint: "m2b7b" 245 0 basechar 0
AnchorPoint: "m2b7a" 145 0 basechar 0
AnchorPoint: "m2b5a" 525 0 basechar 0
AnchorPoint: "m2b5b" 990 0 basechar 0
AnchorPoint: "m2bv2r" 520 0 basechar 0
AnchorPoint: "VbWM" 510 0 basechar 0
AnchorPoint: "VbNM" 450 0 basechar 0
AnchorPoint: "m2b4a" 525 0 basechar 0
AnchorPoint: "m2b4b" 525 0 basechar 0
AnchorPoint: "m2b4c" 525 0 basechar 0
AnchorPoint: "m2b4d" 525 0 basechar 0
AnchorPoint: "m2b1" 675 0 basechar 0
LayerCount: 2
Fore
SplineSet
511 296 m 2xa0
 770 296 l 2
 796 296 806 299 819 342 c 2
 924 683 l 1
 924 705 917 728 895 746 c 2
 769 846 l 18
 745 865 717 896 717 939 c 1
 821 1198 l 1
 863 1198 854 1110 883 1090 c 10
 1018 996 l 17
 1070 957 1109 921 1109 870 c 1
 861 53 l 1
 832 1 833 0 790 0 c 2
 197 0 l 1
 197 20 202 48 202 71 c 0
 202 79 202 86 200 92 c 0
 141 350 81 347 39 521 c 16
 31 553 28 581 28 607 c 0xa0
 28 667 46 717 68 788 c 9x90
 -27 836 l 17
 -58 853 -94 883 -94 926 c 2
 -94 1172 l 17
 -90 1193 -63 1202 -53 1202 c 0
 -16 1202 -18 1121 13 1109 c 10
 142 1058 l 17
 212 1023 263 991 263 927 c 0xc0
 263 876 243 776 225 717 c 1
 190 727 200 722 162 744 c 1x90
 152 702 135 668 135 627 c 0
 135 581 169 539 194 496 c 0
 235 426 275 343 317 296 c 1
 362 296 362 322 369 349 c 0
 406 490 440 646 470 771 c 9
 366 851 l 18
 342 870 309 899 309 936 c 1
 376 1177 l 17
 390 1217 419 1200 430 1171 c 2
 456 1101 l 9
 586 1025 l 17
 641 988 678 952 687 914 c 0
 688 910 689 903 688 899 c 1
 688 863 653 760 619 699 c 1
 580 711 595 709 555 729 c 1
 476 328 l 2
 471 302 478 296 511 296 c 2xa0
EndSplineSet
Validated: 1
MultipleSubs2: "Addhairspacebeforeletter subtable" hairspace shin
MultipleSubs2: "Addthinspacebeforeletter subtable" thinspace shin
MultipleSubs2: "AddHairspaceAfterMark subtable" shin hairspace
MultipleSubs2: "AddThinspaceAfterMark subtable" shin thinspace
EndChar

StartChar: tav
Encoding: 181 1514 123
Width: 1190
VWidth: 2248
GlyphClass: 2
Flags: W
HStem: 0 294<75.1394 235> 821 304<187 692.318>
VStem: 66 121<591.352 828> 71 355<5.16653 292.107> 932 121<-18.0048 147.145>
AnchorPoint: "m2b10" -275 0 basechar 0
AnchorPoint: "m2b9" 725 0 basechar 0
AnchorPoint: "m2b8a" 550 0 basechar 0
AnchorPoint: "m2b8b" 155 0 basechar 0
AnchorPoint: "m2b8c" 980 0 basechar 0
AnchorPoint: "m2b7c" -220 0 basechar 0
AnchorPoint: "m2b7b" 190 0 basechar 0
AnchorPoint: "m2b7a" 90 0 basechar 0
AnchorPoint: "m2b5a" 670 0 basechar 0
AnchorPoint: "m2b5b" 1010 0 basechar 0
AnchorPoint: "m2bv2r" 680 0 basechar 0
AnchorPoint: "VbWM" 630 0 basechar 0
AnchorPoint: "VbNM" 570 0 basechar 0
AnchorPoint: "m2b4a" 560 0 basechar 0
AnchorPoint: "m2b4b" 560 0 basechar 0
AnchorPoint: "m2b4c" 600 0 basechar 0
AnchorPoint: "m2b4d" 600 0 basechar 0
AnchorPoint: "m2b3" 550 0 basechar 0
AnchorPoint: "m2b1" 550 0 basechar 0
LayerCount: 2
Fore
SplineSet
1053 29 m 0xe8
 1053 -7 1027 -28 1010 -28 c 0
 989 -28 941 -7 932 30 c 0
 907 140 875 245 850 354 c 2
 781 655 l 2
 762 736 723 821 574 821 c 2
 280 821 l 2
 247 821 216 825 187 828 c 1xe8
 189 769 194 718 205 673 c 0
 260 436 405 360 423 281 c 0
 427 263 427 241 428 205 c 10
 426 82 l 18
 426 1 385 0 312 0 c 2
 143 0 l 18
 101 0 84 0 77 32 c 0
 72 54 72 93 71 160 c 0xd8
 72 294 70 294 156 294 c 0
 211 294 235 294 235 309 c 0
 235 310 235 311 235 313 c 0
 226 351 132 424 86 622 c 0
 70 691 67 762 66 836 c 1
 -15 856 -68 899 -88 989 c 10
 -112 1090 l 18
 -118 1116 -126 1145 -126 1173 c 0
 -126 1194 -118 1205 -106 1205 c 0
 -95 1205 -81 1194 -68 1170 c 0
 -45 1127 -43 1125 11 1125 c 2
 513 1125 l 2
 682 1125 817 1062 909 664 c 10
 1041 90 l 18
 1046 70 1053 53 1053 29 c 0xe8
EndSplineSet
Validated: 1
MultipleSubs2: "Addhairspacebeforeletter subtable" hairspace tav
MultipleSubs2: "Addthinspacebeforeletter subtable" thinspace tav
MultipleSubs2: "AddHairspaceAfterMark subtable" tav hairspace
MultipleSubs2: "AddThinspaceAfterMark subtable" tav thinspace
Substitution2: "jaltWideLetterAlternativesinHeb subtable" tav.wide
EndChar

StartChar: geresh
Encoding: 185 1523 127
Width: 378
VWidth: 58
GlyphClass: 2
Flags: W
HStem: 678 558<-117 16.9445>
VStem: -195 285<1026.8 1171.45> -74 164<805.295 968.321>
LayerCount: 2
Fore
SplineSet
-85 1236 m 0xc0
 6 1236 90 1155 90 1050 c 0
 90 1046 90 1043 90 1039 c 0xc0
 83 909 40 773 0 678 c 1
 -117 678 l 1
 -107 720 l 2
 -95 773 -74 825 -74 889 c 0xa0
 -74 909 -74 955 -89 969 c 1
 -127 1012 -195 1043 -195 1129 c 0
 -195 1190 -151 1236 -85 1236 c 0xc0
EndSplineSet
Validated: 1
EndChar

StartChar: zerononjoin
Encoding: 189 8204 131
Width: 0
GlyphClass: 2
Flags: W
HStem: 1613 281
VStem: -141 281
LayerCount: 2
Fore
SplineSet
-108 1894 m 1
 0 1786 l 1
 106 1893 l 1
 140 1860 l 1
 33 1753 l 1
 140 1646 l 1
 106 1613 l 1
 0 1719 l 1
 -108 1613 l 1
 -141 1646 l 1
 -34 1753 l 1
 -141 1860 l 1
 -108 1894 l 1
EndSplineSet
Validated: 1
EndChar

StartChar: zerojoin
Encoding: 190 8205 132
Width: 0
GlyphClass: 2
Flags: W
HStem: 1637 140<-203 -156 157 204> 1730 47<-156 157>
VStem: -203 47<1637 1730> 157 47<1637 1730>
LayerCount: 2
Fore
SplineSet
157 1637 m 1xb0
 157 1730 l 1
 -156 1730 l 1x70
 -156 1637 l 1
 -203 1637 l 1
 -203 1777 l 1
 204 1777 l 1
 204 1637 l 1
 157 1637 l 1xb0
EndSplineSet
Validated: 1
EndChar

StartChar: lrm
Encoding: 191 8206 133
Width: 0
GlyphClass: 2
Flags: W
HStem: 1730 47<-154 104>
VStem: -154 349
LayerCount: 2
Fore
SplineSet
21 1860 m 1
 54 1894 l 1
 195 1753 l 1
 54 1612 l 1
 21 1646 l 1
 105 1730 l 1
 -154 1730 l 1
 -154 1777 l 1
 104 1777 l 1
 21 1860 l 1
EndSplineSet
Validated: 1
EndChar

StartChar: rlm
Encoding: 192 8207 134
Width: 0
GlyphClass: 2
Flags: W
HStem: 1730 47<-103 155>
VStem: -194 349
LayerCount: 2
Fore
SplineSet
-20 1647 m 1
 -53 1613 l 1
 -194 1754 l 1
 -53 1895 l 1
 -20 1861 l 1
 -104 1777 l 1
 155 1777 l 1
 155 1730 l 1
 -103 1730 l 1
 -20 1647 l 1
EndSplineSet
Validated: 1
EndChar

StartChar: newshekel
Encoding: 199 8362 141
Width: 1415
VWidth: 2248
GlyphClass: 2
Flags: W
HStem: 0 266<411.092 649 765 835.656> 743 270<123 551.12>
VStem: -101 789<789 1046> 24 99<525.66 739.119> 242 306<479.098 604.095> 317 82<276.883 416.214> 940 162<626.922 704.641>
LayerCount: 2
Fore
SplineSet
291 72 m 0xd6
 291 45 206 0 198 0 c 0
 186 0 175 22 165 67 c 10
 30 649 l 2
 27 664 24 676 24 686 c 0xd6
 24 706 33 722 60 743 c 1
 16 754 -58 840 -74 909 c 10
 -91 985 l 18
 -96 1005 -101 1025 -101 1046 c 0
 -101 1063 -93 1072 -83 1072 c 0
 -73 1072 -60 1064 -49 1046 c 0
 -30 1013 -28 1013 20 1013 c 2
 506 1013 l 2
 608 1013 620 987 641 950 c 1
 663 916 l 2
 681 885 688 833 688 789 c 0xe2
 688 755 684 730 681 730 c 2
 681 730 628 761 637 722 c 2
 653 655 l 2
 685 515 729 453 759 324 c 0
 765 300 765 281 765 265 c 1
 789 266 l 1
 813 266 824 268 834 302 c 1
 940 608 l 1
 941 619 940 629 940 638 c 0
 940 661 934 677 915 689 c 1
 804 780 l 18
 789 793 777 819 777 850 c 0
 777 870 782 891 791 904 c 10
 861 993 l 17
 875 1017 900 1012 906 988 c 0
 911 968 902 945 921 932 c 10
 1028 857 l 18
 1079 823 1102 800 1102 765 c 0
 1102 743 1090 723 1081 699 c 1
 863 40 l 1
 836 1 836 0 796 0 c 2
 378 0 l 1
 380 6 381 14 381 21 c 0
 381 36 378 53 374 69 c 2
 323 292 l 2
 319 307 317 320 317 332 c 0xc6
 317 362 328 390 353 448 c 9
 286 478 l 18
 253 493 242 507 242 528 c 0
 242 539 245 551 249 567 c 1
 281 707 l 18
 287 732 315 731 321 704 c 0
 324 691 331 672 344 669 c 9
 467 621 l 17
 522 598 548 585 548 545 c 0xca
 548 512 528 467 496 389 c 1
 469 402 447 410 417 418 c 1
 405 382 399 366 399 351 c 0
 399 319 425 289 428 287 c 1
 438 268 471 266 509 266 c 2
 649 266 l 1
 553 698 l 2
 543 739 540 743 490 743 c 0
 310 743 301 740 123 740 c 1
 126 692 133 645 144 597 c 0
 174 469 291 278 291 72 c 0xd6
EndSplineSet
Validated: 1
EndChar

StartChar: dottedcircle
Encoding: 201 9676 142
Width: 1244
GlyphClass: 2
Flags: W
HStem: -12 143<545.461 671.204> 48 143<298.133 424.286 766.133 892.286> 222 143<83.4614 209.204 899.461 1025.2> 456 143<-30.5386 95.2036 905.461 1031.2> 690 143<-24.5386 101.204 791.461 917.204> 864 143<109.796 235.204 577.796 703.204> 924 143<329.461 455.204>
VStem: -42 149<467.148 587.852 705.01 825.065> 72 149<233.148 353.852> 98 149<875.148 995.852> 286 150<59.1481 179.191> 318 149<935.148 1055.85> 534 149<-0.851929 119.852> 566 149<875.148 995.852> 754 150<59.1481 179.191> 780 149<701.148 821.852> 888 149<233.148 353.852 471.01 591.065>
LayerCount: 2
Fore
SplineSet
49 456 m 0x39
 -4 456 -42 491 -42 552 c 0
 -42 583 -22 599 16 599 c 0
 68 599 107 565 107 503 c 0
 107 472 88 456 49 456 c 0x39
985 456 m 0
 932 456 894 491 894 552 c 0
 894 583 914 599 952 599 c 0
 1004 599 1043 565 1043 503 c 0
 1043 472 1024 456 985 456 c 0
409 924 m 0x3a10
 356 924 318 959 318 1020 c 0
 318 1051 338 1067 376 1067 c 0
 428 1067 467 1033 467 971 c 0
 467 940 448 924 409 924 c 0x3a10
625 -12 m 0xb808
 572 -12 534 23 534 84 c 0
 534 115 554 131 592 131 c 0
 644 131 683 97 683 35 c 0
 683 4 664 -12 625 -12 c 0xb808
871 690 m 0
 818 690 780 725 780 786 c 0
 780 817 800 833 838 833 c 0
 890 833 929 799 929 737 c 0x3801
 929 706 910 690 871 690 c 0
979 222 m 0
 926 222 888 257 888 318 c 0
 888 349 908 365 946 365 c 0
 998 365 1037 331 1037 269 c 0x380080
 1037 238 1018 222 979 222 c 0
55 690 m 0
 2 690 -36 725 -36 786 c 0
 -36 817 -16 833 22 833 c 0
 74 833 113 799 113 737 c 0
 113 706 94 690 55 690 c 0
163 222 m 0
 110 222 72 257 72 318 c 0
 72 349 92 365 130 365 c 0
 182 365 221 331 221 269 c 0x3880
 221 238 202 222 163 222 c 0
189 864 m 0x3c40
 136 864 98 899 98 960 c 0
 98 991 117 1007 156 1007 c 0
 208 1007 247 973 247 911 c 0
 247 880 228 864 189 864 c 0x3c40
657 864 m 0
 604 864 566 899 566 960 c 0
 566 991 585 1007 624 1007 c 0
 676 1007 715 973 715 911 c 0x3c04
 715 880 696 864 657 864 c 0
377 48 m 0x7820
 325 48 286 83 286 144 c 0
 286 175 306 191 344 191 c 0
 397 191 436 157 436 95 c 0
 436 64 416 48 377 48 c 0x7820
845 48 m 0
 793 48 754 83 754 144 c 0
 754 175 774 191 812 191 c 0
 865 191 904 157 904 95 c 0x7802
 904 64 884 48 845 48 c 0
EndSplineSet
Validated: 1
EndChar

StartChar: jsvarika
Encoding: 203 64286 143
Width: 706
VWidth: 2248
GlyphClass: 4
Flags: W
HStem: 1288 112<-431.058 -231.432>
VStem: -543 120<1403.8 1450.02>
AnchorPoint: "m2mrafe" -46.1738 200 basemark 0
AnchorPoint: "m2b3" 0 0 mark 0
LayerCount: 2
Fore
SplineSet
-323 1400 m 0
 -266 1400 -238 1405 -238 1427 c 0
 -238 1429 -239 1432 -239 1435 c 0
 -239 1445 -199 1452 -177 1452 c 0
 -151 1452 -122 1446 -119 1434 c 0
 -117 1425 -116 1416 -116 1408 c 0
 -116 1335 -193 1288 -297 1288 c 0
 -399 1288 -543 1346 -543 1436 c 0
 -543 1447 -518 1452 -493 1452 c 0
 -471 1452 -426 1445 -423 1434 c 0
 -417 1406 -386 1400 -323 1400 c 0
EndSplineSet
Validated: 1
EndChar

StartChar: ayin.alt
Encoding: 205 64288 145
Width: 1082
VWidth: 2248
GlyphClass: 2
Flags: W
VStem: -75 386<845.855 976.726> 83 97<603.877 737.891>
AnchorPoint: "m2b10" -275 0 basechar 0
AnchorPoint: "m2b9" 710 0 basechar 0
AnchorPoint: "m2b8a" 560 0 basechar 0
AnchorPoint: "m2b8b" 210 0 basechar 0
AnchorPoint: "m2b8c" 870 0 basechar 0
AnchorPoint: "m2b7c" -220 0 basechar 0
AnchorPoint: "m2b7b" 270 0 basechar 0
AnchorPoint: "m2b7a" 170 0 basechar 0
AnchorPoint: "m2b5a" 605 0 basechar 0
AnchorPoint: "m2b5b" 850 0 basechar 0
AnchorPoint: "m2bv2r" 515 0 basechar 0
AnchorPoint: "HbWM" 360 0 basechar 0
AnchorPoint: "HbNM" 300 0 basechar 0
AnchorPoint: "VbWM" 530 0 basechar 0
AnchorPoint: "VbNM" 470 0 basechar 0
AnchorPoint: "m2bpg" 950 0 basechar 0
AnchorPoint: "m2b4a" 515 0 basechar 0
AnchorPoint: "m2b4b" 515 0 basechar 0
AnchorPoint: "m2b4c" 515 0 basechar 0
AnchorPoint: "m2b4d" 480 0 basechar 0
AnchorPoint: "m2b2" 558.457 50 basechar 0
AnchorPoint: "m2b1" 560 0 basechar 0
LayerCount: 2
Fore
SplineSet
69 -98 m 0x40
 46 -98 41 -81 41 -56 c 0
 41 -41 43 -21 44 4 c 10
 52 106 l 17
 57 208 56 205 117 228 c 9
 241 267 l 18
 264 274 271 290 267 309 c 0
 262 329 262 355 252 374 c 0
 183 507 113 521 95 597 c 1
 88 630 l 2
 85 643 83 659 83 679 c 0x40
 83 698 88 738 91 768 c 1
 56 792 -42 806 -71 931 c 0
 -73 942 -75 959 -75 979 c 0
 -75 1063 -54 1203 -28 1203 c 2
 -26 1203 l 1
 -9 1199 -10 1142 24 1115 c 0
 91 1061 282 1023 307 915 c 0
 309 905 308 895 309 884 c 2
 311 738 l 17x80
 308 707 305 693 292 693 c 0
 279 693 225 727 180 738 c 1
 181 685 191 642 212 602 c 0
 240 547 330 525 368 359 c 0
 375 330 380 316 398 316 c 0
 407 316 418 319 434 325 c 1
 640 386 628 465 653 667 c 1
 653 696 656 695 653 710 c 0
 650 724 603 748 589 759 c 2
 475 845 l 18
 449 864 428 918 428 962 c 0
 428 984 432 1008 440 1028 c 10
 504 1181 l 17
 512 1196 521 1203 531 1203 c 0
 576 1203 546 1120 578 1101 c 9
 713 1007 l 17
 761 970 788 935 796 899 c 0
 799 888 800 878 800 865 c 0
 800 824 788 769 768 685 c 0
 752 621 738 388 738 257 c 2
 738 222 l 2
 738 162 664 67 568 42 c 9
 135 -85 l 17
 103 -93 83 -98 69 -98 c 0x40
EndSplineSet
Validated: 1
MultipleSubs2: "Addhairspacebeforeletter subtable" hairspace ayin.alt
MultipleSubs2: "Addthinspacebeforeletter subtable" thinspace ayin.alt
MultipleSubs2: "AddHairspaceAfterMark subtable" ayin.alt hairspace
MultipleSubs2: "AddThinspaceAfterMark subtable" ayin.alt thinspace
EndChar

StartChar: alef.wide
Encoding: 206 64289 146
Width: 1953
VWidth: 2248
GlyphClass: 2
Flags: W
HStem: 0 21G<77.5 100 1639.5 1685> 1210 20G<1204 1240>
VStem: 16 246<356 529.975>
AnchorPoint: "m2b10" -275 0 basechar 0
AnchorPoint: "m2b9" 1120 0 basechar 0
AnchorPoint: "m2b8a" 900 0 basechar 0
AnchorPoint: "m2b8b" 210 0 basechar 0
AnchorPoint: "m2b8c" 1665 0 basechar 0
AnchorPoint: "m2b7c" -220 0 basechar 0
AnchorPoint: "m2b7b" 300 0 basechar 0
AnchorPoint: "m2b7a" 220 0 basechar 0
AnchorPoint: "m2b5a" 1025 0 basechar 0
AnchorPoint: "m2b5b" 1650 0 basechar 0
AnchorPoint: "m2b4a" 1030 0 basechar 0
AnchorPoint: "m2b4b" 1030 0 basechar 0
AnchorPoint: "m2b4c" 1030 0 basechar 0
AnchorPoint: "m2b4d" 1030 0 basechar 0
AnchorPoint: "m2b3" 900 0 basechar 0
AnchorPoint: "m2b2" 1153.89 -450 basechar 0
AnchorPoint: "m2b1" 900 0 basechar 0
LayerCount: 2
Fore
SplineSet
91 0 m 0
 64 0 44 11 44 42 c 0
 44 122 268 56 268 119 c 0
 268 121 268 123 267 126 c 0
 257 171 44 255 21 356 c 0
 18 370 16 384 16 398 c 0
 16 510 112 634 271 690 c 1
 80 785 -53 827 -91 990 c 16
 -93 1001 -94 1011 -94 1021 c 0
 -94 1127 29 1204 85 1204 c 0
 111 1204 105 1170 126 1125 c 0
 214 936 650 807 1070 639 c 9
 1192 811 l 25
 1075 855 l 17
 1015 888 981 919 981 969 c 0
 981 1006 1004 1044 1040 1076 c 8
 1109 1140 1181 1230 1227 1230 c 3
 1253 1230 1289 1212 1292 1200 c 0
 1296 1184 1261 1171 1266 1149 c 0
 1285 1066 1626 1034 1649 937 c 0
 1649 934 1650 931 1650 928 c 0
 1650 868 1517 788 1440 699 c 9
 1321 760 l 25
 1204 589 l 25
 1554 445 l 17
 1694 381 1765 264 1782 192 c 0
 1786 172 1788 154 1788 138 c 0
 1788 40 1716 -0 1654 0 c 0
 1625 0 1608 56 1554 105 c 0
 1298 338 872 428 544 592 c 9
 500 607 474 631 430 631 c 3
 363 631 262 545 262 470 c 0
 262 465 263 459 264 453 c 0
 290 343 621 353 669 144 c 0
 670 140 670 137 670 133 c 0
 670 53 460 4 382 4 c 10
 149 4 l 18
 128 4 109 0 91 0 c 0
EndSplineSet
Validated: 1
MultipleSubs2: "Addhairspacebeforeletter subtable" hairspace alef.wide
MultipleSubs2: "Addthinspacebeforeletter subtable" thinspace alef.wide
MultipleSubs2: "AddHairspaceAfterMark subtable" alef.wide hairspace
MultipleSubs2: "AddThinspaceAfterMark subtable" alef.wide thinspace
EndChar

StartChar: dalet.wide
Encoding: 207 64290 147
Width: 2021
VWidth: 2248
GlyphClass: 2
Flags: W
HStem: 0 21G<1772.5 1781> 823 303<-42.1283 1511.15>
AnchorPoint: "m2b10" -275 0 basechar 0
AnchorPoint: "m2b9" 1110 0 basechar 0
AnchorPoint: "m2b8a" 955 0 basechar 0
AnchorPoint: "m2b8b" 85 0 basechar 0
AnchorPoint: "m2b8c" 1725 0 basechar 0
AnchorPoint: "m2b7c" -220 0 basechar 0
AnchorPoint: "m2b7b" 170 0 basechar 0
AnchorPoint: "m2b7a" 55 0 basechar 0
AnchorPoint: "m2b5a" 1755 0 basechar 0
AnchorPoint: "m2b5b" 1935 0 basechar 0
AnchorPoint: "m2bv2left" 1750 0 basechar 0
AnchorPoint: "m2b4a" 1775 0 basechar 0
AnchorPoint: "m2b4b" 1775 0 basechar 0
AnchorPoint: "m2b4c" 1775 0 basechar 0
AnchorPoint: "m2b4d" 1600 0 basechar 0
AnchorPoint: "m2b3" 955 0 basechar 0
AnchorPoint: "m2b2" 990 0 basechar 0
AnchorPoint: "m2b1" 955 0 basechar 0
LayerCount: 2
Fore
SplineSet
190 823 m 18
 21 823 -92 848 -124 988 c 10
 -147 1089 l 18
 -153 1115 -160 1144 -160 1172 c 0
 -160 1193 -152 1204 -141 1204 c 0
 -130 1204 -115 1193 -103 1169 c 0
 -80 1126 -78 1126 -24 1126 c 2
 1481 1126 l 2
 1594 1126 1644 1078 1669 1029 c 1
 1701 947 l 1
 1722 898 1737 872 1737 828 c 0
 1737 808 1730 794 1725 794 c 0
 1718 793 1708 797 1695 809 c 0
 1685 819 1669 823 1655 823 c 0
 1645 823 1637 821 1635 817 c 1
 1660 709 l 2
 1703 523 1751 330 1816 162 c 1
 1822 133 1825 109 1825 90 c 0
 1825 12 1783 0 1779 0 c 0
 1766 0 1691 3 1680 50 c 0
 1652 173 1568 547 1533 696 c 2
 1517 764 l 2
 1505 818 1501 823 1446 823 c 10
 190 823 l 18
EndSplineSet
Validated: 1
MultipleSubs2: "Addhairspacebeforeletter subtable" hairspace dalet.wide
MultipleSubs2: "Addthinspacebeforeletter subtable" thinspace dalet.wide
MultipleSubs2: "AddHairspaceAfterMark subtable" dalet.wide hairspace
MultipleSubs2: "AddThinspaceAfterMark subtable" dalet.wide thinspace
EndChar

StartChar: he.wide
Encoding: 208 64291 148
Width: 2047
VWidth: 2248
GlyphClass: 2
Flags: W
HStem: -12 21G<146 156.5 1818.5 1827> 821 304<-27.5121 1568.99>
AnchorPoint: "m2b10" -275 0 basechar 0
AnchorPoint: "m2b9" 1170 0 basechar 0
AnchorPoint: "m2b8a" 1015 0 basechar 0
AnchorPoint: "m2b8b" 100 0 basechar 0
AnchorPoint: "m2b8c" 1785 0 basechar 0
AnchorPoint: "m2b7c" -220 0 basechar 0
AnchorPoint: "m2b7b" 175 0 basechar 0
AnchorPoint: "m2b7a" 70 0 basechar 0
AnchorPoint: "m2b5a" 1015 0 basechar 0
AnchorPoint: "m2b5b" 1785 0 basechar 0
AnchorPoint: "m2bpg" 1950 0 basechar 0
AnchorPoint: "m2b4a" 1015 0 basechar 0
AnchorPoint: "m2b4b" 1015 0 basechar 0
AnchorPoint: "m2b4c" 1015 0 basechar 0
AnchorPoint: "m2b4d" 1015 0 basechar 0
AnchorPoint: "m2b3" 1015 0 basechar 0
AnchorPoint: "m2b2" 1015 0 basechar 0
AnchorPoint: "m2b1" 1015 0 basechar 0
LayerCount: 2
Fore
SplineSet
170 572 m 10
 253 214 l 18
 257 196 259 180 259 166 c 0
 259 108 228 79 195 35 c 1
 173 4 161 -12 152 -12 c 0
 140 -12 132 16 118 76 c 10
 28 467 l 18
 20 501 16 520 16 536 c 0
 16 558 26 572 50 605 c 0
 73 634 121 681 131 681 c 0
 145 681 153 646 170 572 c 10
204 821 m 18
 35 821 -77 848 -109 988 c 10
 -132 1089 l 18
 -138 1115 -146 1144 -146 1172 c 0
 -146 1193 -138 1204 -127 1204 c 0
 -116 1204 -101 1193 -89 1169 c 0
 -66 1126 -64 1125 -10 1125 c 2
 1531 1125 l 2
 1644 1125 1659 1090 1685 1041 c 1
 1717 959 l 2
 1732 921 1741 890 1746 867 c 0
 1748 857 1749 848 1749 840 c 0
 1749 820 1743 806 1737 806 c 0
 1730 805 1724 821 1706 821 c 0
 1688 821 1683 818 1688 796 c 2
 1709 707 l 2
 1752 521 1797 328 1862 160 c 1
 1869 131 1871 108 1871 88 c 0
 1871 11 1829 -0 1825 0 c 0
 1812 0 1736 18 1725 65 c 0
 1697 188 1623 545 1589 694 c 2
 1573 762 l 2
 1561 816 1556 821 1501 821 c 2
 204 821 l 18
EndSplineSet
Validated: 1
MultipleSubs2: "Addhairspacebeforeletter subtable" hairspace he.wide
MultipleSubs2: "Addthinspacebeforeletter subtable" thinspace he.wide
MultipleSubs2: "AddHairspaceAfterMark subtable" he.wide hairspace
MultipleSubs2: "AddThinspaceAfterMark subtable" he.wide thinspace
EndChar

StartChar: kaf.wide
Encoding: 209 64292 149
Width: 2141
VWidth: 2248
GlyphClass: 2
Flags: W
HStem: 0 299<132.172 1807.85> 822 303<-23.0884 1671.17>
VStem: 1810 150<296.957 422.986>
AnchorPoint: "m2b10" -275 0 basechar 0
AnchorPoint: "m2b9" 1170 0 basechar 0
AnchorPoint: "m2b8a" 1015 0 basechar 0
AnchorPoint: "m2b8b" 110 0 basechar 0
AnchorPoint: "m2b8c" 1830 0 basechar 0
AnchorPoint: "m2b7c" -220 0 basechar 0
AnchorPoint: "m2b7b" 200 0 basechar 0
AnchorPoint: "m2b7a" 75 0 basechar 0
AnchorPoint: "m2b5a" 1015 0 basechar 0
AnchorPoint: "m2b5b" 1800 0 basechar 0
AnchorPoint: "m2b4a" 1015 0 basechar 0
AnchorPoint: "m2b4b" 1015 0 basechar 0
AnchorPoint: "m2b4c" 1015 0 basechar 0
AnchorPoint: "m2b4d" 1015 0 basechar 0
AnchorPoint: "m2b3" 1015 0 basechar 0
AnchorPoint: "m2b2" 1015 0 basechar 0
AnchorPoint: "m2b1" 1031 0 basechar 0
LayerCount: 2
Fore
SplineSet
127 0 m 2
 123 0 120 -0 116 -0 c 0
 73 -0 50 1 50 24 c 0
 50 37 58 58 69 89 c 10
 112 202 l 17
 144 294 143 299 260 299 c 2
 1739 296 l 2
 1793 296 1810 299 1810 326 c 0
 1810 338 1807 356 1801 381 c 2
 1737 658 l 2
 1720 733 1680 822 1531 822 c 10
 207 827 l 18
 202 827 196 822 191 822 c 0
 32 822 -74 853 -105 988 c 10
 -128 1089 l 18
 -134 1115 -142 1144 -142 1172 c 0
 -142 1193 -134 1204 -123 1204 c 0
 -111 1204 -96 1193 -84 1169 c 0
 -61 1126 -59 1125 -5 1125 c 2
 1509 1125 l 2
 1678 1125 1806 1001 1829 903 c 2
 1953 364 l 2
 1958 343 1960 325 1960 309 c 0
 1960 265 1945 234 1934 203 c 10
 1893 91 l 17
 1867 0 1868 0 1762 0 c 2
 127 0 l 2
EndSplineSet
Validated: 1
MultipleSubs2: "Addhairspacebeforeletter subtable" hairspace kaf.wide
MultipleSubs2: "Addthinspacebeforeletter subtable" thinspace kaf.wide
MultipleSubs2: "AddHairspaceAfterMark subtable" kaf.wide hairspace
MultipleSubs2: "AddThinspaceAfterMark subtable" kaf.wide thinspace
EndChar

StartChar: lamed.wide
Encoding: 210 64293 150
Width: 1713
VWidth: 2248
GlyphClass: 2
Flags: W
HStem: 820 304<-54.9614 1218.44>
VStem: -227 69<1278.29 1485.04> -152 78<1506.23 1594.73> 843 204<40.7723 132.986>
AnchorPoint: "m2b10" -275 0 basechar 0
AnchorPoint: "m2b9" 1100 0 basechar 0
AnchorPoint: "m2b8a" 845 0 basechar 0
AnchorPoint: "m2b8b" -55 0 basechar 0
AnchorPoint: "m2b8c" 1470 0 basechar 0
AnchorPoint: "m2b7c" -220 0 basechar 0
AnchorPoint: "m2b7a" -60 0 basechar 0
AnchorPoint: "m2b5a" 920 0 basechar 0
AnchorPoint: "m2b5b" 1545 0 basechar 0
AnchorPoint: "m2b4a" 920 0 basechar 0
AnchorPoint: "m2b4b" 920 0 basechar 0
AnchorPoint: "m2b4c" 920 0 basechar 0
AnchorPoint: "m2b4d" 920 0 basechar 0
AnchorPoint: "m2b2" 845 0 basechar 0
AnchorPoint: "m2b1" 845 0 basechar 0
LayerCount: 2
Fore
SplineSet
-224 1414 m 18
 -226 1421 -227 1427 -227 1432 c 0
 -227 1489 -152 1490 -152 1538 c 0
 -152 1607 -228 1581 -247 1665 c 0
 -249 1670 -249 1676 -249 1681 c 0
 -249 1724 -216 1766 -203 1766 c 3
 -181 1766 -179 1736 -164 1717 c 24
 -128 1668 -74 1644 -74 1577 c 0
 -74 1513 -158 1490 -158 1431 c 0
 -158 1426 -157 1420 -156 1415 c 10
 -126 1285 l 18
 -107 1206 -58 1124 -5 1124 c 10
 1137 1124 l 18
 1284 1124 1317 1066 1364 960 c 9
 1535 507 l 17
 1539 491 1560 440 1560 424 c 0
 1560 395 1526 361 1486 333 c 9
 1096 136 l 18
 1071 123 1047 122 1047 106 c 0
 1047 103 1048 100 1048 97 c 0
 1048 71 994 34 982 20 c 9
 894 -61 l 18
 893 -62 892 -63 890 -63 c 0
 881 -63 866 -48 863 -36 c 0
 857 -10 843 58 843 114 c 0
 843 152 849 184 869 195 c 10
 1338 455 l 17
 1361 466 1360 480 1356 496 c 0
 1354 508 1347 525 1334 552 c 10
 1250 736 l 17
 1221 791 1179 820 1098 820 c 10
 59 820 l 18
 -4 820 -97 863 -125 982 c 10
 -224 1414 l 18
EndSplineSet
Validated: 1
MultipleSubs2: "Addhairspacebeforeletter subtable" hairspace lamed.wide
MultipleSubs2: "Addthinspacebeforeletter subtable" thinspace lamed.wide
MultipleSubs2: "AddHairspaceAfterMark subtable" lamed.wide hairspace
MultipleSubs2: "AddThinspaceAfterMark subtable" lamed.wide thinspace
EndChar

StartChar: finalmem.wide
Encoding: 211 64294 151
Width: 2074
VWidth: 2248
GlyphClass: 2
Flags: W
HStem: 0 290<205.357 1734.83> 822 304<178.362 1585.34>
VStem: 4 156<475.056 779.112>
AnchorPoint: "m2b9" 1145 0 basechar 0
AnchorPoint: "m2b8a" 990 0 basechar 0
AnchorPoint: "m2b8b" 165 0 basechar 0
AnchorPoint: "m2b8c" 1800 0 basechar 0
AnchorPoint: "m2b7b" 180 0 basechar 0
AnchorPoint: "m2b7a" 100 0 basechar 0
AnchorPoint: "m2b5a" 990 0 basechar 0
AnchorPoint: "m2b5b" 1845 0 basechar 0
AnchorPoint: "m2b4a" 990 0 basechar 0
AnchorPoint: "m2b4b" 990 0 basechar 0
AnchorPoint: "m2b4c" 990 0 basechar 0
AnchorPoint: "m2b4d" 990 0 basechar 0
AnchorPoint: "m2b2" 990 0 basechar 0
AnchorPoint: "m2b1" 990 0 basechar 0
LayerCount: 2
Fore
SplineSet
294 822 m 1
 211 822 l 2
 187 822 160 751 160 647 c 0
 160 617 162 584 167 549 c 2
 198 353 l 1
 203 330 l 2
 212 292 218 290 261 290 c 0
 268 290 275 292 283 292 c 2
 1704 293 l 2
 1735 293 1743 296 1736 329 c 2
 1661 653 l 2
 1643 729 1588 822 1458 822 c 2
 294 822 l 1
67 160 m 10
 8 552 l 18
 5 570 4 587 4 604 c 0
 4 687 33 765 80 832 c 1
 -2 850 -57 893 -78 985 c 10
 -102 1086 l 18
 -108 1112 -114 1140 -114 1169 c 0
 -114 1189 -106 1200 -95 1200 c 0
 -84 1200 -70 1189 -57 1166 c 0
 -38 1129 -36 1126 0 1126 c 2
 1414 1126 l 2
 1583 1126 1722 1002 1744 904 c 10
 1915 166 l 18
 1928 108 1937 70 1937 45 c 0
 1937 0 1908 -0 1830 0 c 10
 218 0 l 2
 125 0 99 4 80 86 c 0
 76 106 72 129 67 160 c 10
EndSplineSet
Validated: 1
MultipleSubs2: "Addhairspacebeforeletter subtable" hairspace finalmem.wide
MultipleSubs2: "Addthinspacebeforeletter subtable" thinspace finalmem.wide
MultipleSubs2: "AddHairspaceAfterMark subtable" finalmem.wide hairspace
MultipleSubs2: "AddThinspaceAfterMark subtable" finalmem.wide thinspace
EndChar

StartChar: resh.wide
Encoding: 212 64295 152
Width: 2017
VWidth: 2248
GlyphClass: 2
Flags: W
HStem: 822 304<-42.1283 1536.86>
VStem: 1772 126<-18.2996 147.751>
AnchorPoint: "m2b10" -275 0 basechar 0
AnchorPoint: "m2b9" 1110 0 basechar 0
AnchorPoint: "m2b8a" 960 0 basechar 0
AnchorPoint: "m2b8b" 120 0 basechar 0
AnchorPoint: "m2b8c" 1815 0 basechar 0
AnchorPoint: "m2b7c" -220 0 basechar 0
AnchorPoint: "m2b7b" 215 0 basechar 0
AnchorPoint: "m2b7a" 55 0 basechar 0
AnchorPoint: "m2b5a" 1800 0 basechar 0
AnchorPoint: "m2b5b" 1950 0 basechar 0
AnchorPoint: "m2bv2left" 1870 0 basechar 0
AnchorPoint: "m2b4a" 1815 0 basechar 0
AnchorPoint: "m2b4b" 1815 0 basechar 0
AnchorPoint: "m2b4c" 1815 0 basechar 0
AnchorPoint: "m2b4d" 1690 0 basechar 0
AnchorPoint: "m2b2" 960 0 basechar 0
AnchorPoint: "m2b1" 960 0 basechar 0
LayerCount: 2
Fore
SplineSet
1898 19 m 0
 1890 -12 1870 -26 1850 -26 c 0
 1826 -26 1780 -8 1772 30 c 0
 1746 140 1715 246 1690 354 c 2
 1620 656 l 2
 1602 736 1564 822 1415 822 c 2
 190 822 l 2
 21 822 -92 849 -124 989 c 10
 -148 1090 l 18
 -154 1116 -161 1145 -161 1173 c 0
 -161 1194 -153 1205 -141 1205 c 0
 -130 1205 -116 1194 -103 1170 c 0
 -80 1127 -78 1126 -24 1126 c 2
 1358 1126 l 2
 1527 1126 1662 1063 1753 665 c 10
 1886 91 l 18
 1891 71 1898 54 1898 30 c 0
 1898 27 1898 23 1898 19 c 0
EndSplineSet
Validated: 1
MultipleSubs2: "Addhairspacebeforeletter subtable" hairspace resh.wide
MultipleSubs2: "Addthinspacebeforeletter subtable" thinspace resh.wide
MultipleSubs2: "AddHairspaceAfterMark subtable" resh.wide hairspace
MultipleSubs2: "AddThinspaceAfterMark subtable" resh.wide thinspace
EndChar

StartChar: tav.wide
Encoding: 213 64296 153
Width: 1984
VWidth: 2248
GlyphClass: 2
Flags: W
HStem: 0 293<60.334 219> 828 298<167 1505.62>
VStem: 50 117<585.318 828> 54 357<0.436646 290.107> 1733 132<-12.1899 147.751>
AnchorPoint: "m2b10" -275 0 basechar 0
AnchorPoint: "m2b9" 1110 0 basechar 0
AnchorPoint: "m2b8a" 960 0 basechar 0
AnchorPoint: "m2b8b" 120 0 basechar 0
AnchorPoint: "m2b8c" 1815 0 basechar 0
AnchorPoint: "m2b7c" -220 0 basechar 0
AnchorPoint: "m2b7b" 176 0 basechar 0
AnchorPoint: "m2b7a" 75 0 basechar 0
AnchorPoint: "m2b5a" 1015 0 basechar 0
AnchorPoint: "m2b5b" 1800 0 basechar 0
AnchorPoint: "m2b4a" 1050 0 basechar 0
AnchorPoint: "m2b4b" 1050 0 basechar 0
AnchorPoint: "m2b4c" 1050 0 basechar 0
AnchorPoint: "m2b4d" 1050 0 basechar 0
AnchorPoint: "m2b3" 960 0 basechar 0
AnchorPoint: "m2b2" 960 0 basechar 0
AnchorPoint: "m2b1" 960 0 basechar 0
LayerCount: 2
Fore
SplineSet
1865 30 m 0xe8
 1865 -7 1837 -27 1818 -27 c 0
 1795 -27 1741 2 1733 38 c 0
 1707 148 1677 254 1652 362 c 2
 1583 664 l 2
 1564 744 1525 828 1376 828 c 2
 236 822 l 2
 211 822 188 825 167 828 c 1xe8
 168 769 173 716 183 671 c 0
 238 434 389 358 408 279 c 0
 412 261 413 239 413 203 c 9
 411 80 l 18
 410 1 412 0 347 0 c 2
 119 0 l 2
 82 0 67 1 60 31 c 0
 55 53 55 92 54 159 c 0xd8
 55 293 53 293 139 293 c 0
 195 293 219 293 219 308 c 0
 219 309 219 311 219 312 c 0
 210 350 115 423 70 621 c 0
 54 690 51 761 50 835 c 1
 -30 855 -84 898 -105 988 c 10
 -128 1089 l 18
 -134 1115 -142 1144 -142 1172 c 0
 -142 1193 -134 1204 -123 1204 c 0
 -111 1204 -96 1193 -84 1169 c 0
 -61 1126 -59 1126 -5 1126 c 2
 1325 1126 l 2
 1494 1126 1629 1063 1720 665 c 10
 1853 91 l 18
 1858 71 1865 54 1865 30 c 0xe8
EndSplineSet
Validated: 1
MultipleSubs2: "Addhairspacebeforeletter subtable" hairspace tav.wide
MultipleSubs2: "Addthinspacebeforeletter subtable" thinspace tav.wide
MultipleSubs2: "AddHairspaceAfterMark subtable" tav.wide hairspace
MultipleSubs2: "AddThinspaceAfterMark subtable" tav.wide thinspace
EndChar

StartChar: hebrewplussign
Encoding: 214 64297 154
Width: 778
VWidth: 2494
GlyphClass: 2
Flags: W
HStem: 493 119<132.026 357 427 647>
VStem: 357 70<612 822.988>
LayerCount: 2
Fore
SplineSet
357 612 m 9
 357 819 l 17
 367 822 380 823 394 823 c 0
 406 823 418 822 427 821 c 1
 427 612 l 1
 627 612 l 1
 647 612 647 608 647 585 c 9
 647 514 l 17
 647 493 633 493 620 493 c 1
 150 493 l 1
 130 493 132 493 132 519 c 9
 132 589 l 17
 132 607 132 612 151 612 c 1
 357 612 l 9
EndSplineSet
Validated: 1
EndChar

StartChar: aleflamed
Encoding: 247 64335 187
Width: 1085
VWidth: 2248
GlyphClass: 3
Flags: W
VStem: -205 202<1501.99 1598.01> -183 97<1177.23 1445.89> -140 54<1394.36 1427.56>
AnchorPoint: "m2b8a" 580 0 basechar 0
AnchorPoint: "m2b8b" -120 0 basechar 0
AnchorPoint: "m2b8c" 870 0 basechar 0
AnchorPoint: "m2b7a" -60 0 basechar 0
AnchorPoint: "m2b5a" 580 0 basechar 0
AnchorPoint: "m2b5b" 950 0 basechar 0
AnchorPoint: "m2b4a" 580 0 basechar 0
AnchorPoint: "m2b4b" 580 0 basechar 0
AnchorPoint: "m2b4c" 620 0 basechar 0
AnchorPoint: "m2b4d" 580 0 basechar 0
AnchorPoint: "m2b1" 510 0 basechar 0
LayerCount: 2
Fore
SplineSet
-23 1142 m 0x40
 160 908 263 829 497 662 c 9
 545 759 l 25
 463 833 l 17
 423 871 401 909 401 969 c 0
 401 999 408 1029 419 1055 c 8
 446 1117 473 1209 496 1209 c 3
 529 1209 517 1157 524 1127 c 0
 543 1044 766 960 789 863 c 0
 790 857 791 851 791 844 c 0
 791 785 738 709 712 625 c 9
 645 685 l 25
 599 589 l 25
 772 451 l 17
 850 387 888 310 905 238 c 0
 912 208 915 178 915 150 c 0
 915 52 878 -23 850 -23 c 0
 836 -23 820 -7 796 36 c 0
 650 291 309 458 126 622 c 1
 17 708 -56 786 -89 926 c 10
 -180 1319 l 18
 -182 1329 -183 1337 -183 1345 c 0x40
 -183 1396 -140 1409 -140 1452 c 0x20
 -140 1517 -182 1482 -202 1570 c 0
 -204 1576 -205 1583 -205 1591 c 0
 -205 1640 -177 1708 -164 1708 c 3
 -137 1708 -143 1677 -127 1659 c 24
 -80 1608 -3 1596 -3 1519 c 0x80
 -3 1455 -86 1431 -86 1372 c 0
 -86 1367 -86 1362 -84 1357 c 10
 -55 1228 l 18
 -43 1177 -37 1161 -23 1142 c 0x40
EndSplineSet
Validated: 1
MultipleSubs2: "Addhairspacebeforeletter subtable" hairspace aleflamed
MultipleSubs2: "Addthinspacebeforeletter subtable" thinspace aleflamed
Ligature2: "B6ccmpAlefLamedLigature subtable" alef zerojoin lamed
LCarets2: 2 4 0 
EndChar

StartChar: hatafsegol_meteg
Encoding: 248 -1 188
Width: 0
VWidth: 2248
Flags: W
HStem: -463 156<329.998 457.882> -443 161<-177.014 -43.9366> -277 163<-320.646 -193.09 -106.646 20.9102 287.459 410.932>
VStem: -340 166<-257.654 -133.707> -197 170<-422.218 -300.021> -126 166<-257.654 -133.707> 268 162<-254.459 -134.407> 312 162<-444.737 -324.36>
AnchorPoint: "m2m6d" 464.77 1 basemark 0
AnchorPoint: "m2m1" -460 0 basemark 0
AnchorPoint: "m2b4d" 0 0 mark 0
LayerCount: 2
Fore
SplineSet
-238 -277 m 0x30
 -287 -277 -340 -234 -340 -177 c 0
 -340 -141 -315 -114 -276 -114 c 0
 -226 -114 -174 -158 -174 -215 c 0
 -174 -250 -199 -277 -238 -277 c 0x30
-24 -277 m 0
 -73 -277 -126 -234 -126 -177 c 0
 -126 -141 -101 -114 -62 -114 c 0
 -12 -114 40 -158 40 -215 c 0x24
 40 -250 15 -277 -24 -277 c 0
-93 -443 m 0x68
 -142 -443 -197 -400 -197 -343 c 0
 -197 -307 -170 -282 -130 -282 c 0
 -81 -282 -27 -321 -27 -379 c 0
 -27 -416 -53 -443 -93 -443 c 0x68
411 -463 m 0xa1
 366 -463 312 -423 312 -366 c 0
 312 -331 337 -307 375 -307 c 0
 422 -307 474 -347 474 -402 c 0
 474 -439 447 -463 411 -463 c 0xa1
367 -272 m 0
 322 -272 268 -234 268 -177 c 0
 268 -142 293 -116 331 -116 c 0
 378 -116 430 -158 430 -213 c 0x22
 430 -249 403 -272 367 -272 c 0
233 -470 m 2
 209 -470 l 2
 167 -470 160 -468 150 -424 c 2
 92 -172 l 2
 89 -160 87 -151 87 -144 c 0
 87 -129 97 -126 127 -126 c 2
 151 -126 l 2
 193 -126 200 -128 210 -172 c 2
 268 -424 l 2
 271 -436 273 -445 273 -452 c 0
 273 -467 263 -470 233 -470 c 2
EndSplineSet
Validated: 1
MultipleSubs2: "AddHairspaceAfterMark subtable" hatafsegol_meteg hairspace
MultipleSubs2: "AddThinspaceAfterMark subtable" hatafsegol_meteg thinspace
Ligature2: "B1ccmpHatafMeteg subtable" hatafsegol zerojoin meteg
LCarets2: 2 0 0 
EndChar

StartChar: hatafpatah_meteg
Encoding: 249 -1 189
Width: 0
VWidth: 2248
Flags: W
HStem: -463 156<329.998 457.882> -272 156<284.584 412.498> -241 114<-337.492 32.019>
VStem: 268 162<-254.459 -134.407> 312 162<-444.737 -324.36>
AnchorPoint: "m2m6d" 464.77 1 basemark 0
AnchorPoint: "m2m1" -460 0 basemark 0
AnchorPoint: "m2b4d" 0 0 mark 0
LayerCount: 2
Fore
SplineSet
-25 -127 m 2xa0
 20 -127 23 -130 34 -179 c 0
 38 -193 40 -205 40 -214 c 0
 40 -233 31 -241 0 -241 c 2
 -281 -241 l 2
 -323 -241 -331 -227 -339 -190 c 0
 -344 -168 -347 -154 -347 -145 c 0
 -347 -128 -337 -127 -307 -127 c 2
 -25 -127 l 2xa0
411 -463 m 0
 366 -463 312 -423 312 -366 c 0
 312 -331 337 -307 375 -307 c 0
 422 -307 474 -347 474 -402 c 0x88
 474 -439 447 -463 411 -463 c 0
367 -272 m 0xd0
 322 -272 268 -234 268 -177 c 0
 268 -142 293 -116 331 -116 c 0
 378 -116 430 -158 430 -213 c 0
 430 -249 403 -272 367 -272 c 0xd0
233 -470 m 2
 209 -470 l 2
 167 -470 160 -468 150 -424 c 2
 92 -172 l 2
 89 -160 87 -151 87 -144 c 0
 87 -129 97 -126 127 -126 c 2
 151 -126 l 2
 193 -126 200 -128 210 -172 c 2
 268 -424 l 2
 271 -436 273 -445 273 -452 c 0
 273 -467 263 -470 233 -470 c 2
EndSplineSet
Validated: 1
MultipleSubs2: "AddHairspaceAfterMark subtable" hatafpatah_meteg hairspace
MultipleSubs2: "AddThinspaceAfterMark subtable" hatafpatah_meteg thinspace
Ligature2: "B1ccmpHatafMeteg subtable" hatafpatah zerojoin meteg
LCarets2: 2 0 0 
EndChar

StartChar: hatafqamats_meteg
Encoding: 250 -1 190
Width: 0
VWidth: 2248
Flags: W
HStem: -463 156<329.998 457.882> -272 156<284.584 412.498> -241 113<-337.516 -171.001 -100 32.1879>
VStem: -171 146<-432.437 -267> 268 162<-254.459 -134.407> 312 162<-444.737 -324.36>
AnchorPoint: "m2m6d" 464.77 1 basemark 0
AnchorPoint: "m2m1" -460 0 basemark 0
AnchorPoint: "m2b4d" 0 0 mark 0
LayerCount: 2
Fore
SplineSet
-171 -272 m 0xd0
 -171 -262 -172 -249 -176 -241 c 1
 -277 -241 l 2
 -325 -241 -331 -224 -342 -179 c 0
 -345 -164 -347 -153 -347 -146 c 0
 -347 -130 -337 -128 -306 -128 c 2
 -24 -128 l 2
 21 -128 23 -131 34 -179 c 0
 38 -193 40 -205 40 -214 c 0
 40 -233 31 -241 0 -241 c 2
 -100 -241 l 1xb0
 -101 -246 -100 -251 -99 -255 c 0
 -88 -304 -25 -343 -25 -405 c 0
 -25 -442 -48 -471 -86 -471 c 0
 -130 -471 -187 -426 -187 -365 c 0
 -187 -333 -171 -302 -171 -272 c 0xd0
411 -463 m 0
 366 -463 312 -423 312 -366 c 0
 312 -331 337 -307 375 -307 c 0
 422 -307 474 -347 474 -402 c 0x94
 474 -439 447 -463 411 -463 c 0
367 -272 m 0xd8
 322 -272 268 -234 268 -177 c 0
 268 -142 293 -116 331 -116 c 0
 378 -116 430 -158 430 -213 c 0
 430 -249 403 -272 367 -272 c 0xd8
233 -470 m 2
 209 -470 l 2
 167 -470 160 -468 150 -424 c 2
 92 -172 l 2
 89 -160 87 -151 87 -144 c 0
 87 -129 97 -126 127 -126 c 2
 151 -126 l 2
 193 -126 200 -128 210 -172 c 2
 268 -424 l 2
 271 -436 273 -445 273 -452 c 0
 273 -467 263 -470 233 -470 c 2
EndSplineSet
Validated: 1
MultipleSubs2: "AddHairspaceAfterMark subtable" hatafqamats_meteg hairspace
MultipleSubs2: "AddThinspaceAfterMark subtable" hatafqamats_meteg thinspace
Ligature2: "B1ccmpHatafMeteg subtable" hatafqamats zerojoin meteg
LCarets2: 2 0 0 
EndChar

StartChar: underscore
Encoding: 64 95 191
Width: 950
VWidth: 1900
Flags: W
HStem: -281 171<65 975>
LayerCount: 2
Fore
SplineSet
25 -110 m 1
 975 -110 l 1
 1015 -281 l 1
 65 -281 l 1
 25 -110 l 1
EndSplineSet
Validated: 1
EndChar

StartChar: grave
Encoding: 65 96 192
Width: 457
VWidth: 1900
Flags: W
HStem: 737 352<-27.5103 125.628>
VStem: -191 161<963.5 1224.41>
LayerCount: 2
Fore
SplineSet
64 737 m 0
 -72 737 -191 873 -191 1054 c 0
 -191 1189 -115 1314 35 1419 c 1
 104 1341 l 1
 18 1270 -30 1191 -30 1125 c 0
 -30 1111 -29 1085 -16 1085 c 0
 -11 1085 -3 1089 5 1089 c 0
 106 1089 208 1000 208 879 c 0
 208 796 151 737 64 737 c 0
EndSplineSet
Validated: 1
EndChar

StartChar: braceleft
Encoding: 92 123 193
Width: 739
VWidth: 1900
Flags: W
HStem: -205 87<576.671 679> 1284 88<270.078 335>
VStem: 34 231<985.883 1277.22> 127 234<648.789 957.352>
LayerCount: 2
Fore
SplineSet
16 625 m 1xe0
 98 646 127 667 127 738 c 0xd0
 127 762 120 795 101 878 c 2
 53 1087 l 2
 40 1141 34 1185 34 1220 c 0
 34 1266 45 1297 67 1320 c 1
 94 1350 166 1372 236 1372 c 2
 335 1372 l 1
 356 1284 l 1
 291 1284 265 1259 265 1208 c 0xe0
 265 1192 267 1173 272 1151 c 2
 348 821 l 2
 357 786 361 756 361 731 c 0xd0
 361 650 317 612 209 583 c 1
 368 545 424 492 458 346 c 2
 510 122 l 2
 547 -41 548 -42 571 -70 c 0
 597 -100 625 -112 679 -118 c 1
 699 -205 l 1
 600 -205 l 2
 530 -205 448 -184 408 -154 c 1
 349 -114 314 -45 286 80 c 2
 237 289 l 2
 208 414 202 433 173 469 c 0
 141 507 110 523 34 542 c 1
 16 625 l 1xe0
EndSplineSet
Validated: 1
EndChar

StartChar: bar
Encoding: 93 124 194
Width: 1151
VWidth: 1900
Flags: W
HStem: 0 21G<457.379 688>
VStem: 145 543
LayerCount: 2
Fore
SplineSet
371 1372 m 1
 688 0 l 1
 462 0 l 1
 145 1372 l 1
 371 1372 l 1
EndSplineSet
Validated: 1
EndChar

StartChar: braceright
Encoding: 94 125 195
Width: 739
VWidth: 1900
Flags: W
HStem: -205 87<106 171.616> 1284 88<-237 -129.402>
VStem: 85 234<205.047 519.542> 182 229<-106.486 171.219>
LayerCount: 2
Fore
SplineSet
426 542 m 1xe0
 343 521 319 498 319 426 c 0xe0
 319 402 325 370 343 289 c 2
 392 80 l 2
 404 25 411 -19 411 -54 c 0xd0
 411 -100 400 -132 378 -154 c 1
 350 -184 279 -205 209 -205 c 2
 106 -205 l 1
 85 -118 l 1xe0
 139 -112 162 -100 174 -70 c 0
 179 -60 182 -53 182 -41 c 0xd0
 182 -20 173 18 149 122 c 2
 97 346 l 2
 89 381 85 411 85 436 c 0
 85 517 128 554 235 583 c 1
 77 621 21 675 -13 821 c 2
 -89 1151 l 2
 -109 1240 -150 1284 -237 1284 c 1
 -258 1372 l 1
 -155 1372 l 2
 -85 1372 -4 1350 37 1320 c 1
 95 1280 130 1212 159 1087 c 2
 207 878 l 2
 236 754 243 733 272 697 c 0
 302 659 333 642 407 625 c 1
 426 542 l 1xe0
EndSplineSet
Validated: 1
EndChar

StartChar: asciitilde
Encoding: 95 126 196
Width: 1151
VWidth: 1900
Flags: W
HStem: 304 217<528.661 721.688> 420 216<212.415 409.01>
LayerCount: 2
Fore
SplineSet
182 321 m 1x40
 0 420 l 1
 43 562 119 636 223 636 c 0x40
 267 636 312 625 405 593 c 2
 513 557 l 1
 603 525 620 521 648 521 c 0
 692 521 717 543 752 619 c 1
 934 519 l 1
 889 377 815 304 711 304 c 0x80
 667 304 624 314 530 348 c 1
 420 384 l 1
 331 416 315 420 287 420 c 0
 243 420 217 397 182 321 c 1x40
EndSplineSet
Validated: 1
EndChar

StartChar: Euro
Encoding: 200 8364 197
Width: 1024
Flags: W
HStem: -18 110<506.619 819.697> 408 79<-35 69 282 625> 617 79<-83 30 214 626> 1086 71<288.259 510.874>
VStem: 30 165<696 977.196>
LayerCount: 2
Fore
SplineSet
395 1086 m 0
 243 1086 195 947 195 799 c 0
 195 766 197 731 201 696 c 1
 626 696 l 1
 645 617 l 1
 214 617 l 1
 221 586 l 2
 229 552 238 519 250 487 c 1
 625 487 l 1
 643 408 l 1
 282 408 l 1
 363 242 478 92 677 92 c 0
 774 92 840 122 908 160 c 1
 915 153 922 144 929 134 c 1
 935 108 l 1
 872 38 753 -18 621 -18 c 0
 564 -18 505 -8 446 17 c 0
 287 84 171 229 99 408 c 1
 -35 408 l 1
 -53 487 l 1
 69 487 l 1
 39 617 l 1
 -83 617 l 1
 -102 696 l 1
 30 696 l 1
 29 717 30 737 30 757 c 0
 30 990 138 1157 388 1157 c 0
 542 1157 708 1105 738 976 c 0
 739 968 740 961 740 954 c 0
 740 915 712 890 671 890 c 0
 594 890 534 967 513 1057 c 1
 476 1076 434 1086 395 1086 c 0
EndSplineSet
Validated: 1
EndChar

StartChar: A
Encoding: 34 65 202
Width: 1442
VWidth: 1900
Flags: W
HStem: 0 104<-34 51.9442 321.599 491 811 920.981 1304.84 1454> 414 128<310 686>
LayerCount: 2
Fore
SplineSet
344 1400 m 1
 488 1400 l 1
 1249 222 l 2
 1311 125 1346 103 1454 103 c 1
 1478 0 l 1
 811 0 l 1
 787 104 l 1
 820 104 l 2
 895 104 921 113 921 138 c 0
 921 165 904 189 878 228 c 1
 763 414 l 1
 290 414 l 1
 276 342 l 2
 269 311 266 291 266 273 c 0
 266 260 268 248 271 234 c 0
 291 147 354 103 491 103 c 1
 515 0 l 1
 -34 0 l 1
 -58 103 l 1
 54 103 106 188 145 393 c 2
 344 1400 l 1
397 996 m 1
 310 542 l 1
 686 542 l 1
 397 996 l 1
EndSplineSet
Validated: 1
EndChar

StartChar: B
Encoding: 35 66 203
Width: 1478
VWidth: 1900
Flags: W
HStem: 0 103<32 191.963 541.283 892.967> 652 104<421 696.747> 1269 103<-261 -70.9999 296.126 619.462>
VStem: 764 341<839.388 1120.31> 957 366<164.243 450.981>
LayerCount: 2
Fore
SplineSet
37 103 m 2xe8
 142 103 192 105 192 149 c 0
 192 165 185 195 167 274 c 2
 -23 1098 l 2
 -52 1220 -53 1226 -70 1243 c 1
 -91 1262 -133 1269 -232 1269 c 2
 -261 1269 l 1
 -285 1372 l 1
 449 1372 l 2
 675 1372 769 1357 887 1296 c 1
 992 1245 1072 1144 1097 1036 c 0
 1102 1013 1105 991 1105 970 c 0xf0
 1105 887 1063 819 982 775 c 0
 935 750 884 737 794 722 c 1
 1055 689 1267 567 1315 359 c 0
 1321 335 1323 312 1323 289 c 0
 1323 189 1273 102 1184 57 c 1
 1097 15 1000 0 802 0 c 2
 32 0 l 1
 8 103 l 1
 37 103 l 2xe8
385 1269 m 2
 339 1269 295 1256 295 1214 c 0
 295 1202 299 1185 304 1159 c 2
 397 756 l 1
 490 756 l 2
 608 756 670 771 711 813 c 1
 746 847 764 893 764 950 c 0
 764 974 761 1000 755 1028 c 0
 718 1186 609 1269 442 1269 c 2
 385 1269 l 2
721 103 m 2
 875 103 957 158 957 302 c 0xe8
 957 443 880 554 791 606 c 1
 730 640 672 652 552 652 c 2
 421 652 l 1
 520 224 l 2
 535 161 536 156 545 141 c 0
 563 114 598 103 664 103 c 2
 721 103 l 2
EndSplineSet
Validated: 1
EndChar

StartChar: C
Encoding: 36 67 204
Width: 1478
VWidth: 1900
Flags: W
HStem: -28 117<627.165 984.849> 1302 91<359.241 696.167>
VStem: -101 355<679.374 1088> 1051 79<847.004 909.195> 1140 125<253.477 475>
LayerCount: 2
Fore
SplineSet
1004 1393 m 1
 1130 849 l 1
 1051 838 l 1
 891 1155 719 1302 508 1302 c 0
 339 1302 254 1194 254 986 c 0
 254 906 267 812 292 703 c 0
 388 285 555 89 813 89 c 0
 1023 89 1140 228 1140 474 c 0
 1140 484 1140 494 1140 504 c 1
 1264 475 l 1
 1264 468 1265 462 1265 455 c 0
 1265 129 1107 -28 777 -28 c 0
 555 -28 379 36 214 180 c 0
 61 315 -33 471 -78 669 c 0
 -94 735 -101 798 -101 858 c 0
 -101 1182 118 1400 471 1400 c 0
 606 1400 699 1378 841 1302 c 1
 922 1393 l 1
 1004 1393 l 1
EndSplineSet
Validated: 1
EndChar

StartChar: D
Encoding: 37 68 205
Width: 1582
VWidth: 1900
Flags: W
HStem: 0 103<36 194.964 551.382 888.035> 1269 103<-257 -53.4098 302.295 641.976>
VStem: 1003 368<262.442 729.572>
LayerCount: 2
Fore
SplineSet
171 274 m 2
 -19 1098 l 2
 -47 1218 -50 1226 -67 1241 c 0
 -88 1262 -129 1269 -228 1269 c 2
 -257 1269 l 1
 -281 1372 l 1
 395 1372 l 2
 663 1372 810 1345 942 1269 c 1
 1148 1153 1286 956 1345 701 c 0
 1362 626 1371 556 1371 491 c 0
 1371 330 1318 200 1217 116 c 0
 1118 34 974 0 735 0 c 2
 36 0 l 1
 12 103 l 1
 41 103 l 2
 140 103 178 110 190 131 c 0
 193 136 195 141 195 150 c 0
 195 166 189 197 171 274 c 2
666 103 m 2
 706 103 l 2
 833 103 934 150 972 232 c 1
 993 273 1003 336 1003 413 c 0
 1003 497 991 599 966 705 c 0
 879 1085 708 1269 444 1269 c 2
 397 1269 l 2
 328 1269 301 1256 301 1210 c 0
 301 1195 304 1177 309 1155 c 2
 524 226 l 2
 547 125 573 103 666 103 c 2
EndSplineSet
Validated: 1
EndChar

StartChar: E
Encoding: 38 69 206
Width: 1442
VWidth: 1900
Flags: W
HStem: 0 103<30 189.963 571.357 961.737> 657 105<418 560.559> 1269 103<-263 -58.6621 304.214 709.901>
VStem: 626 103<978.798 1032> 774 103<388 450.381> 1015 87<878 940.123> 1125 100<448.918 511>
LayerCount: 2
Fore
SplineSet
35 103 m 2
 140 103 190 105 190 149 c 0
 190 165 183 195 165 274 c 2
 -25 1098 l 2
 -53 1218 -55 1226 -72 1241 c 0
 -93 1262 -135 1269 -234 1269 c 2
 -263 1269 l 1
 -287 1372 l 1
 988 1372 l 1
 1102 878 l 1
 1015 878 l 1
 907 1088 779 1269 494 1269 c 2
 440 1269 l 2
 349 1269 299 1256 299 1196 c 0
 299 1178 304 1152 315 1106 c 2
 394 762 l 1
 426 762 l 2
 558 762 629 838 629 978 c 0
 629 995 628 1013 626 1032 c 1
 729 1032 l 1
 877 388 l 1
 774 388 l 1
 713 563 598 657 450 657 c 2
 418 657 l 1
 516 236 l 2
 530 173 540 152 570 129 c 1
 599 106 624 103 717 103 c 2
 774 103 l 2
 1004 103 1111 226 1125 511 c 1
 1225 511 l 1
 1343 0 l 1
 30 0 l 1
 6 103 l 1
 35 103 l 2
EndSplineSet
Validated: 1
EndChar

StartChar: F
Encoding: 39 70 207
Width: 1371
VWidth: 1900
Flags: W
HStem: 0 103<42 200.963 551.445 778> 657 105<429 579.34> 1269 103<-251 -47.6621 315.306 704.087>
VStem: 638 102<976.798 1032> 786 102<388 450.381> 1009 88<878 940.123>
LayerCount: 2
Fore
SplineSet
46 103 m 2
 151 103 201 105 201 149 c 0
 201 165 194 195 176 274 c 2
 -14 1098 l 2
 -42 1218 -44 1226 -61 1241 c 0
 -82 1262 -124 1269 -223 1269 c 2
 -251 1269 l 1
 -275 1372 l 1
 983 1372 l 1
 1097 878 l 1
 1009 878 l 1
 902 1090 773 1269 488 1269 c 2
 452 1269 l 2
 361 1269 310 1256 310 1196 c 0
 310 1178 315 1152 326 1106 c 2
 405 762 l 1
 438 762 l 2
 571 762 641 835 641 976 c 0
 641 993 640 1012 638 1032 c 1
 740 1032 l 1
 888 388 l 1
 786 388 l 1
 725 563 612 657 462 657 c 2
 429 657 l 1
 518 274 l 2
 545 154 548 146 565 131 c 0
 587 110 627 103 728 103 c 2
 778 103 l 1
 802 0 l 1
 42 0 l 1
 18 103 l 1
 46 103 l 2
EndSplineSet
Validated: 1
EndChar

StartChar: G
Encoding: 40 71 208
Width: 1582
VWidth: 1900
Flags: W
HStem: -28 98<612.933 923.507> 536 102<754 949.609 1273 1405> 1302 91<376.088 722.989>
VStem: -104 366<641.39 1081.78> 998 275<285.172 486.223>
LayerCount: 2
Fore
SplineSet
1044 1393 m 1
 1170 847 l 1
 1086 847 l 1
 957 1136 753 1302 529 1302 c 0
 417 1302 329 1248 294 1159 c 0
 273 1103 262 1035 262 956 c 0
 262 687 372 386 478 234 c 0
 550 131 658 70 774 70 c 0
 915 70 998 151 998 281 c 0
 998 307 995 335 988 365 c 2
 982 391 l 2
 950 530 940 536 775 536 c 2
 754 536 l 1
 731 638 l 1
 1405 638 l 1
 1428 536 l 1
 1320 536 1291 528 1278 509 c 0
 1275 504 1273 499 1273 491 c 0
 1273 475 1280 444 1299 365 c 2
 1389 -28 l 1
 1288 -28 l 1
 1152 160 l 1
 1110 103 1086 77 1045 49 c 0
 969 0 859 -28 743 -28 c 0
 350 -28 15 255 -80 665 c 0
 -96 736 -104 801 -104 861 c 0
 -104 979 -73 1079 -8 1170 c 1
 98 1322 267 1400 485 1400 c 0
 622 1400 720 1374 870 1298 c 1
 960 1393 l 1
 1044 1393 l 1
EndSplineSet
Validated: 1
EndChar

StartChar: H
Encoding: 41 72 209
Width: 1653
VWidth: 1900
Flags: W
HStem: 0 103<38 196.964 547.914 753 876 1034.96 1400.05 1591> 644 114<429 899> 1269 103<-255 -51.4098 299.038 460 583 786.026 1137.04 1298>
LayerCount: 2
Fore
SplineSet
880 103 m 2
 986 103 1035 105 1035 150 c 0
 1035 166 1029 197 1011 274 c 2
 925 644 l 1
 429 644 l 1
 515 274 l 2
 543 152 544 146 561 131 c 0
 583 110 626 103 725 103 c 2
 753 103 l 1
 777 0 l 1
 38 0 l 1
 14 103 l 1
 42 103 l 2
 148 103 197 105 197 150 c 0
 197 166 191 197 173 274 c 2
 -17 1096 l 2
 -45 1218 -48 1226 -65 1241 c 0
 -86 1262 -128 1269 -227 1269 c 2
 -255 1269 l 1
 -279 1372 l 1
 460 1372 l 1
 484 1269 l 1
 456 1269 l 2
 351 1269 299 1267 299 1223 c 0
 299 1207 306 1176 325 1096 c 2
 403 758 l 1
 899 758 l 1
 821 1096 l 2
 793 1216 790 1226 773 1241 c 0
 752 1262 710 1269 611 1269 c 2
 583 1269 l 1
 559 1372 l 1
 1298 1372 l 1
 1322 1269 l 1
 1293 1269 l 2
 1188 1269 1137 1267 1137 1223 c 0
 1137 1207 1144 1176 1163 1096 c 2
 1353 274 l 2
 1381 152 1382 146 1399 131 c 0
 1421 110 1463 103 1562 103 c 2
 1591 103 l 1
 1615 0 l 1
 876 0 l 1
 852 103 l 1
 880 103 l 2
EndSplineSet
Validated: 1
EndChar

StartChar: I
Encoding: 42 73 210
Width: 843
VWidth: 1900
Flags: W
HStem: 0 103<53 212.963 562.914 768> 1269 103<-240 -35.1575 314.038 475>
LayerCount: 2
Fore
SplineSet
58 103 m 2
 163 103 213 105 213 149 c 0
 213 165 206 195 188 274 c 2
 0 1098 l 2
 -28 1218 -32 1226 -49 1241 c 0
 -70 1262 -112 1269 -211 1269 c 2
 -240 1269 l 1
 -264 1372 l 1
 475 1372 l 1
 499 1269 l 1
 471 1269 l 2
 366 1269 314 1267 314 1223 c 0
 314 1208 321 1177 340 1098 c 2
 530 274 l 2
 558 152 559 146 576 131 c 0
 598 110 641 103 740 103 c 2
 768 103 l 1
 792 0 l 1
 53 0 l 1
 29 103 l 1
 58 103 l 2
EndSplineSet
Validated: 1
EndChar

StartChar: J
Encoding: 43 74 211
Width: 1231
VWidth: 1900
Flags: W
HStem: -28 115<220.627 515.789> 255 372<106.823 234.968> 1269 103<182 385.373 736.038 897>
VStem: -82 426<293.298 519.046> 592 328<158.718 537.984>
LayerCount: 2
Fore
SplineSet
893 1269 m 2
 788 1269 736 1267 736 1223 c 0
 736 1208 743 1177 762 1098 c 2
 892 532 l 2
 911 451 920 383 920 325 c 0
 920 221 890 148 827 87 c 0
 748 9 629 -28 473 -28 c 0
 188 -28 -18 114 -72 346 c 0
 -79 375 -82 403 -82 429 c 0
 -82 548 -14 627 98 627 c 0
 212 627 313 545 339 433 c 0
 343 417 344 402 344 388 c 0
 344 309 291 255 205 255 c 0
 186 255 154 264 135 264 c 0
 114 264 103 249 107 228 c 0
 124 154 246 87 364 87 c 0
 496 87 592 156 592 290 c 0
 592 334 583 390 565 466 c 2
 420 1098 l 2
 391 1220 389 1226 372 1241 c 0
 351 1262 310 1269 211 1269 c 2
 182 1269 l 1
 158 1372 l 1
 897 1372 l 1
 921 1269 l 1
 893 1269 l 2
EndSplineSet
Validated: 1
EndChar

StartChar: K
Encoding: 44 75 212
Width: 1548
VWidth: 1900
Flags: W
HStem: 0 103<28 187.963 537.698 744 863 982.971 1392.75 1530> 1269 103<-265 -60.6622 289.038 451 570 764.709 1053.5 1186>
LayerCount: 2
Fore
SplineSet
774 1195 m 0
 774 1248 706 1269 615 1269 c 2
 570 1269 l 1
 546 1372 l 1
 1186 1372 l 1
 1210 1269 l 1
 1085 1269 1003 1207 876 1045 c 1
 757 880 l 1
 1298 249 l 2
 1416 112 1426 103 1530 103 c 1
 1554 0 l 1
 863 0 l 1
 839 103 l 1
 863 103 l 2
 944 103 983 114 983 140 c 0
 983 162 968 179 946 207 c 1
 580 642 l 1
 458 475 l 1
 505 274 l 2
 532 154 534 146 551 131 c 0
 573 110 616 103 715 103 c 2
 744 103 l 1
 768 0 l 1
 28 0 l 1
 4 103 l 1
 33 103 l 2
 138 103 188 105 188 149 c 0
 188 165 181 195 163 274 c 2
 -27 1098 l 2
 -55 1218 -57 1226 -74 1241 c 0
 -95 1262 -137 1269 -236 1269 c 2
 -265 1269 l 1
 -289 1372 l 1
 451 1372 l 1
 475 1269 l 1
 446 1269 l 2
 341 1269 289 1267 289 1223 c 0
 289 1207 296 1177 315 1098 c 2
 417 654 l 1
 735 1098 l 1
 757 1132 774 1172 774 1195 c 0
EndSplineSet
Validated: 1
EndChar

StartChar: L
Encoding: 45 76 213
Width: 1371
VWidth: 1900
Flags: W
HStem: 0 103<36 194.964 577.357 949.899> 1269 103<-257 -53.4098 297.037 471>
VStem: 1113 101<448.918 511>
LayerCount: 2
Fore
SplineSet
454 1269 m 2
 347 1269 297 1267 297 1223 c 0
 297 1207 304 1177 323 1098 c 2
 522 236 l 2
 536 173 546 152 576 129 c 1
 605 106 630 103 723 103 c 2
 763 103 l 2
 898 103 995 152 1051 245 c 1
 1088 308 1105 380 1113 511 c 1
 1214 511 l 1
 1332 0 l 1
 36 0 l 1
 12 103 l 1
 41 103 l 2
 140 103 178 110 190 131 c 0
 193 136 195 141 195 150 c 0
 195 166 188 197 170 276 c 2
 -19 1098 l 2
 -47 1218 -50 1226 -67 1241 c 0
 -88 1262 -129 1269 -228 1269 c 2
 -257 1269 l 1
 -281 1372 l 1
 471 1372 l 1
 495 1269 l 1
 454 1269 l 2
EndSplineSet
Validated: 1
EndChar

StartChar: M
Encoding: 46 77 214
Width: 1863
VWidth: 1900
Flags: W
HStem: 0 103<17 133.479 372.271 535 1108 1260.96 1612.24 1810> 1269 103<-263 -64.6622 1363.04 1517>
LayerCount: 2
Fore
SplineSet
-7 103 m 1
 98 103 158 135 158 226 c 0
 158 265 148 321 127 412 c 2
 -31 1098 l 2
 -59 1218 -61 1226 -78 1241 c 0
 -99 1262 -141 1269 -242 1269 c 2
 -263 1269 l 1
 -287 1372 l 1
 325 1372 l 1
 809 555 l 1
 897 1372 l 1
 1517 1372 l 1
 1541 1269 l 1
 1520 1269 l 2
 1413 1269 1363 1267 1363 1223 c 0
 1363 1207 1371 1176 1389 1098 c 2
 1579 274 l 2
 1606 156 1608 146 1625 131 c 0
 1647 110 1688 103 1789 103 c 2
 1810 103 l 1
 1834 0 l 1
 1108 0 l 1
 1084 103 l 1
 1105 103 l 2
 1206 103 1244 110 1256 131 c 0
 1259 136 1261 141 1261 150 c 0
 1261 166 1255 197 1237 274 c 2
 1018 1222 l 1
 880 0 l 1
 781 0 l 1
 72 1203 l 1
 255 412 l 2
 294 243 314 196 363 154 c 0
 401 122 459 103 535 103 c 1
 559 0 l 1
 17 0 l 1
 -7 103 l 1
EndSplineSet
Validated: 1
EndChar

StartChar: N
Encoding: 47 78 215
Width: 1582
VWidth: 1900
Flags: W
HStem: 0 104<30 144.304 384.971 548> 1269 103<-259 -109.273 748 906.764 1146.26 1266>
LayerCount: 2
Fore
SplineSet
1290 1269 m 1
 1183 1269 1121 1238 1121 1147 c 0
 1121 1108 1131 1052 1152 960 c 2
 1377 -13 l 1
 1249 -13 l 1
 124 1037 l 1
 268 412 l 2
 306 245 326 198 376 156 c 0
 413 124 466 104 548 104 c 1
 572 0 l 1
 30 0 l 1
 6 104 l 1
 88 104 127 124 150 156 c 0
 164 175 171 196 171 229 c 0
 171 267 162 322 141 412 c 2
 -32 1161 l 1
 -96 1229 -173 1269 -259 1269 c 1
 -283 1372 l 1
 196 1372 l 1
 1128 513 l 1
 1024 960 l 2
 986 1127 965 1176 916 1218 c 0
 878 1250 822 1269 748 1269 c 1
 724 1372 l 1
 1266 1372 l 1
 1290 1269 l 1
EndSplineSet
Validated: 1
EndChar

StartChar: O
Encoding: 48 79 216
Width: 1582
VWidth: 1900
Flags: W
HStem: -28 98<616.315 918.598> 1302 98<344.391 652.03>
VStem: -100 354<673.269 1081.28> 1013 362<276.217 690.608>
LayerCount: 2
Fore
SplineSet
469 1400 m 0
 655 1400 816 1349 968 1239 c 1
 1157 1104 1304 887 1355 667 c 0
 1369 608 1375 551 1375 497 c 0
 1375 347 1324 216 1226 120 c 0
 1123 19 983 -28 789 -28 c 0
 377 -28 14 262 -80 665 c 0
 -93 725 -100 785 -100 842 c 0
 -100 998 -51 1139 43 1239 c 1
 142 1347 285 1400 469 1400 c 0
493 1302 m 0
 381 1302 315 1260 282 1167 c 0
 263 1117 254 1058 254 989 c 0
 254 907 267 812 292 701 c 0
 338 501 411 335 501 217 c 0
 577 118 668 70 778 70 c 0
 933 70 1013 177 1013 380 c 0
 1013 460 1001 556 975 665 c 0
 928 870 855 1041 765 1155 c 1
 688 1252 596 1302 493 1302 c 0
EndSplineSet
Validated: 1
EndChar

StartChar: P
Encoding: 49 80 217
Width: 1442
VWidth: 1900
Flags: W
HStem: 0 103<46 204.964 569.045 774> 589 105<449 739.51> 1267 105<-247 -57.9999 310.447 655.819>
VStem: 816 364<756.721 1079.94>
LayerCount: 2
Fore
SplineSet
50 103 m 2
 156 103 205 104 205 148 c 0
 205 164 198 194 180 274 c 2
 -10 1096 l 2
 -38 1218 -40 1224 -57 1241 c 1
 -78 1260 -120 1267 -219 1267 c 2
 -247 1267 l 1
 -271 1372 l 1
 483 1372 l 2
 673 1372 790 1353 904 1305 c 0
 1039 1248 1135 1132 1167 990 c 0
 1176 955 1180 922 1180 891 c 0
 1180 690 1006 589 662 589 c 2
 449 589 l 1
 522 274 l 2
 550 152 551 146 568 129 c 1
 590 110 631 103 732 103 c 2
 774 103 l 1
 798 0 l 1
 46 0 l 1
 22 103 l 1
 50 103 l 2
425 694 m 1
 535 694 l 2
 731 694 816 745 816 878 c 0
 816 911 811 949 801 992 c 0
 757 1182 653 1267 473 1267 c 2
 397 1267 l 2
 334 1267 310 1256 310 1213 c 0
 310 1197 313 1178 319 1153 c 2
 425 694 l 1
EndSplineSet
Validated: 1
EndChar

StartChar: Q
Encoding: 50 81 218
Width: 1582
VWidth: 1900
Flags: W
HStem: -357 177<1191 1443.89> -28 98<608.885 876.833> 443 108<531.538 752.477> 1302 98<341.918 649.108>
VStem: -107 355<691.113 1082.21> 1001 360<333.052 709.52> 1450 106<-176.653 -34>
LayerCount: 2
Fore
SplineSet
1543 -34 m 1
 1549 -63 1556 -97 1556 -126 c 0
 1556 -266 1456 -357 1290 -357 c 0
 1092 -357 954 -246 908 -48 c 2
 901 -19 l 1
 857 -27 829 -28 783 -28 c 0
 570 -28 381 47 208 203 c 0
 57 338 -45 506 -87 690 c 0
 -101 749 -107 805 -107 859 c 0
 -107 1176 118 1400 467 1400 c 0
 862 1400 1251 1085 1342 690 c 0
 1355 634 1361 578 1361 525 c 0
 1361 345 1290 186 1159 84 c 1
 1278 -129 1323 -180 1382 -180 c 0
 1425 -180 1450 -158 1450 -103 c 0
 1450 -84 1447 -61 1441 -34 c 1
 1543 -34 l 1
997 332 m 1
 1000 350 1001 371 1001 394 c 0
 1001 475 986 585 959 703 c 0
 921 865 861 1013 788 1123 c 0
 709 1241 606 1302 486 1302 c 0
 329 1302 248 1200 248 1001 c 0
 248 796 344 475 409 359 c 1
 418 418 427 447 450 475 c 1
 488 523 559 551 639 551 c 0
 736 551 837 509 915 439 c 0
 947 409 964 385 997 332 c 1
503 307 m 0
 503 160 622 70 765 70 c 0
 811 70 834 76 878 101 c 1
 868 143 867 171 862 190 c 0
 825 353 743 443 633 443 c 0
 551 443 503 389 503 307 c 0
EndSplineSet
Validated: 1
EndChar

StartChar: R
Encoding: 51 82 219
Width: 1548
VWidth: 1900
Flags: W
HStem: -28 159<1152.5 1384.18> 0 104<38 196.964 562.001 774> 659 105<426 697.197> 1269 103<-255 -65.9999 302.194 648.149>
VStem: 793 356<814.373 1110.86> 1378 102<217.223 312> 1391 106<134.951 310.932>
LayerCount: 2
Fore
SplineSet
42 104 m 2x7a
 148 104 197 106 197 151 c 0
 197 167 190 197 172 276 c 2
 -17 1098 l 2
 -46 1220 -48 1226 -65 1243 c 1
 -86 1262 -128 1269 -227 1269 c 2
 -255 1269 l 1
 -279 1372 l 1
 532 1372 l 2
 707 1372 841 1349 923 1303 c 0
 1037 1238 1114 1142 1141 1028 c 0
 1146 1003 1149 978 1149 955 c 0
 1149 864 1105 788 1024 741 c 1
 981 718 936 705 840 686 c 1
 1017 631 1110 545 1178 374 c 1
 1207 302 l 1
 1228 247 1255 176 1270 160 c 1
 1285 143 1311 131 1332 131 c 0
 1371 131 1391 160 1391 216 c 0xba
 1391 242 1387 274 1378 312 c 1
 1480 312 l 1xbc
 1485 289 l 2
 1493 255 1497 223 1497 193 c 0
 1497 52 1405 -28 1235 -28 c 0
 1070 -28 945 50 879 198 c 0
 866 228 828 308 799 435 c 0
 774 543 752 566 714 602 c 1
 671 640 614 659 532 659 c 2
 426 659 l 1
 514 276 l 2
 542 154 544 148 561 131 c 1xba
 582 112 626 104 725 104 c 2
 774 104 l 1
 798 0 l 1
 38 0 l 1
 14 104 l 1
 42 104 l 2x7a
402 764 m 1
 506 764 l 2
 711 764 793 803 793 922 c 0
 793 949 788 981 780 1018 c 0
 740 1191 642 1269 465 1269 c 2
 419 1269 l 2
 331 1269 302 1262 302 1218 c 0
 302 1201 306 1178 313 1148 c 2
 402 764 l 1
EndSplineSet
Validated: 1
EndChar

StartChar: S
Encoding: 52 83 220
Width: 1267
VWidth: 1900
Flags: W
HStem: -28 98<492.074 849.282> -13 21G<95.3818 213.429> 1302 98<116.317 465.283>
VStem: -140 198<1021.24 1238.44> -24 97<461.916 524> 835 78<893 942.088> 913 205<145.193 378.108>
LayerCount: 2
Fore
SplineSet
797 1385 m 1xb2
 913 893 l 1
 835 893 l 1xb4
 660 1163 471 1302 273 1302 c 0
 141 1302 58 1237 58 1142 c 0
 58 1129 59 1116 63 1102 c 0
 81 1024 136 969 229 939 c 0
 281 922 281 921 434 893 c 1
 531 872 l 1
 876 800 1049 665 1105 424 c 0
 1114 387 1118 351 1118 317 c 0
 1118 109 962 -28 707 -28 c 0xb2
 555 -28 425 12 289 99 c 1
 197 -13 l 1
 100 -13 l 1
 -24 524 l 1
 73 524 l 1x6a
 243 239 470 70 685 70 c 0
 828 70 913 138 913 243 c 0
 913 338 858 412 788 445 c 0
 736 470 697 479 570 502 c 2
 447 524 l 2
 136 579 -75 745 -129 977 c 0
 -137 1012 -140 1044 -140 1076 c 0
 -140 1273 15 1400 268 1400 c 0
 401 1400 511 1370 633 1298 c 1
 712 1385 l 1
 797 1385 l 1xb2
EndSplineSet
Validated: 1
EndChar

StartChar: T
Encoding: 53 84 221
Width: 1371
VWidth: 1900
Flags: W
HStem: 0 103<302 476.963 826.698 1045> 1273 99<27.7402 229.507 574.012 779.341>
VStem: -141 72<857 919.042> 1045 72<857 919.042>
LayerCount: 2
Fore
SplineSet
152 1273 m 0
 -1 1273 -71 1124 -71 941 c 0
 -71 916 -71 888 -69 857 c 1
 -141 857 l 1
 -260 1372 l 1
 998 1372 l 1
 1117 857 l 1
 1045 857 l 1
 982 1011 931 1091 862 1161 c 1
 783 1239 713 1273 631 1273 c 0
 590 1273 574 1266 574 1238 c 0
 574 1227 577 1213 581 1195 c 2
 794 274 l 2
 821 154 823 146 840 131 c 0
 862 110 903 103 1004 103 c 2
 1045 103 l 1
 1070 0 l 1
 302 0 l 1
 278 103 l 1
 320 103 l 2
 427 103 477 105 477 149 c 0
 477 165 470 195 452 274 c 2
 239 1195 l 2
 224 1260 209 1273 152 1273 c 0
EndSplineSet
Validated: 1
EndChar

StartChar: U
Encoding: 54 85 222
Width: 1582
VWidth: 1900
Flags: W
HStem: -28 142<654.786 1035.18> 1269 103<-265 -60.6622 289.038 451 731 889.764 1129.26 1249>
VStem: 1134 133<206.42 583.969>
LayerCount: 2
Fore
SplineSet
446 1269 m 2
 341 1269 289 1267 289 1223 c 0
 289 1207 296 1177 315 1098 c 2
 455 490 l 2
 487 351 529 258 583 207 c 1
 650 146 740 114 848 114 c 0
 1006 114 1102 174 1129 294 c 0
 1133 308 1134 324 1134 343 c 0
 1134 394 1122 464 1096 578 c 2
 1007 960 l 2
 968 1129 948 1176 899 1218 c 0
 861 1250 805 1269 731 1269 c 1
 707 1372 l 1
 1249 1372 l 1
 1273 1269 l 1
 1166 1269 1104 1238 1104 1146 c 0
 1104 1107 1113 1051 1134 960 c 2
 1224 578 l 2
 1253 448 1267 365 1267 301 c 0
 1267 255 1260 218 1246 182 c 0
 1187 36 1055 -28 812 -28 c 0
 544 -28 343 48 232 190 c 0
 181 256 148 336 111 496 c 2
 -27 1098 l 2
 -55 1218 -57 1226 -74 1241 c 0
 -95 1262 -137 1269 -236 1269 c 2
 -265 1269 l 1
 -289 1372 l 1
 451 1372 l 1
 475 1269 l 1
 446 1269 l 2
EndSplineSet
Validated: 1
EndChar

StartChar: V
Encoding: 55 86 223
Width: 1442
VWidth: 1900
Flags: W
HStem: 1269 103<-327 -177.369 213.023 337 625 785.469 1068.43 1161>
LayerCount: 2
Fore
SplineSet
725 391 m 1
 838 1068 l 2
 841 1083 842 1096 842 1109 c 0
 842 1176 802 1224 748 1248 c 1
 717 1263 686 1269 625 1269 c 1
 601 1372 l 1
 1161 1372 l 1
 1185 1269 l 1
 1069 1269 1005 1180 979 1028 c 1
 787 -28 l 1
 620 -28 l 1
 -111 1138 l 2
 -180 1248 -215 1269 -327 1269 c 1
 -351 1372 l 1
 337 1372 l 1
 361 1269 l 1
 321 1269 l 2
 245 1269 213 1258 213 1232 c 0
 213 1210 225 1194 245 1159 c 2
 725 391 l 1
EndSplineSet
Validated: 1
EndChar

StartChar: W
Encoding: 56 87 224
Width: 1863
VWidth: 1900
Flags: W
HStem: 1269 103<-282 -155.778 204.018 283 393 500.312 853.018 931 1077 1230.23 1462.21 1532>
LayerCount: 2
Fore
SplineSet
1238 490 m 1
 1278 1032 l 2
 1280 1062 1281 1083 1281 1099 c 0
 1281 1219 1205 1269 1077 1269 c 1
 1053 1372 l 1
 1532 1372 l 1
 1556 1269 l 1
 1447 1246 1421 1203 1410 1015 c 1
 1319 -28 l 1
 1180 -28 l 1
 765 745 l 1
 692 -28 l 1
 549 -28 l 1
 -112 1159 l 2
 -163 1250 -192 1269 -278 1269 c 2
 -282 1269 l 1
 -306 1372 l 1
 283 1372 l 1
 307 1269 l 1
 229 1269 204 1259 204 1234 c 0
 204 1209 215 1194 237 1157 c 2
 614 477 l 1
 656 954 l 1
 538 1168 l 1
 491 1250 467 1269 393 1269 c 1
 369 1372 l 1
 931 1372 l 1
 955 1269 l 1
 878 1269 853 1258 853 1231 c 0
 853 1207 859 1201 879 1167 c 1
 1238 490 l 1
EndSplineSet
Validated: 1
EndChar

StartChar: X
Encoding: 57 88 225
Width: 1371
VWidth: 1900
Flags: W
HStem: 0 103<-23 91.9117 387.697 582 712 804.977 1235.91 1372> 1269 103<-316 -184.651 243.018 340 469 641.343 919.033 1030>
LayerCount: 2
Fore
SplineSet
638 785 m 1
 1087 294 l 2
 1245 123 1271 103 1372 103 c 1
 1396 0 l 1
 712 0 l 1
 688 103 l 1
 774 103 805 114 805 139 c 0
 805 164 784 193 764 213 c 1
 488 509 l 1
 371 296 l 2
 358 275 352 251 352 228 c 0
 352 219 353 210 355 201 c 0
 370 135 438 103 582 103 c 1
 606 0 l 1
 -23 0 l 1
 -47 103 l 1
 63 103 109 139 188 274 c 2
 387 618 l 1
 -130 1172 l 2
 -200 1248 -232 1269 -316 1269 c 1
 -340 1372 l 1
 340 1372 l 1
 364 1269 l 1
 268 1269 243 1262 243 1238 c 0
 243 1212 255 1196 276 1174 c 2
 542 887 l 1
 637 1051 l 1
 664 1093 676 1126 676 1153 c 0
 676 1159 675 1166 673 1172 c 0
 659 1235 589 1269 469 1269 c 1
 445 1372 l 1
 1030 1372 l 1
 1054 1269 l 1
 955 1269 899 1224 837 1123 c 1
 638 785 l 1
EndSplineSet
Validated: 1
EndChar

StartChar: Y
Encoding: 58 89 226
Width: 1371
VWidth: 1900
Flags: W
HStem: 0 103<302 476.963 826.698 1046> 1269 103<-316 -174.041 240.023 344 543 715.539 973.625 1079>
LayerCount: 2
Fore
SplineSet
320 103 m 2
 427 103 477 105 477 149 c 0
 477 165 470 196 452 274 c 2
 381 580 l 1
 -150 1201 l 1
 -199 1256 -230 1269 -316 1269 c 1
 -340 1372 l 1
 344 1372 l 1
 368 1269 l 1
 338 1269 l 2
 272 1269 240 1257 240 1234 c 0
 240 1211 251 1199 277 1168 c 2
 624 752 l 1
 736 1091 l 1
 742 1112 745 1134 745 1154 c 0
 745 1230 674 1269 583 1269 c 2
 543 1269 l 1
 519 1372 l 1
 1079 1372 l 1
 1103 1269 l 1
 997 1269 935 1210 890 1092 c 1
 718 604 l 1
 794 274 l 2
 821 154 823 146 840 131 c 0
 862 110 903 103 1004 103 c 2
 1046 103 l 1
 1070 0 l 1
 302 0 l 1
 278 103 l 1
 320 103 l 2
EndSplineSet
Validated: 1
EndChar

StartChar: Z
Encoding: 59 90 227
Width: 1267
VWidth: 1900
Flags: W
HStem: 0 104<419 835.337> 1267 105<127.779 515>
VStem: -90 74<893 954.864> 983 101<491.516 524>
LayerCount: 2
Fore
SplineSet
888 1372 m 1
 912 1267 l 1
 419 104 l 1
 588 104 l 2
 723 104 774 112 826 142 c 0
 927 199 983 325 983 491 c 0
 983 502 984 513 983 524 c 1
 1084 524 l 1
 1205 0 l 1
 46 0 l 1
 21 110 l 1
 515 1267 l 1
 374 1267 l 2
 173 1267 93 1231 36 1113 c 1
 7 1056 -8 996 -16 893 c 1
 -90 893 l 1
 -201 1372 l 1
 888 1372 l 1
EndSplineSet
Validated: 1
EndChar

StartChar: a
Encoding: 66 97 228
Width: 1160
VWidth: 1900
Flags: W
HStem: -28 161<882.5 1061.75> -28 129<275 580.902> 828 99<212.878 466.279>
VStem: -42 250<712.752 813.404> 16 310<154.911 366.237> 614 493<69.5 267>
LayerCount: 2
Fore
SplineSet
149 540 m 0x74
 52 540 -42 614 -42 723 c 0
 -42 848 102 927 339 927 c 0
 487 927 614 897 697 840 c 0
 775 787 812 728 841 604 c 2
 918 270 l 2
 943 160 959 133 1001 133 c 0
 1022 133 1048 160 1069 160 c 0
 1094 160 1107 135 1107 106 c 0
 1107 33 1029 -28 931 -28 c 0xb4
 834 -28 751 20 700 106 c 1
 621 7 530 -28 367 -28 c 0
 183 -28 56 53 23 194 c 0
 19 214 16 233 16 251 c 0x6c
 16 334 67 394 170 441 c 0
 251 477 313 494 495 536 c 1
 512 538 536 543 555 549 c 1
 532 648 l 2
 502 779 449 828 335 828 c 0
 263 828 208 803 208 774 c 0
 208 758 210 757 233 735 c 1
 261 707 279 680 279 639 c 0
 279 581 226 540 149 540 c 0x74
326 281 m 0x6c
 326 174 398 101 484 101 c 0
 567 101 614 158 614 254 c 0
 614 280 611 309 604 340 c 2
 579 446 l 1
 483 424 l 1
 375 397 326 353 326 281 c 0x6c
EndSplineSet
Validated: 1
EndChar

